SplineFontDB: 3.2
FontName: dn_ModranihtRunic
FullName: dn_Modraniht Runic
FamilyName: dn_Modraniht Runic
Weight: Book
Copyright: Copyright (c) 2010 by David Kerkhoff. All rights reserved. Modified by dn.
Version: 1.001
ItalicAngle: 0
UnderlinePosition: -100
UnderlineWidth: 50
Ascent: 800
Descent: 200
InvalidEm: 0
sfntRevision: 0x00010000
LayerCount: 2
Layer: 0 1 "Back" 1
Layer: 1 1 "Fore" 0
XUID: [1021 29 -48413871 19590]
StyleMap: 0x0040
FSType: 4
OS2Version: 3
OS2_WeightWidthSlopeOnly: 0
OS2_UseTypoMetrics: 0
CreationTime: 1285644780
ModificationTime: 1678427468
PfmFamily: 81
TTFWeight: 400
TTFWidth: 5
LineGap: 0
VLineGap: 0
Panose: 0 0 0 0 0 0 0 0 0 0
OS2TypoAscent: 850
OS2TypoAOffset: 0
OS2TypoDescent: -70
OS2TypoDOffset: 0
OS2TypoLinegap: 0
OS2WinAscent: 851
OS2WinAOffset: 0
OS2WinDescent: 38
OS2WinDOffset: 0
HheadAscent: 850
HheadAOffset: 0
HheadDescent: -70
HheadDOffset: 0
OS2SubXSize: 700
OS2SubYSize: 650
OS2SubXOff: 0
OS2SubYOff: 140
OS2SupXSize: 700
OS2SupYSize: 650
OS2SupXOff: 0
OS2SupYOff: 477
OS2StrikeYSize: 50
OS2StrikeYPos: 250
OS2CapHeight: 700
OS2XHeight: 500
OS2Vendor: 'PYRS'
OS2CodePages: 00000003.00000000
OS2UnicodeRanges: 0000001f.48000000.14000000.00000000
MarkAttachClasses: 1
DEI: 91125
TtTable: prep
PUSHW_1
 0
CALL
EndTTInstrs
TtTable: fpgm
PUSHW_1
 0
FDEF
MPPEM
PUSHW_1
 9
LT
IF
PUSHB_2
 1
 1
INSTCTRL
EIF
PUSHW_1
 511
SCANCTRL
PUSHW_1
 68
SCVTCI
PUSHW_2
 9
 3
SDS
SDB
ENDF
PUSHW_1
 1
FDEF
DUP
DUP
RCVT
ROUND[Black]
WCVTP
PUSHB_1
 1
ADD
ENDF
PUSHW_1
 2
FDEF
PUSHW_1
 1
LOOPCALL
POP
ENDF
PUSHW_1
 3
FDEF
DUP
GC[cur]
PUSHB_1
 3
CINDEX
GC[cur]
GT
IF
SWAP
EIF
DUP
ROLL
DUP
ROLL
MD[grid]
ABS
ROLL
DUP
GC[cur]
DUP
ROUND[Grey]
SUB
ABS
PUSHB_1
 4
CINDEX
GC[cur]
DUP
ROUND[Grey]
SUB
ABS
GT
IF
SWAP
NEG
ROLL
EIF
MDAP[rnd]
DUP
PUSHB_1
 0
GTEQ
IF
ROUND[Black]
DUP
PUSHB_1
 0
EQ
IF
POP
PUSHB_1
 64
EIF
ELSE
ROUND[Black]
DUP
PUSHB_1
 0
EQ
IF
POP
PUSHB_1
 64
NEG
EIF
EIF
MSIRP[no-rp0]
ENDF
PUSHW_1
 4
FDEF
DUP
GC[cur]
PUSHB_1
 4
CINDEX
GC[cur]
GT
IF
SWAP
ROLL
EIF
DUP

StartChar: u
Encoding: 117 117 1
Width: 570
GlyphClass: 1
Flags: W
LayerCount: 2
Fore
SplineSet
37 130 m 256,0,1
 37 137 37 137 37.5 148 c 128,-1,2
 38 159 38 159 38 170.5 c 128,-1,3
 38 182 38 182 38.5 190.5 c 128,-1,4
 39 199 39 199 39 201 c 0,5,6
 39 204 39 204 42 215 c 128,-1,7
 45 226 45 226 49 239.5 c 128,-1,8
 53 253 53 253 56 264.5 c 128,-1,9
 59 276 59 276 59 279 c 0,10,11
 59 281 59 281 56 290 c 128,-1,12
 53 299 53 299 49.5 308.5 c 128,-1,13
 46 318 46 318 43 327 c 128,-1,14
 40 336 40 336 39 338 c 2,15,-1
 39 355 l 1,16,-1
 39 377 l 2,17,18
 40 383 40 383 43 406 c 128,-1,19
 46 429 46 429 49.5 455.5 c 128,-1,20
 53 482 53 482 56 505 c 128,-1,21
 59 528 59 528 59 534 c 0,22,23
 59 537 59 537 56 548.5 c 128,-1,24
 53 560 53 560 49 573 c 128,-1,25
 45 586 45 586 42 597.5 c 128,-1,26
 39 609 39 609 39 612 c 0,27,28
 39 613 39 613 38.5 623 c 128,-1,29
 38 633 38 633 38 645.5 c 128,-1,30
 38 658 38 658 37.5 670.5 c 128,-1,31
 37 683 37 683 37 691 c 0,32,33
 37 695 37 695 37.5 706 c 128,-1,34
 38 717 38 717 38 729.5 c 128,-1,35
 38 742 38 742 38.5 753 c 128,-1,36
 39 764 39 764 39 769 c 0,37,38
 41 772 41 772 48.5 779.5 c 128,-1,39
 56 787 56 787 59 789 c 0,40,41
 61 789 61 789 63 790 c 0,42,43
 65 790 65 790 66 790.5 c 128,-1,44
 67 791 67 791 68 791 c 256,45,46
 69 791 69 791 70.5 790.5 c 128,-1,47
 72 790 72 790 74 790 c 0,48,49
 76 789 76 789 78 789 c 0,50,51
 81 787 81 787 87 782 c 128,-1,52
 93 777 93 777 99.5 770.5 c 128,-1,53
 106 764 106 764 111 758.5 c 128,-1,54
 116 753 116 753 117 750 c 0,55,56
 127 733 127 733 146.5 697.5 c 128,-1,57
 166 662 166 662 191 617 c 128,-1,58
 216 572 216 572 244 523 c 128,-1,59
 272 474 272 474 297 430 c 128,-1,60
 322 386 322 386 342 350.5 c 128,-1,61
 362 315 362 315 372 299 c 0,62,63
 380 284 380 284 393 261 c 128,-1,64
 406 238 406 238 419 216 c 128,-1,65
 432 194 432 194 441 178 c 128,-1,66
 450 162 450 162 451 161 c 0,67,68
 452 159 452 159 457.5 153.5 c 128,-1,69
 463 148 463 148 469 141.5 c 128,-1,70
 475 135 475 135 481 129.5 c 128,-1,71
 487 124 487 124 490 122 c 0,72,73
 495 119 495 119 509.5 111.5 c 128,-1,74
 524 104 524 104 529 102 c 1,75,-1
 510 83 l 1,76,77
 513 83 513 83 518.5 80.5 c 128,-1,78
 524 78 524 78 530.5 75 c 128,-1,79
 537 72 537 72 542 68.5 c 128,-1,80
 547 65 547 65 549 63 c 0,81,82
 549 61 549 61 550 59 c 0,83,84
 550 57 550 57 550.5 56 c 128,-1,85
 551 55 551 55 551 53 c 0,86,87
 551 52 551 52 550.5 51 c 128,-1,88
 550 50 550 50 550 48 c 0,89,90
 549 46 549 46 549 44 c 2,91,-1
 529 24 l 2,92,93
 524 21 524 21 509.5 13.5 c 128,-1,94
 495 6 495 6 490 4 c 2,95,-1
 480 4 l 1,96,-1
 470 4 l 2,97,98
 467 6 467 6 460 13.5 c 128,-1,99
 453 21 453 21 451 24 c 0,100,101
 444 35 444 35 432 56 c 128,-1,102
 420 77 420 77 407 99 c 128,-1,103
 394 121 394 121 384 139 c 128,-1,104
 374 157 374 157 372 161 c 0,105,106
 371 163 371 163 372.5 169 c 128,-1,107
 374 175 374 175 375.5 181 c 128,-1,108
 377 187 377 187 378.5 193 c 128,-1,109
 380 199 380 199 380 201 c 1,110,-1
 353 201 l 2,111,112
 352 201 352 201 340.5 221 c 128,-1,113
 329 241 329 241 313.5 269 c 128,-1,114
 298 297 298 297 281.5 327 c 128,-1,115
 265 357 265 357 255 377 c 0,116,117
 254 379 254 379 251.5 387 c 128,-1,118
 249 395 249 395 246 404.5 c 128,-1,119
 243 414 243 414 239.5 422.5 c 128,-1,120
 236 431 236 431 235 436 c 0,121,122
 235 439 235 439 236 446 c 128,-1,123
 237 453 237 453 237 455 c 1,124,-1
 216 455 l 1,125,126
 213 461 213 461 204.5 475 c 128,-1,127
 196 489 196 489 186.5 505 c 128,-1,128
 177 521 177 521 168.5 534.5 c 128,-1,129
 160 548 160 548 157 553 c 0,130,131
 155 556 155 556 147.5 563.5 c 128,-1,132
 140 571 140 571 137 573 c 1,133,-1
 137 122 l 2,134,135
 138 119 138 119 141.5 111 c 128,-1,136
 145 103 145 103 148 93.5 c 128,-1,137
 151 84 151 84 153.5 75.5 c 128,-1,138
 156 67 156 67 157 63 c 0,139,140
 157 61 157 61 158 57 c 128,-1,141
 159 53 159 53 159 51 c 0,142,143
 159 50 159 50 158.5 49.5 c 128,-1,144
 158 49 158 49 158 47 c 0,145,146
 157 45 157 45 157 44 c 2,147,-1
 78 4 l 2,148,149
 76 4 76 4 69 11.5 c 128,-1,150
 62 19 62 19 59 24 c 0,151,152
 57 27 57 27 53.5 33 c 128,-1,153
 50 39 50 39 47 45 c 128,-1,154
 44 51 44 51 41.5 56 c 128,-1,155
 39 61 39 61 39 63 c 0,156,157
 39 64 39 64 38.5 72 c 128,-1,158
 38 80 38 80 38 90.5 c 128,-1,159
 38 101 38 101 37.5 112 c 128,-1,160
 37 123 37 123 37 130 c 256,0,1
157 632 m 0,161,162
 149 632 149 632 145.5 626 c 128,-1,163
 142 620 142 620 142 612.5 c 128,-1,164
 142 605 142 605 145.5 599 c 128,-1,165
 149 593 149 593 157 593 c 0,166,167
 164 593 164 593 167.5 599 c 128,-1,168
 171 605 171 605 171 612.5 c 128,-1,169
 171 620 171 620 167.5 626 c 128,-1,170
 164 632 164 632 157 632 c 0,161,162
EndSplineSet
EndChar

StartChar: thorn
Encoding: 254 254 2
Width: 584
GlyphClass: 1
Flags: W
LayerCount: 2
Fore
SplineSet
482.623046875 405.18359375 m 132,-1,1
 484.014648438 401.63671875 484.014648438 401.63671875 484.9296875 395.284179688 c 4,2,3
 486.251953125 386.83984375 486.251953125 386.83984375 482.571289062 379.3046875 c 4,4,5
 473.178710938 371.295898438 473.178710938 371.295898438 450.237304688 350.3046875 c 4,6,7
 428.348632812 330.208007812 428.348632812 330.208007812 400.89453125 306.307617188 c 4,8,9
 373.947265625 282.880859375 373.947265625 282.880859375 350.899414062 262.30859375 c 4,10,11
 327.229492188 241.141601562 327.229492188 241.141601562 317.995117188 232.307617188 c 4,12,13
 315.201171875 228.80859375 315.201171875 228.80859375 309.778320312 222.784179688 c 4,14,15
 304.142578125 216.573242188 304.142578125 216.573242188 297.97265625 208.302734375 c 4,16,17
 297.391601562 207.506835938 297.391601562 207.506835938 294.196289062 202.74609375 c 132,-1,18
 291 197.984375 291 197.984375 288.571289062 194.6484375 c 132,-1,19
 286.142578125 191.3125 286.142578125 191.3125 282.392578125 187.475585938 c 132,-1,20
 278.642578125 183.638671875 278.642578125 183.638671875 275.491210938 182.153320312 c 4,21,22
 272.584960938 180.780273438 272.584960938 180.780273438 266.712890625 179.858398438 c 132,-1,23
 260.840820312 178.936523438 260.840820312 178.936523438 256.254882812 178.296875 c 132,-1,24
 251.66796875 177.657226562 251.66796875 177.657226562 251.024414062 176.8359375 c 4,25,26
 251.024414062 175.166015625 251.024414062 175.166015625 249.856445312 168.141601562 c 132,-1,27
 248.688476562 161.116210938 248.688476562 161.116210938 248.688476562 159.448242188 c 4,28,29
 248.688476562 156.8671875 248.688476562 156.8671875 248.837890625 142.86328125 c 132,-1,30
 248.987304688 128.859375 248.987304688 128.859375 248.987304688 123.774414062 c 4,31,32
 248.987304688 118.231445312 248.987304688 118.231445312 249.693359375 108.901367188 c 132,-1,33
 250.400390625 99.572265625 250.400390625 99.572265625 250.448242188 98.658203125 c 4,34,35
 251.024414062 87.15625 251.024414062 87.15625 251.024414062 86.1513671875 c 4,36,37
 251.024414062 84.1865234375 251.024414062 84.1865234375 253.9765625 77.1728515625 c 4,38,39
 256.315429688 71.5634765625 256.315429688 71.5634765625 260.43359375 62.1728515625 c 132,-1,40
 264.474609375 52.9111328125 264.474609375 52.9111328125 266.88671875 46.6533203125 c 4,41,42
 269.944335938 38.9599609375 269.944335938 38.9599609375 271.015625 37.16015625 c 4,43,44
 271.015625 36.04296875 271.015625 36.04296875 272.1796875 29.1591796875 c 132,-1,45
 273.373046875 22.087890625 273.373046875 22.087890625 273.373046875 19.1474609375 c 4,46,47
 273.373046875 17.15625 273.373046875 17.15625 272.8046875 14.6708984375 c 132,-1,48
 272.1796875 12.236328125 272.1796875 12.236328125 272.1796875 10.166015625 c 4,49,50
 271.015625 7.2099609375 271.015625 7.2099609375 271.015625 5.150390625 c 4,51,52
 268.716796875 3.2119140625 268.716796875 3.2119140625 253.409179688 -3.3388671875 c 132,-1,53
 238.094726562 -9.833984375 238.094726562 -9.833984375 231.0546875 -10.853515625 c 4,54,55
 228.763671875 -10.853515625 228.763671875 -10.853515625 215.7578125 -11.8310546875 c 4,56,57
 202.997070312 -12.8349609375 202.997070312 -12.8349609375 196.955078125 -12.8349609375 c 6,58,-1
 188.7109375 -12.8349609375 l 6,59,60
 183.943359375 -12.8349609375 183.943359375 -12.8349609375 179.32421875 -11.8310546875 c 4,61,62
 174.611328125 -11.8310546875 174.611328125 -11.8310546875 168.74609375 -10.853515625 c 4,63,64
 165.091796875 -9.8017578125 165.091796875 -9.8017578125 160.52734375 -5.8349609375 c 4,65,66
 156.28515625 -2.287109375 156.28515625 -2.287109375 150.516601562 3.6591796875 c 4,67,68
 145.013671875 9.42578125 145.013671875 9.42578125 141.73046875 13.669921875 c 4,69,70
 138.172851562 18.1083984375 138.172851562 18.1083984375 138.172851562 21.154296875 c 6,71,-1
 138.172851562 139.860351562 l 5,72,-1
 136.870117188 232.146484375 l 5,73,-1
 135.815429688 283.33203125 l 6,74,75
 136.3828125 295.375976562 136.3828125 295.375976562 136.3828125 300.340820312 c 4,76,77
 136.3828125 307.295898438 136.3828125 307.295898438 135.815429688 320.845703125 c 4,78,79
 135.21875 333.157226562 135.21875 333.157226562 135.21875 346.834960938 c 4,80,81
 135.21875 400.092773438 135.21875 400.092773438 128.194335938 524.403320312 c 4,82,83
 127.620117188 533.709960938 127.620117188 533.709960938 127.620117188 540.462890625 c 6,84,-1
 127.620117188 607.953125 l 6,85,86
 127.620117188 614.1171875 127.620117188 614.1171875 128.760742188 618.938476562 c 4,87,88
 128.760742188 624.021484375 128.760742188 624.021484375 129.359375 628.461914062 c 4,89,90
 129.953125 633.138671875 129.953125 633.138671875 129.953125 701.16015625 c 4,91,92
 129.953125 703.890625 129.953125 703.890625 129.359375 710.138671875 c 4,93,94
 128.760742188 716.041992188 128.760742188 716.041992188 128.760742188 722.15625 c 132,-1,95
 128.760742188 728.133789062 128.760742188 728.133789062 128.1953125 733.140625 c 4,96,97
 127.62109375 737.813476562 127.62109375 737.813476562 127.62109375 739.138671875 c 4,98,99
 127.62109375 739.99609375 127.62109375 739.99609375 124.666015625 745.16015625 c 4,100,101
 121.763671875 750.071289062 121.763671875 750.071289062 118.1796875 755.140625 c 4,102,103
 115.3515625 759.1875 115.3515625 759.1875 111.12890625 765.149414062 c 4,104,105
 107.66015625 770.056640625 107.66015625 770.056640625 106.438476562 771.146484375 c 4,106,107
 105.26953125 773.119140625 105.26953125 773.119140625 105.26953125 775.161132812 c 4,108,109
 104.079101562 777.106445312 104.079101562 777.106445312 104.079101562 781.155273438 c 6,110,-1
 104.079101562 782.158203125 l 6,111,112
 104.079101562 784.150390625 104.079101562 784.150390625 105.26953125 785.142578125 c 4,113,114
 105.26953125 787.147460938 105.26953125 787.147460938 106.438476562 788.155273438 c 6,115,-1
 188.7109375 820.134765625 l 6,116,117
 191.091796875 820.134765625 191.091796875 820.134765625 198.748046875 814.140625 c 132,-1,118
 206.325195312 808.155273438 206.325195312 808.155273438 208.73046875 804.158203125 c 4,119,120
 212.151367188 800.223632812 212.151367188 800.223632812 220.471679688 787.63671875 c 4,121,122
 228.565429688 775.28515625 228.565429688 775.28515625 231.053710938 771.146484375 c 4,123,124
 231.053710938 768.240234375 231.053710938 768.240234375 233.385742188 756.143554688 c 4,125,126
 234.081054688 752.616210938 234.081054688 752.616210938 235.172851562 734.962890625 c 132,-1,127
 236.263671875 717.309570312 236.263671875 717.309570312 237.263671875 697.9921875 c 132,-1,128
 238.264648438 678.67578125 238.264648438 678.67578125 238.484375 675.795898438 c 4,129,130
 240.342773438 651.9765625 240.342773438 651.9765625 242.340820312 643.89453125 c 4,131,132
 243.603515625 638.646484375 243.603515625 638.646484375 263.856445312 619.624023438 c 132,-1,133
 284.108398438 600.6015625 284.108398438 600.6015625 298.596679688 588.721679688 c 4,134,135
 325.91015625 566.295898438 325.91015625 566.295898438 346.045898438 547.786132812 c 4,136,137
 371.711914062 524.13671875 371.711914062 524.13671875 385.428710938 511.790039062 c 4,138,139
 403.829101562 495.084960938 403.829101562 495.084960938 408.327148438 491.284179688 c 4,140,141
 414.724609375 485.043945312 414.724609375 485.043945312 430.081054688 470.287109375 c 4,142,143
 439.842773438 460.875976562 439.842773438 460.875976562 457.100585938 444.30078125 c 4,144,145
 468.065429688 433.724609375 468.065429688 433.724609375 475.98046875 418.637695312 c 4,146,0
 481.287109375 408.63671875 481.287109375 408.63671875 482.623046875 405.18359375 c 132,-1,1
208.73046875 70.146484375 m 4,147,148
 216.923828125 70.146484375 216.923828125 70.146484375 221.047851562 75.166015625 c 132,-1,149
 225.168945312 80.1435546875 225.168945312 80.1435546875 225.168945312 86.150390625 c 132,-1,150
 225.168945312 92.1435546875 225.168945312 92.1435546875 221.047851562 97.1630859375 c 132,-1,151
 216.905273438 102.158203125 216.905273438 102.158203125 208.73046875 102.158203125 c 4,152,153
 201.686523438 102.158203125 201.686523438 102.158203125 197.553710938 97.1630859375 c 132,-1,154
 193.430664062 92.19921875 193.430664062 92.19921875 193.430664062 86.150390625 c 132,-1,155
 193.430664062 80.0869140625 193.430664062 80.0869140625 197.553710938 75.166015625 c 132,-1,156
 201.669921875 70.146484375 201.669921875 70.146484375 208.73046875 70.146484375 c 4,147,148
231.053710938 5.150390625 m 4,157,158
 240.44140625 7.140625 240.44140625 7.140625 240.44140625 13.1552734375 c 132,-1,159
 240.44140625 19.16015625 240.44140625 19.16015625 231.053710938 21.154296875 c 4,160,161
 225.162109375 22.1298828125 225.162109375 22.1298828125 222.807617188 19.666015625 c 132,-1,162
 220.471679688 17.1708984375 220.471679688 17.1708984375 220.471679688 13.669921875 c 132,-1,163
 220.471679688 10.13671875 220.471679688 10.13671875 222.807617188 7.1591796875 c 132,-1,164
 225.150390625 4.1728515625 225.150390625 4.1728515625 231.053710938 5.150390625 c 4,157,158
380.844726562 372.142578125 m 4,165,166
 399.245117188 385.590820312 399.245117188 385.590820312 400.162109375 390.424804688 c 4,167,168
 400.956054688 394.786132812 400.956054688 394.786132812 400.244140625 399.024414062 c 4,169,170
 398.681640625 401.075195312 398.681640625 401.075195312 392.506835938 399.38671875 c 132,-1,171
 386.33203125 397.69921875 386.33203125 397.69921875 378.512695312 395.807617188 c 132,-1,172
 370.694335938 393.915039062 370.694335938 393.915039062 369.725585938 395.283203125 c 4,173,174
 366.10546875 400.403320312 366.10546875 400.403320312 363.244140625 405.291015625 c 4,175,176
 362.435546875 406.673828125 362.435546875 406.673828125 361.543945312 413.93359375 c 132,-1,177
 360.651367188 421.193359375 360.651367188 421.193359375 358.740234375 425.092773438 c 4,178,179
 350.833007812 441.022460938 350.833007812 441.022460938 343.412109375 448.530273438 c 4,180,181
 320.96875 471.325195312 320.96875 471.325195312 304.6484375 480.647460938 c 4,182,183
 296.504882812 485.2734375 296.504882812 485.2734375 251.0234375 514.28515625 c 5,184,-1
 251.0234375 280.69921875 l 5,185,186
 376.189453125 368.729492188 376.189453125 368.729492188 380.844726562 372.142578125 c 4,165,166
413.619140625 434.04296875 m 132,-1,188
 417.115234375 439.061523438 417.115234375 439.061523438 417.115234375 445.547851562 c 132,-1,189
 417.115234375 452.034179688 417.115234375 452.034179688 413.619140625 457.047851562 c 132,-1,190
 410.087890625 462.040039062 410.087890625 462.040039062 401.841796875 462.040039062 c 132,-1,191
 393.59765625 462.040039062 393.59765625 462.040039062 389.5 457.047851562 c 132,-1,192
 385.40625 452.0625 385.40625 452.0625 385.40625 445.547851562 c 132,-1,193
 385.40625 439.033203125 385.40625 439.033203125 389.5 434.04296875 c 132,-1,194
 393.600585938 429.053710938 393.600585938 429.053710938 401.841796875 429.053710938 c 132,-1,187
 410.086914062 429.053710938 410.086914062 429.053710938 413.619140625 434.04296875 c 132,-1,188
EndSplineSet
EndChar

StartChar: o
Encoding: 111 111 3
Width: 588
GlyphClass: 1
Flags: W
LayerCount: 2
Fore
SplineSet
58 58 m 1,0,1
 57 83 57 83 54.5 134.5 c 128,-1,2
 52 186 52 186 49 251 c 128,-1,3
 46 316 46 316 43 388 c 128,-1,4
 40 460 40 460 37 525 c 128,-1,5
 34 590 34 590 31.5 641.5 c 128,-1,6
 29 693 29 693 28 718 c 2,7,-1
 28 742 l 1,8,-1
 28 759 l 2,9,10
 28 761 28 761 35.5 768.5 c 128,-1,11
 43 776 43 776 48 779 c 0,12,13
 53 783 53 783 68 790.5 c 128,-1,14
 83 798 83 798 88 800 c 2,15,-1
 99 800 l 1,16,-1
 109 800 l 2,17,18
 114 798 114 798 129 790.5 c 128,-1,19
 144 783 144 783 149 779 c 0,20,21
 159 772 159 772 185 754.5 c 128,-1,22
 211 737 211 737 240 717.5 c 128,-1,23
 269 698 269 698 294.5 680.5 c 128,-1,24
 320 663 320 663 330 656 c 1,25,-1
 350 656 l 1,26,-1
 512 779 l 2,27,28
 513 780 513 780 520 773 c 128,-1,29
 527 766 527 766 536.5 756.5 c 128,-1,30
 546 747 546 747 556 736 c 128,-1,31
 566 725 566 725 572 718 c 0,32,33
 572 715 572 715 573 713 c 0,34,35
 573 711 573 711 573.5 709.5 c 128,-1,36
 574 708 574 708 574 707 c 256,37,38
 574 706 574 706 573.5 704.5 c 128,-1,39
 573 703 573 703 573 701 c 0,40,41
 572 699 572 699 572 697 c 0,42,43
 569 694 569 694 560.5 688 c 128,-1,44
 552 682 552 682 542.5 675 c 128,-1,45
 533 668 533 668 524.5 662.5 c 128,-1,46
 516 657 516 657 512 656 c 0,47,48
 509 655 509 655 500.5 654.5 c 128,-1,49
 492 654 492 654 482 654 c 128,-1,50
 472 654 472 654 463.5 654.5 c 128,-1,51
 455 655 455 655 451 656 c 2,52,-1
 310 553 l 2,53,54
 308 552 308 552 306 552 c 0,55,56
 304 551 304 551 300 551 c 256,57,58
 296 551 296 551 294 552 c 0,59,60
 292 552 292 552 290 553 c 0,61,62
 283 557 283 557 266 568 c 128,-1,63
 249 579 249 579 229.5 592.5 c 128,-1,64
 210 606 210 606 193 618 c 128,-1,65
 176 630 176 630 169 635 c 1,66,67
 168 632 168 632 167.5 623.5 c 128,-1,68
 167 615 167 615 166.5 605 c 128,-1,69
 166 595 166 595 165.5 586 c 128,-1,70
 165 577 165 577 165 573 c 0,71,72
 165 567 165 567 165.5 557 c 128,-1,73
 166 547 166 547 166.5 537 c 128,-1,74
 167 527 167 527 167.5 520 c 128,-1,75
 168 513 168 513 169 512 c 0,76,77
 170 510 170 510 177 502.5 c 128,-1,78
 184 495 184 495 193.5 485 c 128,-1,79
 203 475 203 475 213 465 c 128,-1,80
 223 455 223 455 229 450 c 0,81,82
 232 448 232 448 240 443 c 128,-1,83
 248 438 248 438 257.5 431 c 128,-1,84
 267 424 267 424 276 418 c 128,-1,85
 285 412 285 412 290 409 c 0,86,87
 293 407 293 407 299 404 c 128,-1,88
 305 401 305 401 311.5 397.5 c 128,-1,89
 318 394 318 394 323 391.5 c 128,-1,90
 328 389 328 389 330 388 c 2,91,-1
 340 388 l 1,92,-1
 350 388 l 2,93,94
 351 389 351 389 359 394 c 128,-1,95
 367 399 367 399 376.5 405.5 c 128,-1,96
 386 412 386 412 396 418.5 c 128,-1,97
 406 425 406 425 411 429 c 0,98,99
 414 431 414 431 425.5 440.5 c 128,-1,100
 437 450 437 450 450.5 460.5 c 128,-1,101
 464 471 464 471 476 480 c 128,-1,102
 488 489 488 489 491 491 c 0,103,104
 493 491 493 491 501 492 c 128,-1,105
 509 493 509 493 512 493 c 0,106,107
 514 493 514 493 517.5 492.5 c 128,-1,108
 521 492 521 492 524 492 c 0,109,110
 528 491 528 491 532 491 c 0,111,112
 534 490 534 490 540 485 c 128,-1,113
 546 480 546 480 552 473.5 c 128,-1,114
 558 467 558 467 564 460.5 c 128,-1,115
 570 454 570 454 572 450 c 0,116,117
 572 448 572 448 573 446 c 0,118,119
 573 444 573 444 573.5 442.5 c 128,-1,120
 574 441 574 441 574 440 c 0,121,122
 574 438 574 438 573.5 436.5 c 128,-1,123
 573 435 573 435 573 433 c 0,124,125
 572 431 572 431 572 429 c 0,126,127
 570 425 570 425 564 418.5 c 128,-1,128
 558 412 558 412 552 405.5 c 128,-1,129
 546 399 546 399 540 394 c 128,-1,130
 534 389 534 389 532 388 c 0,131,132
 528 386 528 386 513.5 383.5 c 128,-1,133
 499 381 499 381 481.5 378 c 128,-1,134
 464 375 464 375 449.5 372 c 128,-1,135
 435 369 435 369 431 367 c 256,136,137
 427 365 427 365 415 356.5 c 128,-1,138
 403 348 403 348 389.5 337.5 c 128,-1,139
 376 327 376 327 364.5 317.5 c 128,-1,140
 353 308 353 308 350 306 c 0,141,142
 348 304 348 304 342 301 c 128,-1,143
 336 298 336 298 330 294.5 c 128,-1,144
 324 291 324 291 318 288.5 c 128,-1,145
 312 286 312 286 310 285 c 2,146,-1
 300 285 l 1,147,-1
 290 285 l 1,148,149
 283 289 283 289 266 300 c 128,-1,150
 249 311 249 311 229.5 324.5 c 128,-1,151
 210 338 210 338 193 350 c 128,-1,152
 176 362 176 362 169 367 c 1,153,154
 169 359 169 359 168.5 339 c 128,-1,155
 168 319 168 319 168 296 c 128,-1,156
 168 273 168 273 167.5 252.5 c 128,-1,157
 167 232 167 232 167 223 c 0,158,159
 167 209 167 209 167.5 185.5 c 128,-1,160
 168 162 168 162 168 139 c 128,-1,161
 168 116 168 116 168.5 98.5 c 128,-1,162
 169 81 169 81 169 79 c 0,163,164
 169 75 169 75 171.5 66 c 128,-1,165
 174 57 174 57 177 47 c 128,-1,166
 180 37 180 37 183.5 28.5 c 128,-1,167
 187 20 187 20 189 17 c 1,168,169
 184 15 184 15 173 9 c 128,-1,170
 162 3 162 3 149 -3.5 c 128,-1,171
 136 -10 136 -10 124.5 -16 c 128,-1,172
 113 -22 113 -22 109 -24 c 0,173,174
 107 -25 107 -25 105 -25 c 0,175,176
 103 -26 103 -26 99 -26 c 0,177,178
 94 -26 94 -26 92 -25 c 0,179,180
 90 -25 90 -25 88 -24 c 0,181,182
 86 -22 86 -22 82.5 -16 c 128,-1,183
 79 -10 79 -10 76 -3.5 c 128,-1,184
 73 3 73 3 70.5 9 c 128,-1,185
 68 15 68 15 68 17 c 0,186,187
 66 27 66 27 64.5 53.5 c 128,-1,188
 63 80 63 80 61.5 109.5 c 128,-1,189
 60 139 60 139 59 165.5 c 128,-1,190
 58 192 58 192 58 203 c 1,191,-1
 58 58 l 1,0,1
68 326 m 0,192,193
 63 328 63 328 61 321 c 128,-1,194
 59 314 59 314 59 305.5 c 128,-1,195
 59 297 59 297 61 290 c 128,-1,196
 63 283 63 283 68 285 c 0,197,198
 77 290 77 290 77 305.5 c 128,-1,199
 77 321 77 321 68 326 c 0,192,193
68 409 m 0,200,201
 60 409 60 409 56.5 402.5 c 128,-1,202
 53 396 53 396 53 388 c 128,-1,203
 53 380 53 380 56.5 373.5 c 128,-1,204
 60 367 60 367 68 367 c 0,205,206
 75 367 75 367 79 373.5 c 128,-1,207
 83 380 83 380 83 388 c 128,-1,208
 83 396 83 396 79 402.5 c 128,-1,209
 75 409 75 409 68 409 c 0,200,201
68 553 m 0,210,211
 63 557 63 557 61 543 c 128,-1,212
 59 529 59 529 59 511.5 c 128,-1,213
 59 494 59 494 61 479.5 c 128,-1,214
 63 465 63 465 68 470 c 0,215,216
 72 475 72 475 74.5 486.5 c 128,-1,217
 77 498 77 498 77 511.5 c 128,-1,218
 77 525 77 525 74.5 536.5 c 128,-1,219
 72 548 72 548 68 553 c 0,210,211
68 635 m 1,220,-1
 88 656 l 1,221,-1
 68 676 l 1,222,-1
 68 635 l 1,220,-1
88 800 m 256,223,224
 96 800 96 800 100 793.5 c 128,-1,225
 104 787 104 787 104 779.5 c 128,-1,226
 104 772 104 772 100 765.5 c 128,-1,227
 96 759 96 759 88 759 c 256,228,229
 80 759 80 759 76.5 765.5 c 128,-1,230
 73 772 73 772 73 779.5 c 128,-1,231
 73 787 73 787 76.5 793.5 c 128,-1,232
 80 800 80 800 88 800 c 256,223,224
EndSplineSet
EndChar

StartChar: r
Encoding: 114 114 4
Width: 596
GlyphClass: 1
Flags: W
LayerCount: 2
Fore
SplineSet
59 60 m 0,0,1
 58 84 58 84 56.5 135.5 c 128,-1,2
 55 187 55 187 52.5 251.5 c 128,-1,3
 50 316 50 316 48 387.5 c 128,-1,4
 46 459 46 459 44 523.5 c 128,-1,5
 42 588 42 588 40.5 639.5 c 128,-1,6
 39 691 39 691 38 716 c 2,7,-1
 38 736 l 1,8,-1
 19 736 l 1,9,-1
 19 756 l 2,10,11
 19 757 19 757 28 762 c 128,-1,12
 37 767 37 767 49.5 773 c 128,-1,13
 62 779 62 779 75.5 785.5 c 128,-1,14
 89 792 89 792 98 796 c 0,15,16
 101 798 101 798 108 798.5 c 128,-1,17
 115 799 115 799 117 799 c 1,18,-1
 117 775 l 1,19,-1
 157 775 l 1,20,-1
 157 756 l 1,21,-1
 196 756 l 1,22,-1
 551 577 l 1,23,-1
 572 557 l 2,24,25
 570 554 570 554 562.5 546.5 c 128,-1,26
 555 539 555 539 551 537 c 0,27,28
 546 535 546 535 531 529 c 128,-1,29
 516 523 516 523 496 514.5 c 128,-1,30
 476 506 476 506 453 497 c 128,-1,31
 430 488 430 488 409.5 480 c 128,-1,32
 389 472 389 472 374 466 c 128,-1,33
 359 460 359 460 354 458 c 0,34,35
 346 455 346 455 326.5 446.5 c 128,-1,36
 307 438 307 438 285 428.5 c 128,-1,37
 263 419 263 419 243 410.5 c 128,-1,38
 223 402 223 402 216 398 c 0,39,40
 216 396 216 396 215.5 393 c 128,-1,41
 215 390 215 390 215 388 c 2,42,-1
 215 382 l 2,43,44
 215 380 215 380 216 378 c 2,45,-1
 256 338 l 2,46,47
 265 330 265 330 280.5 316 c 128,-1,48
 296 302 296 302 314 285.5 c 128,-1,49
 332 269 332 269 351.5 251.5 c 128,-1,50
 371 234 371 234 387.5 219 c 128,-1,51
 404 204 404 204 416.5 193 c 128,-1,52
 429 182 429 182 433 179 c 0,53,54
 438 176 438 176 449 167 c 128,-1,55
 460 158 460 158 472.5 148.5 c 128,-1,56
 485 139 485 139 496 131 c 128,-1,57
 507 123 507 123 512 120 c 0,58,59
 514 119 514 119 520 116 c 128,-1,60
 526 113 526 113 532.5 109.5 c 128,-1,61
 539 106 539 106 544.5 103 c 128,-1,62
 550 100 550 100 551 100 c 0,63,64
 556 97 556 97 564 89.5 c 128,-1,65
 572 82 572 82 572 80 c 0,66,67
 572 76 572 76 573 72 c 0,68,69
 573 69 573 69 573.5 65.5 c 128,-1,70
 574 62 574 62 574 60 c 256,71,72
 574 58 574 58 573.5 54.5 c 128,-1,73
 573 51 573 51 573 48 c 0,74,75
 572 44 572 44 572 40 c 0,76,77
 572 38 572 38 564 30.5 c 128,-1,78
 556 23 556 23 551 21 c 0,79,80
 548 19 548 19 542.5 16 c 128,-1,81
 537 13 537 13 531 9.5 c 128,-1,82
 525 6 525 6 519.5 3.5 c 128,-1,83
 514 1 514 1 512 0 c 0,84,85
 510 0 510 0 503 -1 c 128,-1,86
 496 -2 496 -2 493 -2 c 0,87,88
 491 -2 491 -2 487 -2 c 128,-1,89
 483 -2 483 -2 480 -1 c 0,90,91
 476 -1 476 -1 472 0 c 2,92,93
 472 0 472 0 469 3 c 128,-1,94
 466 6 466 6 463 9.5 c 128,-1,95
 460 13 460 13 457 16.5 c 128,-1,96
 454 20 454 20 453 21 c 0,97,98
 440 33 440 33 413 56.5 c 128,-1,99
 386 80 386 80 357.5 105.5 c 128,-1,100
 329 131 329 131 305.5 152 c 128,-1,101
 282 173 282 173 275 179 c 0,102,103
 269 185 269 185 252 199.5 c 128,-1,104
 235 214 235 214 216.5 230 c 128,-1,105
 198 246 198 246 181 260 c 128,-1,106
 164 274 164 274 157 279 c 1,107,108
 157 274 157 274 156.5 263 c 128,-1,109
 156 252 156 252 156 239 c 128,-1,110
 156 226 156 226 155.5 215 c 128,-1,111
 155 204 155 204 155 200 c 0,112,113
 155 192 155 192 155.5 179 c 128,-1,114
 156 166 156 166 156 153.5 c 128,-1,115
 156 141 156 141 156.5 131 c 128,-1,116
 157 121 157 121 157 120 c 0,117,118
 157 118 157 118 160 109 c 128,-1,119
 163 100 163 100 166.5 90 c 128,-1,120
 170 80 170 80 173 71 c 128,-1,121
 176 62 176 62 177 60 c 2,122,-1
 177 49 l 1,123,-1
 177 40 l 2,124,125
 175 38 175 38 167 32 c 128,-1,126
 159 26 159 26 149.5 20 c 128,-1,127
 140 14 140 14 131 8 c 128,-1,128
 122 2 122 2 117 0 c 0,129,130
 115 -1 115 -1 113 -1 c 0,131,132
 111 -2 111 -2 108 -2 c 0,133,134
 104 -2 104 -2 102 -1 c 0,135,136
 100 -1 100 -1 98 0 c 0,137,138
 96 2 96 2 89 10 c 128,-1,139
 82 18 82 18 79 21 c 0,140,141
 77 23 77 23 74 28.5 c 128,-1,142
 71 34 71 34 68 40 c 128,-1,143
 65 46 65 46 62.5 52 c 128,-1,144
 60 58 60 58 59 60 c 0,0,1
177 437 m 0,145,146
 169 437 169 437 165.5 431 c 128,-1,147
 162 425 162 425 162 417.5 c 128,-1,148
 162 410 162 410 165.5 404 c 128,-1,149
 169 398 169 398 177 398 c 0,150,151
 184 398 184 398 187.5 404 c 128,-1,152
 191 410 191 410 191 417.5 c 128,-1,153
 191 425 191 425 187.5 431 c 128,-1,154
 184 437 184 437 177 437 c 0,145,146
157 454 m 1,155,156
 161 454 161 454 169.5 454.5 c 128,-1,157
 178 455 178 455 187.5 455.5 c 128,-1,158
 197 456 197 456 205 456.5 c 128,-1,159
 213 457 213 457 216 458 c 0,160,161
 218 459 218 459 227 461.5 c 128,-1,162
 236 464 236 464 245.5 467.5 c 128,-1,163
 255 471 255 471 264 474 c 128,-1,164
 273 477 273 477 275 478 c 2,165,-1
 286 478 l 1,166,-1
 295 478 l 2,167,168
 298 476 298 476 305.5 468.5 c 128,-1,169
 313 461 313 461 315 458 c 1,170,171
 316 461 316 461 319 466.5 c 128,-1,172
 322 472 322 472 325 478.5 c 128,-1,173
 328 485 328 485 330.5 490 c 128,-1,174
 333 495 333 495 335 497 c 0,175,176
 336 498 336 498 341 500.5 c 128,-1,177
 346 503 346 503 352 506.5 c 128,-1,178
 358 510 358 510 364.5 513 c 128,-1,179
 371 516 371 516 374 517 c 256,180,181
 377 518 377 518 385 521.5 c 128,-1,182
 393 525 393 525 402.5 528 c 128,-1,183
 412 531 412 531 420.5 533.5 c 128,-1,184
 429 536 429 536 433 537 c 1,185,-1
 196 656 l 1,186,-1
 157 656 l 1,187,-1
 157 454 l 1,155,156
EndSplineSet
EndChar

StartChar: c
Encoding: 99 99 5
Width: 633
GlyphClass: 1
Flags: W
LayerCount: 2
Fore
SplineSet
62 55 m 0,0,1
 61 80 61 80 59 132.5 c 128,-1,2
 57 185 57 185 55 251.5 c 128,-1,3
 53 318 53 318 50.5 391 c 128,-1,4
 48 464 48 464 46 530.5 c 128,-1,5
 44 597 44 597 42.5 649.5 c 128,-1,6
 41 702 41 702 41 728 c 2,7,-1
 41 753 l 1,8,-1
 41 769 l 2,9,10
 41 771 41 771 49 778.5 c 128,-1,11
 57 786 57 786 62 790 c 0,12,13
 67 793 67 793 82 800.5 c 128,-1,14
 97 808 97 808 102 810 c 0,15,16
 104 810 104 810 107 811 c 0,17,18
 109 811 109 811 110.5 811.5 c 128,-1,19
 112 812 112 812 113 812 c 0,20,21
 115 812 115 812 116 811.5 c 128,-1,22
 117 811 117 811 119 811 c 0,23,24
 121 810 121 810 123 810 c 0,25,26
 129 805 129 805 137.5 796 c 128,-1,27
 146 787 146 787 154.5 777 c 128,-1,28
 163 767 163 767 168.5 759 c 128,-1,29
 174 751 174 751 174 749 c 2,30,-1
 174 483 l 2,31,32
 174 482 174 482 194 461 c 128,-1,33
 214 440 214 440 241.5 410.5 c 128,-1,34
 269 381 269 381 298.5 350.5 c 128,-1,35
 328 320 328 320 347 300 c 2,36,-1
 531 116 l 2,37,38
 532 115 532 115 538.5 112 c 128,-1,39
 545 109 545 109 551.5 106 c 128,-1,40
 558 103 558 103 564 100 c 128,-1,41
 570 97 570 97 572 96 c 0,42,43
 575 94 575 94 581 88 c 128,-1,44
 587 82 587 82 594 75.5 c 128,-1,45
 601 69 601 69 606 63 c 128,-1,46
 611 57 611 57 613 55 c 0,47,48
 613 53 613 53 614 51 c 0,49,50
 614 49 614 49 614.5 47.5 c 128,-1,51
 615 46 615 46 615 45 c 0,52,53
 615 43 615 43 614 39.5 c 128,-1,54
 613 36 613 36 613 34 c 0,55,56
 608 32 608 32 596.5 26 c 128,-1,57
 585 20 585 20 572 14 c 128,-1,58
 559 8 559 8 547 2 c 128,-1,59
 535 -4 535 -4 531 -6 c 0,60,61
 529 -7 529 -7 527 -7 c 0,62,63
 525 -8 525 -8 521 -8 c 0,64,65
 516 -8 516 -8 514 -7 c 0,66,67
 512 -7 512 -7 511 -6 c 0,68,69
 509 -5 509 -5 501.5 3 c 128,-1,70
 494 11 494 11 484 20.5 c 128,-1,71
 474 30 474 30 464.5 40 c 128,-1,72
 455 50 455 50 449 55 c 0,73,74
 445 60 445 60 430.5 75.5 c 128,-1,75
 416 91 416 91 397.5 112 c 128,-1,76
 379 133 379 133 357.5 157 c 128,-1,77
 336 181 336 181 317.5 202 c 128,-1,78
 299 223 299 223 284.5 238.5 c 128,-1,79
 270 254 270 254 266 259 c 0,80,81
 261 263 261 263 249.5 275 c 128,-1,82
 238 287 238 287 225 300 c 128,-1,83
 212 313 212 313 200 324.5 c 128,-1,84
 188 336 188 336 184 341 c 1,85,-1
 184 34 l 2,86,87
 184 32 184 32 176.5 24.5 c 128,-1,88
 169 17 169 17 164 14 c 0,89,90
 162 12 162 12 156 9 c 128,-1,91
 150 6 150 6 143.5 3 c 128,-1,92
 137 0 137 0 131 -2.5 c 128,-1,93
 125 -5 125 -5 123 -6 c 0,94,95
 120 -7 120 -7 118 -7 c 0,96,97
 115 -8 115 -8 111 -8 c 0,98,99
 108 -8 108 -8 106 -7 c 0,100,101
 104 -7 104 -7 102 -6 c 0,102,103
 99 -3 99 -3 93 5.5 c 128,-1,104
 87 14 87 14 80.5 23.5 c 128,-1,105
 74 33 74 33 68.5 42 c 128,-1,106
 63 51 63 51 62 55 c 0,0,1
511 55 m 0,107,108
 512 59 512 59 509 61.5 c 128,-1,109
 506 64 506 64 501.5 64 c 128,-1,110
 497 64 497 64 493 61.5 c 128,-1,111
 489 59 489 59 490 55 c 0,112,113
 493 46 493 46 501 46 c 128,-1,114
 509 46 509 46 511 55 c 0,107,108
143 218 m 0,115,116
 138 220 138 220 136 213 c 128,-1,117
 134 206 134 206 134 197.5 c 128,-1,118
 134 189 134 189 136 182 c 128,-1,119
 138 175 138 175 143 177 c 0,120,121
 153 182 153 182 153 197.5 c 128,-1,122
 153 213 153 213 143 218 c 0,115,116
82 218 m 0,123,124
 77 219 77 219 75 216 c 128,-1,125
 73 213 73 213 73 208.5 c 128,-1,126
 73 204 73 204 75 200.5 c 128,-1,127
 77 197 77 197 82 198 c 0,128,129
 91 201 91 201 91 208.5 c 128,-1,130
 91 216 91 216 82 218 c 0,123,124
82 279 m 1,131,-1
 102 279 l 1,132,-1
 82 300 l 1,133,-1
 82 279 l 1,131,-1
82 545 m 0,134,135
 77 546 77 546 75 543 c 128,-1,136
 73 540 73 540 73 535.5 c 128,-1,137
 73 531 73 531 75 527 c 128,-1,138
 77 523 77 523 82 524 c 0,139,140
 91 527 91 527 91 535 c 128,-1,141
 91 543 91 543 82 545 c 0,134,135
143 606 m 256,142,143
 135 606 135 606 131.5 599.5 c 128,-1,144
 128 593 128 593 128 585.5 c 128,-1,145
 128 578 128 578 131.5 571.5 c 128,-1,146
 135 565 135 565 143 565 c 256,147,148
 151 565 151 565 155 571.5 c 128,-1,149
 159 578 159 578 159 585.5 c 128,-1,150
 159 593 159 593 155 599.5 c 128,-1,151
 151 606 151 606 143 606 c 256,142,143
82 647 m 0,152,153
 74 647 74 647 70.5 640.5 c 128,-1,154
 67 634 67 634 67 626.5 c 128,-1,155
 67 619 67 619 70.5 612.5 c 128,-1,156
 74 606 74 606 82 606 c 0,157,158
 89 606 89 606 93 612.5 c 128,-1,159
 97 619 97 619 97 626.5 c 128,-1,160
 97 634 97 634 93 640.5 c 128,-1,161
 89 647 89 647 82 647 c 0,152,153
EndSplineSet
EndChar

StartChar: g
Encoding: 103 103 6
Width: 696
GlyphClass: 1
Flags: W
LayerCount: 2
Fore
SplineSet
39 30 m 1,0,1
 39 33 39 33 39.5 38.5 c 128,-1,2
 40 44 40 44 40.5 51 c 128,-1,3
 41 58 41 58 41.5 63.5 c 128,-1,4
 42 69 42 69 43 72 c 0,5,6
 44 74 44 74 47 79.5 c 128,-1,7
 50 85 50 85 53.5 91.5 c 128,-1,8
 57 98 57 98 60 104 c 128,-1,9
 63 110 63 110 65 112 c 0,10,11
 72 121 72 121 87 140.5 c 128,-1,12
 102 160 102 160 121.5 184 c 128,-1,13
 141 208 141 208 162 235 c 128,-1,14
 183 262 183 262 202.5 286 c 128,-1,15
 222 310 222 310 237.5 329 c 128,-1,16
 253 348 253 348 261 357 c 1,17,-1
 261 419 l 1,18,-1
 43 725 l 2,19,20
 42 729 42 729 42 733 c 0,21,22
 41 736 41 736 41 739 c 128,-1,23
 41 742 41 742 41 744 c 0,24,25
 41 749 41 749 42 757 c 128,-1,26
 43 765 43 765 43 767 c 0,27,28
 43 768 43 768 51.5 776 c 128,-1,29
 60 784 60 784 65 787 c 0,30,31
 67 788 67 788 73.5 791.5 c 128,-1,32
 80 795 80 795 86.5 798 c 128,-1,33
 93 801 93 801 99.5 803.5 c 128,-1,34
 106 806 106 806 108 807 c 2,35,-1
 119 807 l 1,36,-1
 130 807 l 2,37,38
 134 805 134 805 142 797.5 c 128,-1,39
 150 790 150 790 152 787 c 0,40,41
 153 785 153 785 156.5 779 c 128,-1,42
 160 773 160 773 163.5 766.5 c 128,-1,43
 167 760 167 760 170 754.5 c 128,-1,44
 173 749 173 749 174 746 c 0,45,46
 176 744 176 744 176 736.5 c 128,-1,47
 176 729 176 729 174 725 c 0,48,49
 180 714 180 714 198 688 c 128,-1,50
 216 662 216 662 237 632.5 c 128,-1,51
 258 603 258 603 277 577.5 c 128,-1,52
 296 552 296 552 304 542 c 0,53,54
 307 539 307 539 313 532.5 c 128,-1,55
 319 526 319 526 326 519.5 c 128,-1,56
 333 513 333 513 339 507.5 c 128,-1,57
 345 502 345 502 348 500 c 0,58,59
 350 499 350 499 352 499 c 2,60,-1
 358 499 l 1,61,-1
 365 499 l 2,62,63
 367 499 367 499 369 500 c 256,64,65
 371 501 371 501 377 506 c 128,-1,66
 383 511 383 511 389.5 517.5 c 128,-1,67
 396 524 396 524 403 531 c 128,-1,68
 410 538 410 538 413 542 c 0,69,70
 419 549 419 549 432.5 564 c 128,-1,71
 446 579 446 579 459.5 595 c 128,-1,72
 473 611 473 611 485 624.5 c 128,-1,73
 497 638 497 638 500 643 c 0,74,75
 502 646 502 646 505.5 652.5 c 128,-1,76
 509 659 509 659 512.5 666 c 128,-1,77
 516 673 516 673 518.5 678 c 128,-1,78
 521 683 521 683 521 685 c 0,79,80
 522 688 522 688 522 700 c 128,-1,81
 522 712 522 712 521.5 725.5 c 128,-1,82
 521 739 521 739 520.5 751.5 c 128,-1,83
 520 764 520 764 521 767 c 0,84,85
 521 768 521 768 529.5 776 c 128,-1,86
 538 784 538 784 543 787 c 0,87,88
 546 788 546 788 552 791.5 c 128,-1,89
 558 795 558 795 565 798 c 128,-1,90
 572 801 572 801 578 803.5 c 128,-1,91
 584 806 584 806 587 807 c 2,92,-1
 598 807 l 1,93,-1
 608 807 l 2,94,95
 612 805 612 805 620 797.5 c 128,-1,96
 628 790 628 790 630 787 c 0,97,98
 633 784 633 784 636.5 778 c 128,-1,99
 640 772 640 772 643.5 765 c 128,-1,100
 647 758 647 758 649.5 752.5 c 128,-1,101
 652 747 652 747 652 746 c 0,102,103
 652 744 652 744 649.5 739 c 128,-1,104
 647 734 647 734 643.5 727 c 128,-1,105
 640 720 640 720 636.5 714 c 128,-1,106
 633 708 633 708 630 705 c 0,107,108
 626 700 626 700 614.5 686 c 128,-1,109
 603 672 603 672 587.5 653.5 c 128,-1,110
 572 635 572 635 554 613.5 c 128,-1,111
 536 592 536 592 520.5 573 c 128,-1,112
 505 554 505 554 493.5 540 c 128,-1,113
 482 526 482 526 478 521 c 0,114,115
 470 513 470 513 459 499.5 c 128,-1,116
 448 486 448 486 438 472.5 c 128,-1,117
 428 459 428 459 420.5 449.5 c 128,-1,118
 413 440 413 440 413 439 c 0,119,120
 413 437 413 437 412 429.5 c 128,-1,121
 411 422 411 422 411 419 c 0,122,123
 411 414 411 414 412 407.5 c 128,-1,124
 413 401 413 401 413 399 c 2,125,-1
 521 235 l 1,126,-1
 521 190 l 1,127,128
 525 190 525 190 533 193 c 128,-1,129
 541 196 541 196 543 194 c 256,130,131
 545 192 545 192 553.5 184.5 c 128,-1,132
 562 177 562 177 565 173 c 0,133,134
 572 164 572 164 586 145.5 c 128,-1,135
 600 127 600 127 613.5 107.5 c 128,-1,136
 627 88 627 88 638 71.5 c 128,-1,137
 649 55 649 55 652 51 c 0,138,139
 652 48 652 48 653 46 c 0,140,141
 653 44 653 44 653.5 42.5 c 128,-1,142
 654 41 654 41 654 40 c 256,143,144
 654 39 654 39 653 35.5 c 128,-1,145
 652 32 652 32 652 30 c 0,146,147
 649 25 649 25 637 18.5 c 128,-1,148
 625 12 625 12 611.5 5.5 c 128,-1,149
 598 -1 598 -1 584.5 -5.5 c 128,-1,150
 571 -10 571 -10 565 -10 c 0,151,152
 563 -10 563 -10 557.5 -5.5 c 128,-1,153
 552 -1 552 -1 545 5.5 c 128,-1,154
 538 12 538 12 531 18.5 c 128,-1,155
 524 25 524 25 521 30 c 0,156,157
 519 33 519 33 516.5 42 c 128,-1,158
 514 51 514 51 510.5 61.5 c 128,-1,159
 507 72 507 72 504 80.5 c 128,-1,160
 501 89 501 89 500 91 c 0,161,162
 497 97 497 97 478 123 c 128,-1,163
 459 149 459 149 434.5 181.5 c 128,-1,164
 410 214 410 214 386 246 c 128,-1,165
 362 278 362 278 348 296 c 0,166,167
 346 299 346 299 337.5 307 c 128,-1,168
 329 315 329 315 326 317 c 0,169,170
 323 314 323 314 317 308.5 c 128,-1,171
 311 303 311 303 304 296.5 c 128,-1,172
 297 290 297 290 291 284 c 128,-1,173
 285 278 285 278 282 276 c 0,174,175
 277 271 277 271 264.5 256.5 c 128,-1,176
 252 242 252 242 238.5 225.5 c 128,-1,177
 225 209 225 209 212.5 194 c 128,-1,178
 200 179 200 179 195 173 c 0,179,180
 192 168 192 168 185.5 159 c 128,-1,181
 179 150 179 150 172 140.5 c 128,-1,182
 165 131 165 131 159 123 c 128,-1,183
 153 115 153 115 152 112 c 2,184,-1
 152 102 l 1,185,-1
 152 91 l 2,186,187
 153 90 153 90 156 84 c 128,-1,188
 159 78 159 78 162.5 71.5 c 128,-1,189
 166 65 166 65 169.5 58.5 c 128,-1,190
 173 52 173 52 174 51 c 2,191,-1
 174 40 l 1,192,-1
 174 30 l 1,193,194
 169 28 169 28 156.5 22.5 c 128,-1,195
 144 17 144 17 130.5 10 c 128,-1,196
 117 3 117 3 104.5 -2.5 c 128,-1,197
 92 -8 92 -8 87 -10 c 0,198,199
 85 -12 85 -12 74 -13.5 c 128,-1,200
 63 -15 63 -15 61 -15 c 1,201,202
 61 -11 61 -11 62 -1.5 c 128,-1,203
 63 8 63 8 65 9 c 0,204,205
 67 13 67 13 75 20.5 c 128,-1,206
 83 28 83 28 87 30 c 1,207,-1
 39 30 l 1,0,1
521 153 m 256,208,209
 513 153 513 153 509 146.5 c 128,-1,210
 505 140 505 140 505 132.5 c 128,-1,211
 505 125 505 125 509 118.5 c 128,-1,212
 513 112 513 112 521 112 c 256,213,214
 529 112 529 112 533 118.5 c 128,-1,215
 537 125 537 125 537 132.5 c 128,-1,216
 537 140 537 140 533 146.5 c 128,-1,217
 529 153 529 153 521 153 c 256,208,209
174 235 m 256,218,219
 166 235 166 235 161.5 228.5 c 128,-1,220
 157 222 157 222 157 214.5 c 128,-1,221
 157 207 157 207 161.5 200.5 c 128,-1,222
 166 194 166 194 174 194 c 256,223,224
 182 194 182 194 186 200.5 c 128,-1,225
 190 207 190 207 190 214.5 c 128,-1,226
 190 222 190 222 186 228.5 c 128,-1,227
 182 235 182 235 174 235 c 256,218,219
369 399 m 256,228,229
 361 399 361 399 357 392.5 c 128,-1,230
 353 386 353 386 353 378 c 128,-1,231
 353 370 353 370 357 363.5 c 128,-1,232
 361 357 361 357 369 357 c 256,233,234
 377 357 377 357 381 363.5 c 128,-1,235
 385 370 385 370 385 378 c 128,-1,236
 385 386 385 386 381 392.5 c 128,-1,237
 377 399 377 399 369 399 c 256,228,229
500 582 m 0,238,239
 501 586 501 586 497.5 588.5 c 128,-1,240
 494 591 494 591 489.5 591 c 128,-1,241
 485 591 485 591 481 588.5 c 128,-1,242
 477 586 477 586 478 582 c 0,243,244
 481 573 481 573 489.5 573 c 128,-1,245
 498 573 498 573 500 582 c 0,238,239
543 685 m 256,246,247
 535 685 535 685 530.5 678.5 c 128,-1,248
 526 672 526 672 526 664 c 128,-1,249
 526 656 526 656 530.5 649.5 c 128,-1,250
 535 643 535 643 543 643 c 256,251,252
 551 643 551 643 555 649.5 c 128,-1,253
 559 656 559 656 559 664 c 128,-1,254
 559 672 559 672 555 678.5 c 128,-1,255
 551 685 551 685 543 685 c 256,246,247
87 767 m 0,256,257
 88 771 88 771 84.5 773.5 c 128,-1,258
 81 776 81 776 76.5 776 c 128,-1,259
 72 776 72 776 68 773.5 c 128,-1,260
 64 771 64 771 65 767 c 0,261,262
 68 757 68 757 76.5 757 c 128,-1,263
 85 757 85 757 87 767 c 0,256,257
EndSplineSet
EndChar

StartChar: w
Encoding: 119 119 7
Width: 586
GlyphClass: 1
Flags: W
LayerCount: 2
Fore
SplineSet
49 677 m 2,0,1
 47 680 47 680 42.5 688 c 128,-1,2
 38 696 38 696 33.5 706 c 128,-1,3
 29 716 29 716 25 724.5 c 128,-1,4
 21 733 21 733 20 737 c 2,5,-1
 20 747 l 1,6,-1
 20 758 l 2,7,8
 22 761 22 761 29.5 768.5 c 128,-1,9
 37 776 37 776 40 778 c 2,10,-1
 80 798 l 2,11,12
 84 798 84 798 88 799 c 0,13,14
 91 799 91 799 95 799.5 c 128,-1,15
 99 800 99 800 101 800 c 256,16,17
 103 800 103 800 106.5 799.5 c 128,-1,18
 110 799 110 799 113 799 c 0,19,20
 117 798 117 798 121 798 c 0,21,22
 124 797 124 797 130 794.5 c 128,-1,23
 136 792 136 792 142.5 789 c 128,-1,24
 149 786 149 786 154 782.5 c 128,-1,25
 159 779 159 779 161 778 c 0,26,27
 164 776 164 776 158.5 768.5 c 128,-1,28
 153 761 153 761 153 758 c 1,29,-1
 222 758 l 2,30,31
 223 758 223 758 248.5 746.5 c 128,-1,32
 274 735 274 735 309 718.5 c 128,-1,33
 344 702 344 702 381.5 685 c 128,-1,34
 419 668 419 668 443 657 c 0,35,36
 451 653 451 653 464 646.5 c 128,-1,37
 477 640 477 640 490 633.5 c 128,-1,38
 503 627 503 627 513 622 c 128,-1,39
 523 617 523 617 524 616 c 0,40,41
 527 614 527 614 533 609 c 128,-1,42
 539 604 539 604 546 597.5 c 128,-1,43
 553 591 553 591 558 585 c 128,-1,44
 563 579 563 579 565 576 c 1,45,46
 554 571 554 571 532 560 c 128,-1,47
 510 549 510 549 482 535 c 128,-1,48
 454 521 454 521 423.5 505.5 c 128,-1,49
 393 490 393 490 365 476 c 128,-1,50
 337 462 337 462 315 450.5 c 128,-1,51
 293 439 293 439 283 434 c 0,52,53
 277 431 277 431 263 422.5 c 128,-1,54
 249 414 249 414 232.5 404 c 128,-1,55
 216 394 216 394 201.5 385.5 c 128,-1,56
 187 377 187 377 181 373 c 0,57,58
 176 370 176 370 168.5 362.5 c 128,-1,59
 161 355 161 355 161 353 c 2,60,-1
 161 70 l 1,61,-1
 121 70 l 1,62,-1
 121 50 l 1,63,-1
 181 50 l 1,64,-1
 181 29 l 1,65,-1
 101 -11 l 1,66,-1
 93 -3 l 2,67,68
 89 0 89 0 85.5 3.5 c 128,-1,69
 82 7 82 7 80 9 c 0,70,71
 77 13 77 13 72 19.5 c 128,-1,72
 67 26 67 26 62 32.5 c 128,-1,73
 57 39 57 39 53 44 c 128,-1,74
 49 49 49 49 49 50 c 2,75,-1
 49 677 l 2,0,1
161 434 m 1,76,-1
 403 555 l 1,77,78
 401 558 401 558 394 566 c 128,-1,79
 387 574 387 574 383 576 c 0,80,81
 373 582 373 582 347.5 596.5 c 128,-1,82
 322 611 322 611 293 627 c 128,-1,83
 264 643 264 643 238 657 c 128,-1,84
 212 671 212 671 202 677 c 1,85,-1
 202 697 l 1,86,-1
 161 677 l 1,87,-1
 161 434 l 1,76,-1
423 555 m 0,88,89
 415 555 415 555 411.5 548.5 c 128,-1,90
 408 542 408 542 408 534.5 c 128,-1,91
 408 527 408 527 411.5 521 c 128,-1,92
 415 515 415 515 423 515 c 0,93,94
 430 515 430 515 434 521 c 128,-1,95
 438 527 438 527 438 534.5 c 128,-1,96
 438 542 438 542 434 548.5 c 128,-1,97
 430 555 430 555 423 555 c 0,88,89
EndSplineSet
EndChar

StartChar: h
Encoding: 104 104 8
Width: 642
GlyphClass: 1
Flags: W
LayerCount: 2
Fore
SplineSet
140 16 m 1,0,1
 137 14 137 14 128.5 13 c 128,-1,2
 120 12 120 12 110 12 c 128,-1,3
 100 12 100 12 91 13 c 128,-1,4
 82 14 82 14 78 16 c 0,5,6
 75 17 75 17 71 22.5 c 128,-1,7
 67 28 67 28 63.5 35 c 128,-1,8
 60 42 60 42 58 48 c 128,-1,9
 56 54 56 54 57 57 c 0,10,11
 56 83 56 83 54 136.5 c 128,-1,12
 52 190 52 190 50 258 c 128,-1,13
 48 326 48 326 46 401 c 128,-1,14
 44 476 44 476 42 544 c 128,-1,15
 40 612 40 612 38.5 665.5 c 128,-1,16
 37 719 37 719 37 745 c 2,17,-1
 37 770 l 1,18,-1
 37 787 l 2,19,20
 37 788 37 788 44.5 790.5 c 128,-1,21
 52 793 52 793 62 796.5 c 128,-1,22
 72 800 72 800 82 803 c 128,-1,23
 92 806 92 806 98 808 c 2,24,-1
 108 808 l 1,25,-1
 120 808 l 1,26,-1
 98 787 l 1,27,28
 101 788 101 788 107 789 c 128,-1,29
 113 790 113 790 119.5 790 c 128,-1,30
 126 790 126 790 132 789 c 128,-1,31
 138 788 138 788 140 787 c 0,32,33
 141 786 141 786 143.5 781 c 128,-1,34
 146 776 146 776 149.5 769.5 c 128,-1,35
 153 763 153 763 156 756 c 128,-1,36
 159 749 159 749 161 745 c 0,37,38
 162 740 162 740 165 728.5 c 128,-1,39
 168 717 168 717 171.5 703.5 c 128,-1,40
 175 690 175 690 177.5 678 c 128,-1,41
 180 666 180 666 181 662 c 2,42,-1
 326 579 l 1,43,-1
 326 552 l 1,44,45
 331 552 331 552 346.5 555.5 c 128,-1,46
 362 559 362 559 367 558 c 0,47,48
 373 556 373 556 388 551 c 128,-1,49
 403 546 403 546 419.5 539 c 128,-1,50
 436 532 436 532 450 526 c 128,-1,51
 464 520 464 520 470 517 c 1,52,53
 470 522 470 522 470.5 535.5 c 128,-1,54
 471 549 471 549 471 563.5 c 128,-1,55
 471 578 471 578 471.5 591.5 c 128,-1,56
 472 605 472 605 472 610 c 0,57,58
 472 619 472 619 471.5 634.5 c 128,-1,59
 471 650 471 650 471 665 c 128,-1,60
 471 680 471 680 470.5 691 c 128,-1,61
 470 702 470 702 470 704 c 256,62,63
 470 706 470 706 467 715.5 c 128,-1,64
 464 725 464 725 460 735.5 c 128,-1,65
 456 746 456 746 453 755 c 128,-1,66
 450 764 450 764 450 767 c 0,67,68
 450 769 450 769 457.5 777 c 128,-1,69
 465 785 465 785 470 787 c 0,70,71
 473 788 473 788 479.5 791.5 c 128,-1,72
 486 795 486 795 492.5 798.5 c 128,-1,73
 499 802 499 802 504.5 804.5 c 128,-1,74
 510 807 510 807 511 808 c 0,75,76
 514 809 514 809 520 810 c 128,-1,77
 526 811 526 811 532.5 811.5 c 128,-1,78
 539 812 539 812 545 812.5 c 128,-1,79
 551 813 551 813 554 813 c 1,80,-1
 554 796 l 1,81,82
 552 796 552 796 544 793 c 128,-1,83
 536 790 536 790 532 787 c 0,84,85
 530 786 530 786 527 780.5 c 128,-1,86
 524 775 524 775 520.5 768 c 128,-1,87
 517 761 517 761 514.5 754.5 c 128,-1,88
 512 748 512 748 511 745 c 1,89,-1
 522 745 l 1,90,-1
 532 745 l 2,91,92
 535 746 535 746 540.5 749 c 128,-1,93
 546 752 546 752 553 755.5 c 128,-1,94
 560 759 560 759 565.5 762 c 128,-1,95
 571 765 571 765 574 767 c 1,96,-1
 574 527 l 1,97,-1
 511 527 l 1,98,-1
 532 475 l 1,99,100
 534 477 534 477 542 485 c 128,-1,101
 550 493 550 493 554 495 c 0,102,103
 555 496 555 496 559.5 497.5 c 128,-1,104
 564 499 564 499 569 500 c 128,-1,105
 574 501 574 501 578 501.5 c 128,-1,106
 582 502 582 502 584 502 c 1,107,-1
 584 120 l 2,108,109
 586 117 586 117 591 108 c 128,-1,110
 596 99 596 99 601 89 c 128,-1,111
 606 79 606 79 610 70 c 128,-1,112
 614 61 614 61 615 57 c 0,113,114
 615 55 615 55 616 47 c 128,-1,115
 617 39 617 39 617 35 c 0,116,117
 617 33 617 33 616.5 30 c 128,-1,118
 616 27 616 27 616 24 c 0,119,120
 615 20 615 20 615 16 c 0,121,122
 614 15 614 15 609 12 c 128,-1,123
 604 9 604 9 597.5 6 c 128,-1,124
 591 3 591 3 584.5 -0.5 c 128,-1,125
 578 -4 578 -4 574 -5 c 2,126,-1
 564 -5 l 1,127,-1
 554 -5 l 2,128,129
 553 -5 553 -5 550 -2 c 128,-1,130
 547 1 547 1 543 4.5 c 128,-1,131
 539 8 539 8 536 11.5 c 128,-1,132
 533 15 533 15 532 16 c 2,133,-1
 511 16 l 2,134,135
 507 18 507 18 499 25.5 c 128,-1,136
 491 33 491 33 491 37 c 0,137,138
 489 43 489 43 486.5 64 c 128,-1,139
 484 85 484 85 480.5 109.5 c 128,-1,140
 477 134 477 134 474 155.5 c 128,-1,141
 471 177 471 177 470 182 c 0,142,143
 470 186 470 186 462 194 c 128,-1,144
 454 202 454 202 450 204 c 0,145,146
 442 208 442 208 419.5 219 c 128,-1,147
 397 230 397 230 370.5 243.5 c 128,-1,148
 344 257 344 257 320 269 c 128,-1,149
 296 281 296 281 285 287 c 0,150,151
 279 289 279 289 264.5 295 c 128,-1,152
 250 301 250 301 233.5 307.5 c 128,-1,153
 217 314 217 314 202 320 c 128,-1,154
 187 326 187 326 181 329 c 1,155,-1
 181 79 l 2,156,157
 184 77 184 77 187.5 71.5 c 128,-1,158
 191 66 191 66 194 59 c 128,-1,159
 197 52 197 52 199.5 46 c 128,-1,160
 202 40 202 40 202 37 c 0,161,162
 202 35 202 35 194 27 c 128,-1,163
 186 19 186 19 181 16 c 0,164,165
 178 14 178 14 172 10.5 c 128,-1,166
 166 7 166 7 159 4 c 128,-1,167
 152 1 152 1 146.5 -2 c 128,-1,168
 141 -5 141 -5 140 -5 c 0,169,170
 136 -6 136 -6 132 -6 c 0,171,172
 129 -7 129 -7 125.5 -7 c 128,-1,173
 122 -7 122 -7 120 -7 c 0,174,175
 116 -7 116 -7 108 -6 c 128,-1,176
 100 -5 100 -5 98 -5 c 1,177,-1
 140 16 l 1,0,1
120 99 m 0,178,179
 112 99 112 99 107.5 92.5 c 128,-1,180
 103 86 103 86 103 78 c 128,-1,181
 103 70 103 70 107.5 63.5 c 128,-1,182
 112 57 112 57 120 57 c 0,183,184
 127 57 127 57 131 63.5 c 128,-1,185
 135 70 135 70 135 78 c 128,-1,186
 135 86 135 86 131 92.5 c 128,-1,187
 127 99 127 99 120 99 c 0,178,179
511 79 m 1,188,-1
 532 79 l 1,189,-1
 532 99 l 1,190,-1
 511 99 l 1,191,-1
 511 79 l 1,188,-1
98 204 m 0,192,193
 93 205 93 205 91 201.5 c 128,-1,194
 89 198 89 198 89 193.5 c 128,-1,195
 89 189 89 189 91 185 c 128,-1,196
 93 181 93 181 98 182 c 0,197,198
 108 186 108 186 108 194 c 128,-1,199
 108 202 108 202 98 204 c 0,192,193
78 329 m 1,200,201
 79 325 79 325 87 317 c 128,-1,202
 95 309 95 309 98 307 c 0,203,204
 101 306 101 306 107 303 c 128,-1,205
 113 300 113 300 119.5 296.5 c 128,-1,206
 126 293 126 293 132 290.5 c 128,-1,207
 138 288 138 288 140 287 c 1,208,209
 140 289 140 289 141 292 c 128,-1,210
 142 295 142 295 142 297 c 0,211,212
 142 298 142 298 141.5 299.5 c 128,-1,213
 141 301 141 301 141 303 c 0,214,215
 140 305 140 305 140 307 c 0,216,217
 139 309 139 309 133.5 312 c 128,-1,218
 128 315 128 315 121.5 318.5 c 128,-1,219
 115 322 115 322 108.5 325 c 128,-1,220
 102 328 102 328 98 329 c 2,221,-1
 88 329 l 1,222,-1
 78 329 l 1,200,201
175 520 m 1,223,224
 175 518 175 518 175.5 511.5 c 128,-1,225
 176 505 176 505 177 497.5 c 128,-1,226
 178 490 178 490 179 483.5 c 128,-1,227
 180 477 180 477 181 475 c 0,228,229
 183 472 183 472 191 464 c 128,-1,230
 199 456 199 456 202 454 c 0,231,232
 219 444 219 444 243.5 431.5 c 128,-1,233
 268 419 268 419 295 405 c 128,-1,234
 322 391 322 391 349 377.5 c 128,-1,235
 376 364 376 364 398 353 c 128,-1,236
 420 342 420 342 434 335.5 c 128,-1,237
 448 329 448 329 450 329 c 2,238,-1
 470 329 l 1,239,-1
 470 391 l 2,240,241
 470 392 470 392 456 399.5 c 128,-1,242
 442 407 442 407 422.5 417 c 128,-1,243
 403 427 403 427 381.5 437.5 c 128,-1,244
 360 448 360 448 346 454 c 0,245,246
 336 458 336 458 314.5 467.5 c 128,-1,247
 293 477 293 477 270 487 c 128,-1,248
 247 497 247 497 227.5 505.5 c 128,-1,249
 208 514 208 514 202 517 c 0,250,251
 200 518 200 518 188 519 c 128,-1,252
 176 520 176 520 175 520 c 1,223,224
554 349 m 0,253,254
 546 349 546 349 541.5 342.5 c 128,-1,255
 537 336 537 336 537 328 c 128,-1,256
 537 320 537 320 541.5 313.5 c 128,-1,257
 546 307 546 307 554 307 c 0,258,259
 561 307 561 307 565 313.5 c 128,-1,260
 569 320 569 320 569 328 c 128,-1,261
 569 336 569 336 565 342.5 c 128,-1,262
 561 349 561 349 554 349 c 0,253,254
120 475 m 0,263,264
 112 475 112 475 107.5 468.5 c 128,-1,265
 103 462 103 462 103 453.5 c 128,-1,266
 103 445 103 445 107.5 438.5 c 128,-1,267
 112 432 112 432 120 432 c 0,268,269
 127 432 127 432 131 438.5 c 128,-1,270
 135 445 135 445 135 453.5 c 128,-1,271
 135 462 135 462 131 468.5 c 128,-1,272
 127 475 127 475 120 475 c 0,263,264
326 517 m 0,273,274
 318 517 318 517 314 510.5 c 128,-1,275
 310 504 310 504 310 496 c 128,-1,276
 310 488 310 488 314 481.5 c 128,-1,277
 318 475 318 475 326 475 c 0,278,279
 333 475 333 475 337 481.5 c 128,-1,280
 341 488 341 488 341 496 c 128,-1,281
 341 504 341 504 337 510.5 c 128,-1,282
 333 517 333 517 326 517 c 0,273,274
78 558 m 0,283,284
 70 558 70 558 66 551.5 c 128,-1,285
 62 545 62 545 62 537.5 c 128,-1,286
 62 530 62 530 66 523.5 c 128,-1,287
 70 517 70 517 78 517 c 0,288,289
 85 517 85 517 89 523.5 c 128,-1,290
 93 530 93 530 93 537.5 c 128,-1,291
 93 545 93 545 89 551.5 c 128,-1,292
 85 558 85 558 78 558 c 0,283,284
96 652 m 0,293,294
 96 648 96 648 97 646 c 0,295,296
 97 644 97 644 98 642 c 0,297,298
 100 638 100 638 108 630 c 128,-1,299
 116 622 116 622 120 620 c 1,300,-1
 140 642 l 1,301,-1
 98 662 l 1,302,303
 98 660 98 660 97 657 c 128,-1,304
 96 654 96 654 96 652 c 0,293,294
532 642 m 0,305,306
 527 643 527 643 525 639.5 c 128,-1,307
 523 636 523 636 523 631.5 c 128,-1,308
 523 627 523 627 525 623 c 128,-1,309
 527 619 527 619 532 620 c 0,310,311
 542 624 542 624 542 632 c 128,-1,312
 542 640 542 640 532 642 c 0,305,306
EndSplineSet
EndChar

StartChar: n
Encoding: 110 110 9
Width: 448
GlyphClass: 1
Flags: W
LayerCount: 2
Fore
SplineSet
17 487 m 2,0,1
 17 489 17 489 18 491 c 0,2,3
 20 492 20 492 25.5 495.5 c 128,-1,4
 31 499 31 499 38 502.5 c 128,-1,5
 45 506 45 506 51 508.5 c 128,-1,6
 57 511 57 511 60 512 c 0,7,8
 64 512 64 512 76 511 c 128,-1,9
 88 510 88 510 101 508.5 c 128,-1,10
 114 507 114 507 126 506 c 128,-1,11
 138 505 138 505 143 505 c 1,12,-1
 143 776 l 2,13,14
 143 778 143 778 147.5 781 c 128,-1,15
 152 784 152 784 158.5 787 c 128,-1,16
 165 790 165 790 171.5 793 c 128,-1,17
 178 796 178 796 183 797 c 0,18,19
 185 797 185 797 193 798 c 128,-1,20
 201 799 201 799 206 799 c 0,21,22
 208 799 208 799 210.5 798.5 c 128,-1,23
 213 798 213 798 216 798 c 0,24,25
 220 797 220 797 224 797 c 0,26,27
 230 793 230 793 239 784 c 128,-1,28
 248 775 248 775 256.5 765.5 c 128,-1,29
 265 756 265 756 270.5 747.5 c 128,-1,30
 276 739 276 739 276 736 c 2,31,-1
 276 450 l 2,32,33
 276 449 276 449 279.5 446.5 c 128,-1,34
 283 444 283 444 288 441 c 128,-1,35
 293 438 293 438 298 435 c 128,-1,36
 303 432 303 432 306 430 c 0,37,38
 313 426 313 426 331 417.5 c 128,-1,39
 349 409 349 409 368.5 399 c 128,-1,40
 388 389 388 389 405.5 380.5 c 128,-1,41
 423 372 423 372 430 369 c 0,42,43
 430 368 430 368 431 364.5 c 128,-1,44
 432 361 432 361 432 359 c 256,45,46
 432 357 432 357 431.5 355.5 c 128,-1,47
 431 354 431 354 431 352 c 0,48,49
 430 350 430 350 430 348 c 0,50,51
 428 347 428 347 422.5 344 c 128,-1,52
 417 341 417 341 410.5 338 c 128,-1,53
 404 335 404 335 398 332 c 128,-1,54
 392 329 392 329 389 328 c 0,55,56
 383 327 383 327 368.5 326.5 c 128,-1,57
 354 326 354 326 337.5 326 c 128,-1,58
 321 326 321 326 306.5 326.5 c 128,-1,59
 292 327 292 327 286 328 c 1,60,-1
 266 64 l 1,61,-1
 299 64 l 1,62,63
 299 61 299 61 297.5 55.5 c 128,-1,64
 296 50 296 50 294 43 c 128,-1,65
 292 36 292 36 289.5 30.5 c 128,-1,66
 287 25 287 25 286 22 c 0,67,68
 285 21 285 21 280 18 c 128,-1,69
 275 15 275 15 268.5 11.5 c 128,-1,70
 262 8 262 8 255 5.5 c 128,-1,71
 248 3 248 3 244 2 c 0,72,73
 243 2 243 2 235 1 c 128,-1,74
 227 0 227 0 224 0 c 0,75,76
 222 0 222 0 218.5 0 c 128,-1,77
 215 0 215 0 212 1 c 0,78,79
 208 1 208 1 204 2 c 0,80,81
 202 2 202 2 194.5 10 c 128,-1,82
 187 18 187 18 183 22 c 0,83,84
 180 26 180 26 175 32.5 c 128,-1,85
 170 39 170 39 165 46 c 128,-1,86
 160 53 160 53 156.5 58 c 128,-1,87
 153 63 153 63 153 64 c 2,88,-1
 153 390 l 2,89,90
 153 391 153 391 141 399 c 128,-1,91
 129 407 129 407 121 410 c 0,92,93
 118 411 118 411 106 417 c 128,-1,94
 94 423 94 423 80.5 429.5 c 128,-1,95
 67 436 67 436 55 442 c 128,-1,96
 43 448 43 448 40 450 c 0,97,98
 36 452 36 452 28 460 c 128,-1,99
 20 468 20 468 18 471 c 0,100,101
 17 474 17 474 17 476 c 2,102,-1
 17 481 l 1,103,-1
 17 487 l 2,0,1
244 288 m 0,104,105
 240 289 240 289 230.5 287.5 c 128,-1,106
 221 286 221 286 211.5 283 c 128,-1,107
 202 280 202 280 193.5 275.5 c 128,-1,108
 185 271 185 271 183 267 c 0,109,110
 181 266 181 266 178.5 254 c 128,-1,111
 176 242 176 242 176 236 c 0,112,113
 176 235 176 235 177 231 c 128,-1,114
 178 227 178 227 179 222 c 128,-1,115
 180 217 180 217 181 212.5 c 128,-1,116
 182 208 182 208 183 206 c 1,117,118
 184 209 184 209 186.5 215 c 128,-1,119
 189 221 189 221 192.5 227.5 c 128,-1,120
 196 234 196 234 199 239.5 c 128,-1,121
 202 245 202 245 204 246 c 0,122,123
 205 248 205 248 211.5 251 c 128,-1,124
 218 254 218 254 224.5 257 c 128,-1,125
 231 260 231 260 237 262.5 c 128,-1,126
 243 265 243 265 244 267 c 0,127,128
 244 269 244 269 245 272 c 0,129,130
 247 276 247 276 247 278 c 0,131,132
 247 279 247 279 245.5 282.5 c 128,-1,133
 244 286 244 286 244 288 c 0,104,105
244 390 m 256,134,135
 236 390 236 390 232.5 383.5 c 128,-1,136
 229 377 229 377 229 369 c 128,-1,137
 229 361 229 361 232.5 354.5 c 128,-1,138
 236 348 236 348 244 348 c 256,139,140
 252 348 252 348 256 354.5 c 128,-1,141
 260 361 260 361 260 369 c 128,-1,142
 260 377 260 377 256 383.5 c 128,-1,143
 252 390 252 390 244 390 c 256,134,135
183 410 m 256,144,145
 175 410 175 410 171.5 403.5 c 128,-1,146
 168 397 168 397 168 389.5 c 128,-1,147
 168 382 168 382 171.5 375.5 c 128,-1,148
 175 369 175 369 183 369 c 256,149,150
 191 369 191 369 195 375.5 c 128,-1,151
 199 382 199 382 199 389.5 c 128,-1,152
 199 397 199 397 195 403.5 c 128,-1,153
 191 410 191 410 183 410 c 256,144,145
183 532 m 1,154,155
 185 530 185 530 191 527 c 128,-1,156
 197 524 197 524 203.5 521 c 128,-1,157
 210 518 210 518 216 515 c 128,-1,158
 222 512 222 512 224 512 c 0,159,160
 227 512 227 512 235 510 c 128,-1,161
 243 508 243 508 244 508 c 1,162,-1
 244 532 l 1,163,-1
 183 532 l 1,154,155
183 634 m 1,164,-1
 244 634 l 1,165,-1
 183 654 l 1,166,-1
 183 634 l 1,164,-1
EndSplineSet
EndChar

StartChar: i
Encoding: 105 105 10
Width: 216
GlyphClass: 1
Flags: W
LayerCount: 2
Fore
SplineSet
41 63 m 0,0,1
 40 87 40 87 38 138.5 c 128,-1,2
 36 190 36 190 34 254 c 128,-1,3
 32 318 32 318 29.5 389 c 128,-1,4
 27 460 27 460 25 524 c 128,-1,5
 23 588 23 588 21 639 c 128,-1,6
 19 690 19 690 19 714 c 2,7,-1
 19 751 l 1,8,-1
 19 776 l 2,9,10
 20 777 20 777 25.5 780.5 c 128,-1,11
 31 784 31 784 38 787 c 128,-1,12
 45 790 45 790 52.5 792.5 c 128,-1,13
 60 795 60 795 64 796 c 0,14,15
 67 797 67 797 73.5 797.5 c 128,-1,16
 80 798 80 798 87 798.5 c 128,-1,17
 94 799 94 799 100.5 799.5 c 128,-1,18
 107 800 107 800 110 800 c 1,19,-1
 110 767 l 1,20,21
 114 767 114 767 122.5 772 c 128,-1,22
 131 777 131 777 133 776 c 0,23,24
 137 773 137 773 143 766.5 c 128,-1,25
 149 760 149 760 154 753.5 c 128,-1,26
 159 747 159 747 163 741.5 c 128,-1,27
 167 736 167 736 167 734 c 2,28,-1
 167 84 l 2,29,30
 170 82 170 82 175.5 76.5 c 128,-1,31
 181 71 181 71 186.5 64.5 c 128,-1,32
 192 58 192 58 196 52 c 128,-1,33
 200 46 200 46 201 43 c 0,34,35
 201 41 201 41 192 33 c 128,-1,36
 183 25 183 25 178 22 c 0,37,38
 175 21 175 21 168 18 c 128,-1,39
 161 15 161 15 153.5 11.5 c 128,-1,40
 146 8 146 8 140 5.5 c 128,-1,41
 134 3 134 3 133 2 c 0,42,43
 131 2 131 2 122.5 1 c 128,-1,44
 114 0 114 0 110 0 c 0,45,46
 107 0 107 0 103.5 0 c 128,-1,47
 100 0 100 0 96 1 c 0,48,49
 92 1 92 1 88 2 c 0,50,51
 86 2 86 2 77 10 c 128,-1,52
 68 18 68 18 64 22 c 0,53,54
 62 25 62 25 58.5 30.5 c 128,-1,55
 55 36 55 36 51.5 42.5 c 128,-1,56
 48 49 48 49 45 55 c 128,-1,57
 42 61 42 61 41 63 c 0,0,1
64 104 m 256,58,59
 55 104 55 104 51 97.5 c 128,-1,60
 47 91 47 91 47 83.5 c 128,-1,61
 47 76 47 76 51 69.5 c 128,-1,62
 55 63 55 63 64 63 c 256,63,64
 73 63 73 63 77.5 69.5 c 128,-1,65
 82 76 82 76 82 83.5 c 128,-1,66
 82 91 82 91 77.5 97.5 c 128,-1,67
 73 104 73 104 64 104 c 256,58,59
133 389 m 0,68,69
 124 389 124 389 120 382.5 c 128,-1,70
 116 376 116 376 116 368.5 c 128,-1,71
 116 361 116 361 120 354.5 c 128,-1,72
 124 348 124 348 133 348 c 0,73,74
 141 348 141 348 145 354.5 c 128,-1,75
 149 361 149 361 149 368.5 c 128,-1,76
 149 376 149 376 145 382.5 c 128,-1,77
 141 389 141 389 133 389 c 0,68,69
110 593 m 0,78,79
 102 593 102 593 97.5 586.5 c 128,-1,80
 93 580 93 580 93 572 c 128,-1,81
 93 564 93 564 97.5 557.5 c 128,-1,82
 102 551 102 551 110 551 c 0,83,84
 119 551 119 551 123 557.5 c 128,-1,85
 127 564 127 564 127 572 c 128,-1,86
 127 580 127 580 123 586.5 c 128,-1,87
 119 593 119 593 110 593 c 0,78,79
64 613 m 256,88,89
 55 613 55 613 51 606.5 c 128,-1,90
 47 600 47 600 47 592.5 c 128,-1,91
 47 585 47 585 51 578.5 c 128,-1,92
 55 572 55 572 64 572 c 256,93,94
 73 572 73 572 77.5 578.5 c 128,-1,95
 82 585 82 585 82 592.5 c 128,-1,96
 82 600 82 600 77.5 606.5 c 128,-1,97
 73 613 73 613 64 613 c 256,88,89
110 674 m 0,98,99
 113 678 113 678 105 680.5 c 128,-1,100
 97 683 97 683 87.5 683 c 128,-1,101
 78 683 78 683 70 680.5 c 128,-1,102
 62 678 62 678 64 674 c 0,103,104
 67 669 67 669 73.5 666.5 c 128,-1,105
 80 664 80 664 87 664 c 128,-1,106
 94 664 94 664 100.5 666.5 c 128,-1,107
 107 669 107 669 110 674 c 0,98,99
EndSplineSet
EndChar

StartChar: j
Encoding: 106 106 11
Width: 517
GlyphClass: 1
Flags: W
LayerCount: 2
Fore
SplineSet
219 263 m 1,0,1
 211 270 211 270 192 288.5 c 128,-1,2
 173 307 173 307 152.5 328 c 128,-1,3
 132 349 132 349 113.5 367.5 c 128,-1,4
 95 386 95 386 88 393 c 0,5,6
 84 397 84 397 76 407 c 128,-1,7
 68 417 68 417 59.5 427 c 128,-1,8
 51 437 51 437 44 446 c 128,-1,9
 37 455 37 455 35 458 c 0,10,11
 34 459 34 459 35.5 461.5 c 128,-1,12
 37 464 37 464 39 467 c 128,-1,13
 41 470 41 470 43 472 c 128,-1,14
 45 474 45 474 45 475 c 1,15,-1
 2 475 l 1,16,-1
 210 686 l 1,17,18
 210 692 210 692 211 697 c 0,19,20
 211 702 211 702 211.5 706.5 c 128,-1,21
 212 711 212 711 212 714 c 256,22,23
 212 717 212 717 211.5 723 c 128,-1,24
 211 729 211 729 211 735 c 128,-1,25
 211 741 211 741 210.5 746 c 128,-1,26
 210 751 210 751 210 752 c 256,27,28
 210 753 210 753 207.5 758 c 128,-1,29
 205 763 205 763 202 768 c 128,-1,30
 199 773 199 773 196 778 c 128,-1,31
 193 783 193 783 192 784 c 0,32,33
 191 786 191 786 191 788 c 0,34,35
 190 790 190 790 190 794 c 2,36,-1
 190 795 l 2,37,38
 190 797 190 797 191 798 c 0,39,40
 191 800 191 800 192 801 c 2,41,-1
 262 833 l 2,42,43
 264 833 264 833 270.5 827 c 128,-1,44
 277 821 277 821 279 817 c 0,45,46
 282 813 282 813 289 800.5 c 128,-1,47
 296 788 296 788 298 784 c 0,48,49
 298 781 298 781 300 769 c 128,-1,50
 302 757 302 757 305 743 c 128,-1,51
 308 729 308 729 310.5 717 c 128,-1,52
 313 705 313 705 315 703 c 0,53,54
 318 698 318 698 333 681 c 128,-1,55
 348 664 348 664 366 644.5 c 128,-1,56
 384 625 384 625 399.5 608.5 c 128,-1,57
 415 592 415 592 419 588 c 0,58,59
 426 580 426 580 437.5 567 c 128,-1,60
 449 554 449 554 460.5 541 c 128,-1,61
 472 528 472 528 480 518 c 128,-1,62
 488 508 488 508 489 507 c 0,63,64
 489 505 489 505 490 499 c 128,-1,65
 491 493 491 493 491 491 c 256,66,67
 491 489 491 489 490 482.5 c 128,-1,68
 489 476 489 476 489 475 c 0,69,70
 481 467 481 467 461.5 446 c 128,-1,71
 442 425 442 425 419.5 402 c 128,-1,72
 397 379 397 379 377 358 c 128,-1,73
 357 337 357 337 349 328 c 0,74,75
 347 325 347 325 342 318.5 c 128,-1,76
 337 312 337 312 332 304 c 128,-1,77
 327 296 327 296 322 289 c 128,-1,78
 317 282 317 282 315 279 c 0,79,80
 315 274 315 274 314.5 261 c 128,-1,81
 314 248 314 248 314 234 c 128,-1,82
 314 220 314 220 313.5 207 c 128,-1,83
 313 194 313 194 313 189 c 0,84,85
 313 180 313 180 313.5 165.5 c 128,-1,86
 314 151 314 151 314 137 c 128,-1,87
 314 123 314 123 314.5 111.5 c 128,-1,88
 315 100 315 100 315 99 c 0,89,90
 315 97 315 97 317.5 90 c 128,-1,91
 320 83 320 83 323 75 c 128,-1,92
 326 67 326 67 328.5 59.5 c 128,-1,93
 331 52 331 52 332 50 c 0,94,95
 332 49 332 49 333 42 c 128,-1,96
 334 35 334 35 334 32 c 0,97,98
 334 30 334 30 333.5 27.5 c 128,-1,99
 333 25 333 25 333 23 c 0,100,101
 332 20 332 20 332 18 c 0,102,103
 330 16 330 16 317 9.5 c 128,-1,104
 304 3 304 3 298 2 c 0,105,106
 296 2 296 2 285 1 c 128,-1,107
 274 0 274 0 269 0 c 0,108,109
 266 0 266 0 262 0 c 128,-1,110
 258 0 258 0 254 1 c 0,111,112
 250 1 250 1 245 2 c 0,113,114
 242 3 242 3 238 7 c 128,-1,115
 234 11 234 11 229.5 16.5 c 128,-1,116
 225 22 225 22 222 26.5 c 128,-1,117
 219 31 219 31 219 34 c 2,118,-1
 219 263 l 1,0,1
298 34 m 0,119,120
 293 35 293 35 291 32.5 c 128,-1,121
 289 30 289 30 289 26.5 c 128,-1,122
 289 23 289 23 291 20 c 128,-1,123
 293 17 293 17 298 18 c 0,124,125
 306 20 306 20 306 26 c 128,-1,126
 306 32 306 32 298 34 c 0,119,120
279 115 m 0,127,128
 273 115 273 115 269.5 110 c 128,-1,129
 266 105 266 105 266 99 c 128,-1,130
 266 93 266 93 269.5 88 c 128,-1,131
 273 83 273 83 279 83 c 0,132,133
 286 83 286 83 289.5 88 c 128,-1,134
 293 93 293 93 293 99 c 128,-1,135
 293 105 293 105 289.5 110 c 128,-1,136
 286 115 286 115 279 115 c 0,127,128
315 360 m 1,137,-1
 402 442 l 2,138,139
 402 445 402 445 403 448 c 0,140,141
 403 450 403 450 403.5 452.5 c 128,-1,142
 404 455 404 455 404 457 c 256,143,144
 404 459 404 459 403 466 c 128,-1,145
 402 473 402 473 402 475 c 0,146,147
 401 476 401 476 398.5 481 c 128,-1,148
 396 486 396 486 393 491 c 128,-1,149
 390 496 390 496 387.5 501 c 128,-1,150
 385 506 385 506 385 507 c 0,151,152
 383 511 383 511 382 521.5 c 128,-1,153
 381 532 381 532 381 536 c 1,154,155
 377 536 377 536 365 537 c 128,-1,156
 353 538 353 538 349 540 c 0,157,158
 345 541 345 541 332 547 c 128,-1,159
 319 553 319 553 315 556 c 1,160,-1
 315 360 l 1,137,-1
105 507 m 2,161,162
 104 506 104 506 110 498.5 c 128,-1,163
 116 491 116 491 124 480.5 c 128,-1,164
 132 470 132 470 141.5 459.5 c 128,-1,165
 151 449 151 449 158 442 c 0,166,167
 161 439 161 439 168 432 c 128,-1,168
 175 425 175 425 183 417 c 128,-1,169
 191 409 191 409 199 402 c 128,-1,170
 207 395 207 395 210 393 c 1,171,172
 210 397 210 397 210.5 408.5 c 128,-1,173
 211 420 211 420 211 433 c 128,-1,174
 211 446 211 446 211.5 458 c 128,-1,175
 212 470 212 470 212 475 c 0,176,177
 212 482 212 482 211.5 495.5 c 128,-1,178
 211 509 211 509 211 521.5 c 128,-1,179
 211 534 211 534 210.5 544 c 128,-1,180
 210 554 210 554 210 556 c 0,181,182
 210 561 210 561 203 573.5 c 128,-1,183
 196 586 196 586 192 588 c 1,184,-1
 105 507 l 2,161,162
367 540 m 256,185,186
 360 540 360 540 356.5 535 c 128,-1,187
 353 530 353 530 353 523.5 c 128,-1,188
 353 517 353 517 356.5 512 c 128,-1,189
 360 507 360 507 367 507 c 256,190,191
 374 507 374 507 377 512 c 128,-1,192
 380 517 380 517 380 523.5 c 128,-1,193
 380 530 380 530 377 535 c 128,-1,194
 374 540 374 540 367 540 c 256,185,186
EndSplineSet
EndChar

StartChar: ezh
Encoding: 658 658 12
Width: 520
GlyphClass: 1
Flags: W
LayerCount: 2
Fore
SplineSet
180 83 m 0,0,1
 179 86 179 86 180.5 92.5 c 128,-1,2
 182 99 182 99 185 105.5 c 128,-1,3
 188 112 188 112 191 117 c 128,-1,4
 194 122 194 122 197 124 c 1,5,6
 196 124 196 124 189 126 c 128,-1,7
 182 128 182 128 180 128 c 0,8,9
 177 128 177 128 169 126 c 0,10,11
 165 125 165 125 162 124 c 0,12,13
 160 122 160 122 157 117 c 128,-1,14
 154 112 154 112 151 105.5 c 128,-1,15
 148 99 148 99 146 92.5 c 128,-1,16
 144 86 144 86 144 83 c 1,17,18
 142 87 142 87 135 95.5 c 128,-1,19
 128 104 128 104 119.5 114 c 128,-1,20
 111 124 111 124 103.5 132.5 c 128,-1,21
 96 141 96 141 92 144 c 0,22,23
 91 145 91 145 86 148 c 128,-1,24
 81 151 81 151 75 154.5 c 128,-1,25
 69 158 69 158 64 161 c 128,-1,26
 59 164 59 164 58 165 c 0,27,28
 54 168 54 168 47 175.5 c 128,-1,29
 40 183 40 183 40 185 c 0,30,31
 39 190 39 190 39 205.5 c 128,-1,32
 39 221 39 221 40 226 c 1,33,-1
 6 206 l 1,34,35
 8 208 8 208 13 214 c 128,-1,36
 18 220 18 220 23 226 c 128,-1,37
 28 232 28 232 33 238 c 128,-1,38
 38 244 38 244 40 246 c 0,39,40
 45 250 45 250 58.5 257.5 c 128,-1,41
 72 265 72 265 76 267 c 0,42,43
 77 267 77 267 83.5 268 c 128,-1,44
 90 269 90 269 95 269 c 0,45,46
 96 269 96 269 99 268.5 c 128,-1,47
 102 268 102 268 104 268 c 0,48,49
 107 267 107 267 110 267 c 0,50,51
 112 266 112 266 117 260 c 128,-1,52
 122 254 122 254 127.5 247 c 128,-1,53
 133 240 133 240 138 233.5 c 128,-1,54
 143 227 143 227 144 226 c 0,55,56
 148 223 148 223 155.5 217 c 128,-1,57
 163 211 163 211 171.5 204.5 c 128,-1,58
 180 198 180 198 187 192.5 c 128,-1,59
 194 187 194 187 197 185 c 256,60,61
 200 183 200 183 206 186.5 c 128,-1,62
 212 190 212 190 214 190 c 1,63,-1
 214 695 l 2,64,65
 212 698 212 698 209 706.5 c 128,-1,66
 206 715 206 715 203.5 724.5 c 128,-1,67
 201 734 201 734 199 743 c 128,-1,68
 197 752 197 752 197 756 c 0,69,70
 197 758 197 758 203.5 765.5 c 128,-1,71
 210 773 210 773 214 777 c 0,72,73
 217 778 217 778 222.5 781 c 128,-1,74
 228 784 228 784 233.5 787 c 128,-1,75
 239 790 239 790 243.5 793 c 128,-1,76
 248 796 248 796 249 796 c 0,77,78
 251 796 251 796 257.5 797.5 c 128,-1,79
 264 799 264 799 268 799 c 0,80,81
 269 799 269 799 277 797 c 0,82,83
 280 796 280 796 284 796 c 0,84,85
 288 794 288 794 300.5 782 c 128,-1,86
 313 770 313 770 327.5 756.5 c 128,-1,87
 342 743 342 743 354.5 731 c 128,-1,88
 367 719 367 719 370 716 c 0,89,90
 375 712 375 712 393 697 c 128,-1,91
 411 682 411 682 431.5 664.5 c 128,-1,92
 452 647 452 647 469.5 632 c 128,-1,93
 487 617 487 617 492 613 c 0,94,95
 497 610 497 610 503 602 c 128,-1,96
 509 594 509 594 509 593 c 0,97,98
 509 591 509 591 510 583 c 128,-1,99
 511 575 511 575 511 570 c 0,100,101
 511 568 511 568 510.5 565 c 128,-1,102
 510 562 510 562 510 559 c 0,103,104
 509 555 509 555 509 552 c 0,105,106
 509 550 509 550 504.5 547 c 128,-1,107
 500 544 500 544 494.5 541 c 128,-1,108
 489 538 489 538 483.5 535 c 128,-1,109
 478 532 478 532 475 532 c 0,110,111
 473 532 473 532 466.5 531 c 128,-1,112
 460 530 460 530 456 530 c 0,113,114
 454 530 454 530 451 530 c 128,-1,115
 448 530 448 530 446 531 c 0,116,117
 442 531 442 531 440 532 c 0,118,119
 437 533 437 533 427 542 c 128,-1,120
 417 551 417 551 405.5 561.5 c 128,-1,121
 394 572 394 572 383.5 581.5 c 128,-1,122
 373 591 373 591 370 593 c 0,123,124
 366 596 366 596 353 604 c 128,-1,125
 340 612 340 612 336 613 c 1,126,-1
 336 22 l 2,127,128
 336 21 336 21 332 18.5 c 128,-1,129
 328 16 328 16 322.5 12.5 c 128,-1,130
 317 9 317 9 311 6 c 128,-1,131
 305 3 305 3 301 1 c 0,132,133
 300 1 300 1 293 0.5 c 128,-1,134
 286 0 286 0 282 0 c 2,135,-1
 273 0 l 2,136,137
 269 0 269 0 266 1 c 0,138,139
 264 2 264 2 257 7 c 128,-1,140
 250 12 250 12 242 19 c 128,-1,141
 234 26 234 26 226 32.5 c 128,-1,142
 218 39 218 39 214 43 c 256,143,144
 210 47 210 47 204.5 53.5 c 128,-1,145
 199 60 199 60 193.5 66 c 128,-1,146
 188 72 188 72 184 77 c 128,-1,147
 180 82 180 82 180 83 c 0,0,1
EndSplineSet
EndChar

StartChar: p
Encoding: 112 112 13
Width: 602
GlyphClass: 1
Flags: W
LayerCount: 2
Fore
SplineSet
34 69 m 1,0,-1
 34 770 l 2,1,2
 34 772 34 772 42 780 c 128,-1,3
 50 788 50 788 54 791 c 0,4,5
 57 793 57 793 63 796 c 128,-1,6
 69 799 69 799 75 802.5 c 128,-1,7
 81 806 81 806 86 808.5 c 128,-1,8
 91 811 91 811 92 812 c 0,9,10
 94 812 94 812 101.5 813 c 128,-1,11
 109 814 109 814 114 814 c 0,12,13
 116 814 116 814 118.5 813.5 c 128,-1,14
 121 813 121 813 124 813 c 0,15,16
 128 812 128 812 132 812 c 0,17,18
 133 811 133 811 140.5 806 c 128,-1,19
 148 801 148 801 157 794 c 128,-1,20
 166 787 166 787 175 780.5 c 128,-1,21
 184 774 184 774 189 770 c 256,22,23
 194 766 194 766 201.5 758 c 128,-1,24
 209 750 209 750 209 749 c 0,25,26
 210 746 210 746 210 737 c 128,-1,27
 210 728 210 728 210 718 c 128,-1,28
 210 708 210 708 210 698.5 c 128,-1,29
 210 689 210 689 209 685 c 1,30,31
 210 688 210 688 212.5 694.5 c 128,-1,32
 215 701 215 701 218 707.5 c 128,-1,33
 221 714 221 714 224 719.5 c 128,-1,34
 227 725 227 725 229 727 c 0,35,36
 230 727 230 727 232 728 c 0,37,38
 234 728 234 728 235.5 728.5 c 128,-1,39
 237 729 237 729 239 729 c 0,40,41
 240 728 240 728 241 728 c 2,42,-1
 244 728 l 2,43,44
 246 727 246 727 248 727 c 0,45,46
 251 725 251 725 262.5 719 c 128,-1,47
 274 713 274 713 286.5 705.5 c 128,-1,48
 299 698 299 698 310.5 692 c 128,-1,49
 322 686 322 686 325 685 c 0,50,51
 327 685 327 685 334.5 683.5 c 128,-1,52
 342 682 342 682 347 682 c 0,53,54
 349 682 349 682 351.5 682 c 128,-1,55
 354 682 354 682 357 683 c 2,56,-1
 365 685 l 1,57,-1
 500 791 l 1,58,-1
 520 791 l 1,59,-1
 461 727 l 1,60,-1
 480 706 l 1,61,-1
 539 770 l 1,62,63
 541 768 541 768 548.5 759.5 c 128,-1,64
 556 751 556 751 558 749 c 0,65,66
 558 747 558 747 559 738.5 c 128,-1,67
 560 730 560 730 560 725 c 0,68,69
 560 723 560 723 559.5 720 c 128,-1,70
 559 717 559 717 559 714 c 0,71,72
 558 710 558 710 558 706 c 0,73,74
 556 703 556 703 548 696.5 c 128,-1,75
 540 690 540 690 531 683 c 128,-1,76
 522 676 522 676 513 670.5 c 128,-1,77
 504 665 504 665 500 664 c 0,78,79
 497 663 497 663 489 662.5 c 128,-1,80
 481 662 481 662 471.5 662 c 128,-1,81
 462 662 462 662 453.5 662.5 c 128,-1,82
 445 663 445 663 442 664 c 2,83,-1
 306 557 l 1,84,85
 299 563 299 563 282.5 575.5 c 128,-1,86
 266 588 266 588 247.5 601.5 c 128,-1,87
 229 615 229 615 212.5 626.5 c 128,-1,88
 196 638 196 638 189 642 c 0,89,90
 188 644 188 644 181 640 c 128,-1,91
 174 636 174 636 170 636 c 1,92,-1
 170 90 l 1,93,-1
 325 218 l 1,94,-1
 365 218 l 1,95,-1
 344 196 l 2,96,97
 344 191 344 191 352 183 c 128,-1,98
 360 175 360 175 365 175 c 0,99,100
 367 175 367 175 373 177.5 c 128,-1,101
 379 180 379 180 385 183.5 c 128,-1,102
 391 187 391 187 396 190.5 c 128,-1,103
 401 194 401 194 403 196 c 0,104,105
 409 191 409 191 423 179.5 c 128,-1,106
 437 168 437 168 452.5 154.5 c 128,-1,107
 468 141 468 141 481.5 128.5 c 128,-1,108
 495 116 495 116 500 111 c 0,109,110
 501 110 501 110 506.5 103.5 c 128,-1,111
 512 97 512 97 518.5 90 c 128,-1,112
 525 83 525 83 531 76.5 c 128,-1,113
 537 70 537 70 539 69 c 0,114,115
 542 68 542 68 548 70 c 128,-1,116
 554 72 554 72 560 75.5 c 128,-1,117
 566 79 566 79 571 83 c 128,-1,118
 576 87 576 87 577 90 c 1,119,120
 577 88 577 88 574 82 c 128,-1,121
 571 76 571 76 568 69.5 c 128,-1,122
 565 63 565 63 562 57 c 128,-1,123
 559 51 559 51 558 48 c 0,124,125
 556 45 556 45 550.5 38.5 c 128,-1,126
 545 32 545 32 539 25.5 c 128,-1,127
 533 19 533 19 527.5 13 c 128,-1,128
 522 7 522 7 520 5 c 2,129,-1
 510 5 l 1,130,-1
 500 5 l 2,131,132
 495 7 495 7 480.5 15.5 c 128,-1,133
 466 24 466 24 461 26 c 0,134,135
 452 33 452 33 439 43.5 c 128,-1,136
 426 54 426 54 414 64 c 128,-1,137
 402 74 402 74 393 81.5 c 128,-1,138
 384 89 384 89 384 90 c 2,139,-1
 384 105 l 1,140,141
 379 105 379 105 368 106.5 c 128,-1,142
 357 108 357 108 344.5 109.5 c 128,-1,143
 332 111 332 111 321 111.5 c 128,-1,144
 310 112 310 112 306 111 c 0,145,146
 304 111 304 111 299 108.5 c 128,-1,147
 294 106 294 106 288 102.5 c 128,-1,148
 282 99 282 99 276 95.5 c 128,-1,149
 270 92 270 92 267 90 c 256,150,151
 264 88 264 88 252.5 78.5 c 128,-1,152
 241 69 241 69 228 58.5 c 128,-1,153
 215 48 215 48 203.5 38.5 c 128,-1,154
 192 29 192 29 189 26 c 0,155,156
 184 22 184 22 174.5 15.5 c 128,-1,157
 165 9 165 9 155.5 2.5 c 128,-1,158
 146 -4 146 -4 139 -9.5 c 128,-1,159
 132 -15 132 -15 132 -16 c 1,160,161
 130 -16 130 -16 122.5 -17 c 128,-1,162
 115 -18 115 -18 110 -18 c 0,163,164
 108 -18 108 -18 105 -18 c 128,-1,165
 102 -18 102 -18 99 -17 c 0,166,167
 95 -17 95 -17 92 -16 c 0,168,169
 91 -15 91 -15 88 -9.5 c 128,-1,170
 85 -4 85 -4 82 2.5 c 128,-1,171
 79 9 79 9 76.5 15.5 c 128,-1,172
 74 22 74 22 73 26 c 256,173,174
 72 30 72 30 71.5 39.5 c 128,-1,175
 71 49 71 49 71 59 c 128,-1,176
 71 69 71 69 71.5 78 c 128,-1,177
 72 87 72 87 73 90 c 1,178,-1
 34 69 l 1,0,-1
209 90 m 0,179,180
 207 95 207 95 202 93 c 128,-1,181
 197 91 197 91 192.5 86.5 c 128,-1,182
 188 82 188 82 186.5 77 c 128,-1,183
 185 72 185 72 189 69 c 0,184,185
 199 64 199 64 206.5 72.5 c 128,-1,186
 214 81 214 81 209 90 c 0,179,180
267 154 m 256,187,188
 260 154 260 154 256.5 147.5 c 128,-1,189
 253 141 253 141 253 132.5 c 128,-1,190
 253 124 253 124 256.5 117.5 c 128,-1,191
 260 111 260 111 267 111 c 256,192,193
 274 111 274 111 278 117.5 c 128,-1,194
 282 124 282 124 282 132.5 c 128,-1,195
 282 141 282 141 278 147.5 c 128,-1,196
 274 154 274 154 267 154 c 256,187,188
73 196 m 0,197,198
 69 198 69 198 67 194.5 c 128,-1,199
 65 191 65 191 65 186.5 c 128,-1,200
 65 182 65 182 67 178 c 128,-1,201
 69 174 69 174 73 175 c 0,202,203
 82 179 82 179 82 187 c 128,-1,204
 82 195 82 195 73 196 c 0,197,198
73 366 m 0,205,206
 69 370 69 370 67 359.5 c 128,-1,207
 65 349 65 349 65 335.5 c 128,-1,208
 65 322 65 322 67 311 c 128,-1,209
 69 300 69 300 73 303 c 0,210,211
 77 307 77 307 79.5 316 c 128,-1,212
 82 325 82 325 82 335 c 128,-1,213
 82 345 82 345 79.5 354 c 128,-1,214
 77 363 77 363 73 366 c 0,205,206
73 494 m 0,215,216
 69 498 69 498 67 487 c 128,-1,217
 65 476 65 476 65 462.5 c 128,-1,218
 65 449 65 449 67 438 c 128,-1,219
 69 427 69 427 73 430 c 0,220,221
 77 434 77 434 79.5 443.5 c 128,-1,222
 82 453 82 453 82 463 c 128,-1,223
 82 473 82 473 79.5 482 c 128,-1,224
 77 491 77 491 73 494 c 0,215,216
73 579 m 1,225,-1
 92 600 l 1,226,-1
 73 706 l 1,227,-1
 73 579 l 1,225,-1
384 664 m 0,228,229
 382 668 382 668 377 666.5 c 128,-1,230
 372 665 372 665 367.5 660.5 c 128,-1,231
 363 656 363 656 361.5 650.5 c 128,-1,232
 360 645 360 645 365 642 c 0,233,234
 373 637 373 637 380.5 645 c 128,-1,235
 388 653 388 653 384 664 c 0,228,229
EndSplineSet
EndChar

StartChar: x
Encoding: 120 120 14
Width: 600
GlyphClass: 1
Flags: W
LayerCount: 2
Fore
SplineSet
249 397 m 2,0,1
 247 399 247 399 243 405 c 128,-1,2
 239 411 239 411 233.5 417.5 c 128,-1,3
 228 424 228 424 223.5 430 c 128,-1,4
 219 436 219 436 218 439 c 0,5,6
 210 450 210 450 194 474 c 128,-1,7
 178 498 178 498 157.5 528 c 128,-1,8
 137 558 137 558 115 591.5 c 128,-1,9
 93 625 93 625 72.5 655.5 c 128,-1,10
 52 686 52 686 36 710 c 128,-1,11
 20 734 20 734 12 746 c 0,12,13
 12 748 12 748 11.5 751.5 c 128,-1,14
 11 755 11 755 11 757 c 2,15,-1
 11 762 l 2,16,17
 11 764 11 764 12 766 c 0,18,19
 14 770 14 770 22 778 c 128,-1,20
 30 786 30 786 33 788 c 0,21,22
 35 789 35 789 41 792.5 c 128,-1,23
 47 796 47 796 53.5 799 c 128,-1,24
 60 802 60 802 66 804.5 c 128,-1,25
 72 807 72 807 74 808 c 0,26,27
 76 808 76 808 78 809 c 0,28,29
 80 809 80 809 81.5 809.5 c 128,-1,30
 83 810 83 810 85 810 c 256,31,32
 87 810 87 810 88 809.5 c 128,-1,33
 89 809 89 809 91 809 c 0,34,35
 93 808 93 808 94 808 c 0,36,37
 97 806 97 806 103.5 801 c 128,-1,38
 110 796 110 796 117 789 c 128,-1,39
 124 782 124 782 129 775.5 c 128,-1,40
 134 769 134 769 136 766 c 0,41,42
 138 765 138 765 137 756.5 c 128,-1,43
 136 748 136 748 136 746 c 0,44,45
 137 744 137 744 139.5 739 c 128,-1,46
 142 734 142 734 145 727 c 128,-1,47
 148 720 148 720 151 714 c 128,-1,48
 154 708 154 708 156 705 c 0,49,50
 159 700 159 700 165.5 691 c 128,-1,51
 172 682 172 682 178.5 672 c 128,-1,52
 185 662 185 662 190.5 654 c 128,-1,53
 196 646 196 646 198 643 c 0,54,55
 200 641 200 641 205.5 635 c 128,-1,56
 211 629 211 629 217.5 622.5 c 128,-1,57
 224 616 224 616 230 610.5 c 128,-1,58
 236 605 236 605 238 603 c 1,59,60
 238 606 238 606 238.5 613 c 128,-1,61
 239 620 239 620 239 628 c 128,-1,62
 239 636 239 636 239.5 643.5 c 128,-1,63
 240 651 240 651 240 654 c 0,64,65
 240 658 240 658 239.5 666.5 c 128,-1,66
 239 675 239 675 239 683 c 128,-1,67
 239 691 239 691 238.5 697.5 c 128,-1,68
 238 704 238 704 238 705 c 0,69,70
 238 708 238 708 235 717 c 128,-1,71
 232 726 232 726 228 736.5 c 128,-1,72
 224 747 224 747 221 755.5 c 128,-1,73
 218 764 218 764 218 766 c 256,74,75
 218 768 218 768 225.5 776 c 128,-1,76
 233 784 233 784 238 788 c 0,77,78
 241 789 241 789 247.5 792.5 c 128,-1,79
 254 796 254 796 260.5 799 c 128,-1,80
 267 802 267 802 272.5 804.5 c 128,-1,81
 278 807 278 807 279 808 c 0,82,83
 281 808 281 808 289 809 c 128,-1,84
 297 810 297 810 302 810 c 0,85,86
 303 810 303 810 306 809.5 c 128,-1,87
 309 809 309 809 312 809 c 0,88,89
 316 808 316 808 320 808 c 0,90,91
 322 806 322 806 325 801 c 128,-1,92
 328 796 328 796 331.5 789 c 128,-1,93
 335 782 335 782 337.5 775.5 c 128,-1,94
 340 769 340 769 341 766 c 0,95,96
 343 754 343 754 346.5 722.5 c 128,-1,97
 350 691 350 691 353 655 c 128,-1,98
 356 619 356 619 358.5 586.5 c 128,-1,99
 361 554 361 554 361 541 c 1,100,101
 364 543 364 543 372 550.5 c 128,-1,102
 380 558 380 558 382 561 c 0,103,104
 391 573 391 573 404.5 593 c 128,-1,105
 418 613 418 613 431 632.5 c 128,-1,106
 444 652 444 652 453.5 667.5 c 128,-1,107
 463 683 463 683 464 685 c 0,108,109
 464 688 464 688 464 700 c 128,-1,110
 464 712 464 712 463.5 726 c 128,-1,111
 463 740 463 740 463 751.5 c 128,-1,112
 463 763 463 763 464 766 c 0,113,114
 464 768 464 768 472 776 c 128,-1,115
 480 784 480 784 485 788 c 0,116,117
 490 791 490 791 505 798.5 c 128,-1,118
 520 806 520 806 525 808 c 2,119,-1
 536 808 l 1,120,-1
 545 808 l 2,121,122
 549 806 549 806 557 798.5 c 128,-1,123
 565 791 565 791 567 788 c 0,124,125
 569 784 569 784 572.5 777 c 128,-1,126
 576 770 576 770 579 763.5 c 128,-1,127
 582 757 582 757 584.5 752 c 128,-1,128
 587 747 587 747 587 746 c 256,129,130
 587 745 587 745 582.5 737.5 c 128,-1,131
 578 730 578 730 571 720.5 c 128,-1,132
 564 711 564 711 557 701 c 128,-1,133
 550 691 550 691 545 685 c 0,134,135
 539 676 539 676 524.5 656.5 c 128,-1,136
 510 637 510 637 492 612.5 c 128,-1,137
 474 588 474 588 454 561.5 c 128,-1,138
 434 535 434 535 416 510.5 c 128,-1,139
 398 486 398 486 383 467 c 128,-1,140
 368 448 368 448 361 439 c 1,141,-1
 361 110 l 2,142,143
 362 107 362 107 365.5 101.5 c 128,-1,144
 369 96 369 96 372.5 89.5 c 128,-1,145
 376 83 376 83 378.5 77 c 128,-1,146
 381 71 381 71 382 69 c 0,147,148
 382 67 382 67 383 65 c 0,149,150
 383 63 383 63 383.5 61.5 c 128,-1,151
 384 60 384 60 384 59 c 0,152,153
 384 57 384 57 383.5 55.5 c 128,-1,154
 383 54 383 54 383 52 c 0,155,156
 382 50 382 50 382 48 c 0,157,158
 380 46 380 46 375 40.5 c 128,-1,159
 370 35 370 35 363 28.5 c 128,-1,160
 356 22 356 22 350 16 c 128,-1,161
 344 10 344 10 341 7 c 0,162,163
 338 5 338 5 331.5 1.5 c 128,-1,164
 325 -2 325 -2 318.5 -5 c 128,-1,165
 312 -8 312 -8 306.5 -10.5 c 128,-1,166
 301 -13 301 -13 300 -13 c 2,167,-1
 292 -5 l 2,168,169
 288 -2 288 -2 284.5 1.5 c 128,-1,170
 281 5 281 5 279 7 c 0,171,172
 276 11 276 11 271 17.5 c 128,-1,173
 266 24 266 24 261 30.5 c 128,-1,174
 256 37 256 37 252.5 42 c 128,-1,175
 249 47 249 47 249 48 c 2,176,-1
 249 397 l 2,0,1
361 499 m 0,177,178
 356 501 356 501 354 498 c 128,-1,179
 352 495 352 495 352 490.5 c 128,-1,180
 352 486 352 486 354 482 c 128,-1,181
 356 478 356 478 361 479 c 0,182,183
 371 482 371 482 371 490 c 128,-1,184
 371 498 371 498 361 499 c 0,177,178
156 664 m 0,185,186
 148 664 148 664 144.5 657.5 c 128,-1,187
 141 651 141 651 141 643.5 c 128,-1,188
 141 636 141 636 144.5 629.5 c 128,-1,189
 148 623 148 623 156 623 c 0,190,191
 163 623 163 623 167 629.5 c 128,-1,192
 171 636 171 636 171 643.5 c 128,-1,193
 171 651 171 651 167 657.5 c 128,-1,194
 163 664 163 664 156 664 c 0,185,186
EndSplineSet
EndChar

StartChar: s
Encoding: 115 115 15
Width: 570
GlyphClass: 1
Flags: W
LayerCount: 2
Fore
SplineSet
407 470 m 1,0,1
 402 468 402 468 392.5 462.5 c 128,-1,2
 383 457 383 457 372.5 450 c 128,-1,3
 362 443 362 443 352.5 437 c 128,-1,4
 343 431 343 431 339 428 c 0,5,6
 338 427 338 427 324 414.5 c 128,-1,7
 310 402 310 402 292 385.5 c 128,-1,8
 274 369 274 369 255 352 c 128,-1,9
 236 335 236 335 224 325 c 0,10,11
 219 320 219 320 199.5 302 c 128,-1,12
 180 284 180 284 157 263 c 128,-1,13
 134 242 134 242 114 224 c 128,-1,14
 94 206 94 206 89 202 c 0,15,16
 87 200 87 200 80 197 c 128,-1,17
 73 194 73 194 65.5 190.5 c 128,-1,18
 58 187 58 187 51 184.5 c 128,-1,19
 44 182 44 182 41 181 c 1,20,-1
 41 676 l 2,21,22
 39 679 39 679 34.5 687.5 c 128,-1,23
 30 696 30 696 25.5 706 c 128,-1,24
 21 716 21 716 17 725 c 128,-1,25
 13 734 13 734 12 738 c 2,26,-1
 12 748 l 1,27,-1
 12 758 l 2,28,29
 14 762 14 762 21 769.5 c 128,-1,30
 28 777 28 777 31 779 c 0,31,32
 36 782 36 782 50.5 790 c 128,-1,33
 65 798 65 798 69 800 c 2,34,-1
 79 800 l 1,35,-1
 89 800 l 2,36,37
 91 800 91 800 98.5 792 c 128,-1,38
 106 784 106 784 108 779 c 0,39,40
 112 775 112 775 117 768.5 c 128,-1,41
 122 762 122 762 126.5 755.5 c 128,-1,42
 131 749 131 749 134 744 c 128,-1,43
 137 739 137 739 137 738 c 2,44,-1
 137 346 l 1,45,-1
 166 346 l 1,46,47
 176 355 176 355 197 374.5 c 128,-1,48
 218 394 218 394 244.5 418.5 c 128,-1,49
 271 443 271 443 300.5 469.5 c 128,-1,50
 330 496 330 496 356.5 520.5 c 128,-1,51
 383 545 383 545 404.5 564.5 c 128,-1,52
 426 584 426 584 436 593 c 0,53,54
 440 596 440 596 448.5 602 c 128,-1,55
 457 608 457 608 466 615 c 128,-1,56
 475 622 475 622 483 627.5 c 128,-1,57
 491 633 491 633 494 635 c 256,58,59
 497 637 497 637 509 639 c 128,-1,60
 521 641 521 641 523 641 c 1,61,-1
 523 78 l 2,62,63
 526 76 526 76 530.5 71 c 128,-1,64
 535 66 535 66 539.5 59 c 128,-1,65
 544 52 544 52 547.5 46 c 128,-1,66
 551 40 551 40 552 37 c 0,67,68
 552 35 552 35 544.5 27.5 c 128,-1,69
 537 20 537 20 533 16 c 0,70,71
 530 14 530 14 524 11 c 128,-1,72
 518 8 518 8 512 4.5 c 128,-1,73
 506 1 506 1 500.5 -1.5 c 128,-1,74
 495 -4 495 -4 494 -5 c 0,75,76
 493 -5 493 -5 485.5 -5.5 c 128,-1,77
 478 -6 478 -6 474 -6 c 2,78,-1
 463 -6 l 2,79,80
 459 -6 459 -6 456 -5 c 0,81,82
 454 -5 454 -5 446.5 3 c 128,-1,83
 439 11 439 11 436 16 c 0,84,85
 433 20 433 20 428.5 26.5 c 128,-1,86
 424 33 424 33 419 39.5 c 128,-1,87
 414 46 414 46 410.5 51.5 c 128,-1,88
 407 57 407 57 407 58 c 2,89,-1
 407 470 l 1,0,1
436 160 m 0,90,91
 432 162 432 162 430 158.5 c 128,-1,92
 428 155 428 155 428 150.5 c 128,-1,93
 428 146 428 146 430 142.5 c 128,-1,94
 432 139 432 139 436 139 c 0,95,96
 444 143 444 143 444 150.5 c 128,-1,97
 444 158 444 158 436 160 c 0,90,91
434 233 m 0,98,99
 434 229 434 229 435 227 c 0,100,101
 435 225 435 225 436 223 c 0,102,103
 438 219 438 219 445.5 211.5 c 128,-1,104
 453 204 453 204 456 202 c 2,105,-1
 474 223 l 1,106,-1
 436 243 l 1,107,108
 436 241 436 241 435 237.5 c 128,-1,109
 434 234 434 234 434 233 c 0,98,99
128 284 m 0,110,111
 123 285 123 285 121 282 c 128,-1,112
 119 279 119 279 119 274.5 c 128,-1,113
 119 270 119 270 121 266.5 c 128,-1,114
 123 263 123 263 128 263 c 0,115,116
 136 267 136 267 136 275 c 128,-1,117
 136 283 136 283 128 284 c 0,110,111
166 325 m 256,118,119
 159 325 159 325 155.5 318.5 c 128,-1,120
 152 312 152 312 152 304.5 c 128,-1,121
 152 297 152 297 155.5 290.5 c 128,-1,122
 159 284 159 284 166 284 c 256,123,124
 173 284 173 284 177 290.5 c 128,-1,125
 181 297 181 297 181 304.5 c 128,-1,126
 181 312 181 312 177 318.5 c 128,-1,127
 173 325 173 325 166 325 c 256,118,119
224 388 m 0,128,129
 216 388 216 388 212.5 381.5 c 128,-1,130
 209 375 209 375 209 367 c 128,-1,131
 209 359 209 359 212.5 352.5 c 128,-1,132
 216 346 216 346 224 346 c 0,133,134
 231 346 231 346 234.5 352.5 c 128,-1,135
 238 359 238 359 238 367 c 128,-1,136
 238 375 238 375 234.5 381.5 c 128,-1,137
 231 388 231 388 224 388 c 0,128,129
456 388 m 0,138,139
 457 392 457 392 454 394 c 128,-1,140
 451 396 451 396 446.5 396 c 128,-1,141
 442 396 442 396 438.5 394 c 128,-1,142
 435 392 435 392 436 388 c 0,143,144
 439 378 439 378 446.5 378 c 128,-1,145
 454 378 454 378 456 388 c 0,138,139
436 470 m 256,146,147
 432 472 432 472 430 465 c 128,-1,148
 428 458 428 458 428 449 c 128,-1,149
 428 440 428 440 430 433 c 128,-1,150
 432 426 432 426 436 428 c 0,151,152
 440 431 440 431 442 437 c 128,-1,153
 444 443 444 443 444 449.5 c 128,-1,154
 444 456 444 456 442 462 c 128,-1,155
 440 468 440 468 436 470 c 256,146,147
339 470 m 0,156,157
 337 474 337 474 332.5 472.5 c 128,-1,158
 328 471 328 471 324 466.5 c 128,-1,159
 320 462 320 462 318 457 c 128,-1,160
 316 452 316 452 321 449 c 0,161,162
 325 447 325 447 329.5 448 c 128,-1,163
 334 449 334 449 337 452.5 c 128,-1,164
 340 456 340 456 341 460.5 c 128,-1,165
 342 465 342 465 339 470 c 0,156,157
398 532 m 0,166,167
 393 533 393 533 391 530 c 128,-1,168
 389 527 389 527 389 522.5 c 128,-1,169
 389 518 389 518 391 514 c 128,-1,170
 393 510 393 510 398 511 c 0,171,172
 406 514 406 514 406 522 c 128,-1,173
 406 530 406 530 398 532 c 0,166,167
89 635 m 1,174,-1
 108 635 l 1,175,-1
 108 656 l 1,176,-1
 89 635 l 1,174,-1
EndSplineSet
EndChar

StartChar: t
Encoding: 116 116 16
Width: 588
GlyphClass: 1
Flags: W
LayerCount: 2
Fore
SplineSet
240 668 m 1,0,1
 239 668 239 668 234.5 669 c 128,-1,2
 230 670 230 670 225 671.5 c 128,-1,3
 220 673 220 673 215.5 673.5 c 128,-1,4
 211 674 211 674 210 673 c 0,5,6
 208 673 208 673 200.5 668 c 128,-1,7
 193 663 193 663 183.5 656.5 c 128,-1,8
 174 650 174 650 164.5 643.5 c 128,-1,9
 155 637 155 637 150 633 c 0,10,11
 147 630 147 630 135 621 c 128,-1,12
 123 612 123 612 109.5 602 c 128,-1,13
 96 592 96 592 83.5 583 c 128,-1,14
 71 574 71 574 68 571 c 0,15,16
 65 569 65 569 59 565.5 c 128,-1,17
 53 562 53 562 46.5 558.5 c 128,-1,18
 40 555 40 555 35 552.5 c 128,-1,19
 30 550 30 550 29 550 c 0,20,21
 27 550 27 550 19 558 c 128,-1,22
 11 566 11 566 8 571 c 0,23,24
 7 573 7 573 7 575 c 0,25,26
 6 577 6 577 6 581 c 0,27,28
 6 582 6 582 6 584 c 128,-1,29
 6 586 6 586 7 588 c 0,30,31
 7 590 7 590 8 592 c 256,32,33
 9 594 9 594 14.5 599.5 c 128,-1,34
 20 605 20 605 26.5 611.5 c 128,-1,35
 33 618 33 618 39.5 624 c 128,-1,36
 46 630 46 630 49 633 c 0,37,38
 53 636 53 636 71 648 c 128,-1,39
 89 660 89 660 109.5 674 c 128,-1,40
 130 688 130 688 147.5 700 c 128,-1,41
 165 712 165 712 170 715 c 0,42,43
 174 718 174 718 188.5 730.5 c 128,-1,44
 203 743 203 743 219.5 757 c 128,-1,45
 236 771 236 771 251 783 c 128,-1,46
 266 795 266 795 271 798 c 2,47,-1
 278 798 l 2,48,49
 281 798 281 798 284 798.5 c 128,-1,50
 287 799 287 799 289 799 c 0,51,52
 294 799 294 799 301.5 798.5 c 128,-1,53
 309 798 309 798 311 798 c 0,54,55
 312 798 312 798 317.5 795.5 c 128,-1,56
 323 793 323 793 329.5 789.5 c 128,-1,57
 336 786 336 786 342 782.5 c 128,-1,58
 348 779 348 779 351 777 c 256,59,60
 354 775 354 775 362.5 769.5 c 128,-1,61
 371 764 371 764 381 757.5 c 128,-1,62
 391 751 391 751 399.5 745 c 128,-1,63
 408 739 408 739 412 736 c 0,64,65
 415 734 415 734 427 724.5 c 128,-1,66
 439 715 439 715 452.5 704.5 c 128,-1,67
 466 694 466 694 478 685 c 128,-1,68
 490 676 490 676 493 673 c 0,69,70
 495 672 495 672 504 666 c 128,-1,71
 513 660 513 660 523.5 653.5 c 128,-1,72
 534 647 534 647 543 640.5 c 128,-1,73
 552 634 552 634 554 633 c 0,74,75
 557 631 557 631 564.5 623 c 128,-1,76
 572 615 572 615 574 612 c 0,77,78
 573 607 573 607 568 598 c 128,-1,79
 563 589 563 589 556.5 579 c 128,-1,80
 550 569 550 569 543.5 561 c 128,-1,81
 537 553 537 553 533 550 c 0,82,83
 530 549 530 549 526 549 c 2,84,-1
 513 549 l 2,85,86
 511 549 511 549 503 549.5 c 128,-1,87
 495 550 495 550 493 550 c 0,88,89
 485 554 485 554 467.5 565.5 c 128,-1,90
 450 577 450 577 430.5 590 c 128,-1,91
 411 603 411 603 394 615 c 128,-1,92
 377 627 377 627 371 633 c 1,93,-1
 371 37 l 2,94,95
 371 35 371 35 363.5 27.5 c 128,-1,96
 356 20 356 20 351 16 c 0,97,98
 348 14 348 14 342 11 c 128,-1,99
 336 8 336 8 329.5 5 c 128,-1,100
 323 2 323 2 317.5 -1 c 128,-1,101
 312 -4 312 -4 311 -5 c 0,102,103
 309 -5 309 -5 301.5 -6 c 128,-1,104
 294 -7 294 -7 289 -7 c 0,105,106
 287 -7 287 -7 284 -7 c 128,-1,107
 281 -7 281 -7 278 -6 c 0,108,109
 274 -6 274 -6 271 -5 c 0,110,111
 268 -2 268 -2 263 4 c 128,-1,112
 258 10 258 10 252.5 16.5 c 128,-1,113
 247 23 247 23 243.5 29 c 128,-1,114
 240 35 240 35 240 37 c 2,115,-1
 240 668 l 1,0,1
291 57 m 0,116,117
 286 58 286 58 284 55 c 128,-1,118
 282 52 282 52 282 47.5 c 128,-1,119
 282 43 282 43 284 39.5 c 128,-1,120
 286 36 286 36 291 37 c 0,121,122
 301 39 301 39 301 47 c 128,-1,123
 301 55 301 55 291 57 c 0,116,117
291 181 m 1,124,125
 292 179 292 179 294.5 173 c 128,-1,126
 297 167 297 167 300 160.5 c 128,-1,127
 303 154 303 154 306 148 c 128,-1,128
 309 142 309 142 311 139 c 0,129,130
 314 137 314 137 323.5 134 c 128,-1,131
 333 131 333 131 335 131 c 1,132,133
 335 133 335 133 334 145.5 c 128,-1,134
 333 158 333 158 332 160 c 0,135,136
 330 164 330 164 322 171.5 c 128,-1,137
 314 179 314 179 311 181 c 0,138,139
 309 181 309 181 307 182 c 0,140,141
 305 182 305 182 303.5 182.5 c 128,-1,142
 302 183 302 183 301 183 c 0,143,144
 299 183 299 183 296 182 c 128,-1,145
 293 181 293 181 291 181 c 1,124,125
332 349 m 1,146,147
 330 349 330 349 322 348 c 128,-1,148
 314 347 314 347 311 345 c 256,149,150
 308 343 308 343 300.5 335 c 128,-1,151
 293 327 293 327 291 325 c 1,152,-1
 332 325 l 1,153,-1
 332 349 l 1,146,147
340 497 m 1,154,155
 338 497 338 497 326 494.5 c 128,-1,156
 314 492 314 492 311 489 c 0,157,158
 309 487 309 487 306 482 c 128,-1,159
 303 477 303 477 300 470 c 128,-1,160
 297 463 297 463 294.5 457 c 128,-1,161
 292 451 292 451 291 448 c 1,162,163
 294 449 294 449 300 451.5 c 128,-1,164
 306 454 306 454 312.5 457 c 128,-1,165
 319 460 319 460 324.5 463 c 128,-1,166
 330 466 330 466 332 468 c 0,167,168
 333 469 333 469 334.5 473.5 c 128,-1,169
 336 478 336 478 337 483 c 128,-1,170
 338 488 338 488 339 492 c 128,-1,171
 340 496 340 496 340 497 c 1,154,155
332 571 m 0,172,173
 324 571 324 571 320 564.5 c 128,-1,174
 316 558 316 558 316 550 c 128,-1,175
 316 542 316 542 320 535.5 c 128,-1,176
 324 529 324 529 332 529 c 0,177,178
 339 529 339 529 342.5 535.5 c 128,-1,179
 346 542 346 542 346 550 c 128,-1,180
 346 558 346 558 342.5 564.5 c 128,-1,181
 339 571 339 571 332 571 c 0,172,173
342 676 m 0,182,183
 340 676 340 676 336 674 c 0,184,185
 334 673 334 673 332 673 c 0,186,187
 329 672 329 672 322.5 666.5 c 128,-1,188
 316 661 316 661 309.5 654.5 c 128,-1,189
 303 648 303 648 297.5 642 c 128,-1,190
 292 636 292 636 291 633 c 1,191,192
 293 633 293 633 300.5 632 c 128,-1,193
 308 631 308 631 311 631 c 0,194,195
 313 631 313 631 316.5 631 c 128,-1,196
 320 631 320 631 324 632 c 0,197,198
 328 632 328 632 332 633 c 0,199,200
 334 634 334 634 337.5 639.5 c 128,-1,201
 341 645 341 645 344 651.5 c 128,-1,202
 347 658 347 658 349 664 c 128,-1,203
 351 670 351 670 351 673 c 1,204,205
 350 673 350 673 346.5 674.5 c 128,-1,206
 343 676 343 676 342 676 c 0,182,183
EndSplineSet
EndChar

StartChar: b
Encoding: 98 98 17
Width: 574
GlyphClass: 1
Flags: W
LayerCount: 2
Fore
SplineSet
37 63 m 0,0,1
 36 88 36 88 34.5 140.5 c 128,-1,2
 33 193 33 193 31 259.5 c 128,-1,3
 29 326 29 326 27 399 c 128,-1,4
 25 472 25 472 23 538.5 c 128,-1,5
 21 605 21 605 19.5 658 c 128,-1,6
 18 711 18 711 18 736 c 2,7,-1
 18 749 l 1,8,-1
 18 757 l 2,9,10
 19 759 19 759 27 767.5 c 128,-1,11
 35 776 35 776 37 777 c 0,12,13
 40 780 40 780 46 783.5 c 128,-1,14
 52 787 52 787 58.5 790 c 128,-1,15
 65 793 65 793 70 795.5 c 128,-1,16
 75 798 75 798 76 798 c 0,17,18
 78 798 78 798 90 799 c 128,-1,19
 102 800 102 800 108 800 c 0,20,21
 113 800 113 800 123.5 799 c 128,-1,22
 134 798 134 798 136 798 c 0,23,24
 145 796 145 796 158 790 c 128,-1,25
 171 784 171 784 184 777.5 c 128,-1,26
 197 771 197 771 206 765 c 128,-1,27
 215 759 215 759 215 757 c 2,28,-1
 215 736 l 1,29,-1
 274 736 l 1,30,-1
 549 594 l 1,31,32
 546 591 546 591 538 585.5 c 128,-1,33
 530 580 530 580 520.5 573 c 128,-1,34
 511 566 511 566 502.5 560.5 c 128,-1,35
 494 555 494 555 491 552 c 0,36,37
 488 551 488 551 476.5 545 c 128,-1,38
 465 539 465 539 451.5 532.5 c 128,-1,39
 438 526 438 526 426.5 519.5 c 128,-1,40
 415 513 415 513 412 512 c 0,41,42
 401 507 401 507 375.5 492.5 c 128,-1,43
 350 478 350 478 322 462 c 128,-1,44
 294 446 294 446 269 431 c 128,-1,45
 244 416 244 416 235 410 c 1,46,-1
 549 247 l 1,47,-1
 549 227 l 1,48,-1
 116 2 l 2,49,50
 115 2 115 2 107 1 c 128,-1,51
 99 0 99 0 97 0 c 256,52,53
 95 0 95 0 91 0 c 128,-1,54
 87 0 87 0 84 1 c 0,55,56
 80 1 80 1 76 2 c 0,57,58
 72 4 72 4 66 12 c 128,-1,59
 60 20 60 20 53.5 30 c 128,-1,60
 47 40 47 40 42.5 49 c 128,-1,61
 38 58 38 58 37 63 c 0,0,1
97 105 m 0,62,63
 92 106 92 106 89.5 102.5 c 128,-1,64
 87 99 87 99 87 94.5 c 128,-1,65
 87 90 87 90 89.5 86.5 c 128,-1,66
 92 83 92 83 97 84 c 0,67,68
 105 86 105 86 105 94.5 c 128,-1,69
 105 103 105 103 97 105 c 0,62,63
215 105 m 0,70,71
 207 105 207 105 203.5 98.5 c 128,-1,72
 200 92 200 92 200 84 c 128,-1,73
 200 76 200 76 203.5 69.5 c 128,-1,74
 207 63 207 63 215 63 c 0,75,76
 222 63 222 63 226 69.5 c 128,-1,77
 230 76 230 76 230 84 c 128,-1,78
 230 92 230 92 226 98.5 c 128,-1,79
 222 105 222 105 215 105 c 0,70,71
155 105 m 1,80,-1
 195 105 l 1,81,-1
 392 206 l 1,82,83
 390 209 390 209 382.5 217 c 128,-1,84
 375 225 375 225 372 227 c 0,85,86
 364 231 364 231 342 242.5 c 128,-1,87
 320 254 320 254 295 267 c 128,-1,88
 270 280 270 280 247 291.5 c 128,-1,89
 224 303 224 303 215 308 c 0,90,91
 212 309 212 309 203.5 312.5 c 128,-1,92
 195 316 195 316 185.5 319.5 c 128,-1,93
 176 323 176 323 167.5 325.5 c 128,-1,94
 159 328 159 328 155 329 c 1,95,-1
 155 105 l 1,80,-1
57 124 m 1,96,-1
 76 124 l 1,97,-1
 57 145 l 1,98,-1
 57 124 l 1,96,-1
57 247 m 0,99,100
 52 248 52 248 50 245 c 128,-1,101
 48 242 48 242 48 237.5 c 128,-1,102
 48 233 48 233 50 229.5 c 128,-1,103
 52 226 52 226 57 227 c 0,104,105
 66 229 66 229 66 237 c 128,-1,106
 66 245 66 245 57 247 c 0,99,100
57 329 m 0,107,108
 52 331 52 331 50 324 c 128,-1,109
 48 317 48 317 48 308 c 128,-1,110
 48 299 48 299 50 292 c 128,-1,111
 52 285 52 285 57 287 c 0,112,113
 61 290 61 290 63.5 295.5 c 128,-1,114
 66 301 66 301 66 308 c 128,-1,115
 66 315 66 315 63.5 320.5 c 128,-1,116
 61 326 61 326 57 329 c 0,107,108
215 390 m 0,117,118
 207 390 207 390 203.5 383.5 c 128,-1,119
 200 377 200 377 200 369.5 c 128,-1,120
 200 362 200 362 203.5 355.5 c 128,-1,121
 207 349 207 349 215 349 c 0,122,123
 222 349 222 349 226 355.5 c 128,-1,124
 230 362 230 362 230 369.5 c 128,-1,125
 230 377 230 377 226 383.5 c 128,-1,126
 222 390 222 390 215 390 c 0,117,118
57 430 m 0,127,128
 52 432 52 432 50 425.5 c 128,-1,129
 48 419 48 419 48 410 c 128,-1,130
 48 401 48 401 50 394.5 c 128,-1,131
 52 388 52 388 57 390 c 0,132,133
 66 394 66 394 66 409.5 c 128,-1,134
 66 425 66 425 57 430 c 0,127,128
155 447 m 1,135,136
 158 447 158 447 165.5 448 c 128,-1,137
 173 449 173 449 175 451 c 0,138,139
 183 455 183 455 205.5 466.5 c 128,-1,140
 228 478 228 478 253 491 c 128,-1,141
 278 504 278 504 300.5 516 c 128,-1,142
 323 528 323 528 332 533 c 0,143,144
 336 535 336 535 345 540.5 c 128,-1,145
 354 546 354 546 363.5 552.5 c 128,-1,146
 373 559 373 559 381 565 c 128,-1,147
 389 571 389 571 392 573 c 1,148,-1
 195 676 l 1,149,-1
 155 676 l 1,150,-1
 155 447 l 1,135,136
57 492 m 0,151,152
 49 492 49 492 45.5 485.5 c 128,-1,153
 42 479 42 479 42 471.5 c 128,-1,154
 42 464 42 464 45.5 457.5 c 128,-1,155
 49 451 49 451 57 451 c 0,156,157
 64 451 64 451 67.5 457.5 c 128,-1,158
 71 464 71 464 71 471.5 c 128,-1,159
 71 479 71 479 67.5 485.5 c 128,-1,160
 64 492 64 492 57 492 c 0,151,152
55 635 m 0,161,162
 55 632 55 632 55 628.5 c 128,-1,163
 55 625 55 625 56 622 c 0,164,165
 56 618 56 618 57 614 c 0,166,167
 58 612 58 612 63.5 608.5 c 128,-1,168
 69 605 69 605 75.5 602 c 128,-1,169
 82 599 82 599 88 596.5 c 128,-1,170
 94 594 94 594 97 594 c 1,171,172
 97 595 97 595 98 598.5 c 128,-1,173
 99 602 99 602 99 603 c 256,174,175
 99 604 99 604 98.5 606 c 128,-1,176
 98 608 98 608 98 610 c 0,177,178
 97 612 97 612 97 614 c 0,179,180
 95 617 95 617 89.5 623 c 128,-1,181
 84 629 84 629 78 636 c 128,-1,182
 72 643 72 643 66 648 c 128,-1,183
 60 653 60 653 57 655 c 1,184,185
 57 653 57 653 56 645 c 128,-1,186
 55 637 55 637 55 635 c 0,161,162
175 736 m 0,187,188
 167 736 167 736 163.5 729.5 c 128,-1,189
 160 723 160 723 160 715.5 c 128,-1,190
 160 708 160 708 163.5 701.5 c 128,-1,191
 167 695 167 695 175 695 c 0,192,193
 182 695 182 695 186 701.5 c 128,-1,194
 190 708 190 708 190 715.5 c 128,-1,195
 190 723 190 723 186 729.5 c 128,-1,196
 182 736 182 736 175 736 c 0,187,188
EndSplineSet
EndChar

StartChar: e
Encoding: 101 101 18
Width: 702
GlyphClass: 1
Flags: W
LayerCount: 2
Fore
SplineSet
31 695 m 2,0,1
 28 698 28 698 23 706.5 c 128,-1,2
 18 715 18 715 13 725 c 128,-1,3
 8 735 8 735 4.5 744 c 128,-1,4
 1 753 1 753 0 757 c 0,5,6
 0 759 0 759 8 766.5 c 128,-1,7
 16 774 16 774 21 777 c 0,8,9
 24 779 24 779 30 782 c 128,-1,10
 36 785 36 785 43 788.5 c 128,-1,11
 50 792 50 792 55.5 794.5 c 128,-1,12
 61 797 61 797 63 798 c 0,13,14
 65 798 65 798 73.5 799 c 128,-1,15
 82 800 82 800 85 800 c 0,16,17
 87 800 87 800 90.5 799.5 c 128,-1,18
 94 799 94 799 97 799 c 0,19,20
 101 798 101 798 104 798 c 2,21,-1
 374 529 l 1,22,23
 379 534 379 534 391 546 c 128,-1,24
 403 558 403 558 416 571 c 128,-1,25
 429 584 429 584 441 595.5 c 128,-1,26
 453 607 453 607 458 612 c 0,27,28
 464 619 464 619 474 631.5 c 128,-1,29
 484 644 484 644 494 657.5 c 128,-1,30
 504 671 504 671 511.5 681.5 c 128,-1,31
 519 692 519 692 520 695 c 0,32,33
 521 697 521 697 520.5 706 c 128,-1,34
 520 715 520 715 520 725.5 c 128,-1,35
 520 736 520 736 519.5 745.5 c 128,-1,36
 519 755 519 755 520 757 c 0,37,38
 522 760 522 760 527.5 766 c 128,-1,39
 533 772 533 772 539.5 779 c 128,-1,40
 546 786 546 786 552 791 c 128,-1,41
 558 796 558 796 561 798 c 0,42,43
 563 798 563 798 574.5 799 c 128,-1,44
 586 800 586 800 593 800 c 0,45,46
 599 800 599 800 610.5 799 c 128,-1,47
 622 798 622 798 624 798 c 0,48,49
 628 796 628 796 633.5 791 c 128,-1,50
 639 786 639 786 644 779 c 128,-1,51
 649 772 649 772 652.5 766 c 128,-1,52
 656 760 656 760 656 757 c 2,53,-1
 656 95 l 2,54,55
 658 93 658 93 662.5 87.5 c 128,-1,56
 667 82 667 82 672 75.5 c 128,-1,57
 677 69 677 69 681 63 c 128,-1,58
 685 57 685 57 687 54 c 2,59,-1
 687 50 l 2,60,61
 687 48 687 48 687.5 46.5 c 128,-1,62
 688 45 688 45 688 44 c 256,63,64
 688 43 688 43 687.5 41.5 c 128,-1,65
 687 40 687 40 687 38 c 2,66,-1
 687 34 l 2,67,68
 685 32 685 32 677 24 c 128,-1,69
 669 16 669 16 665 13 c 0,70,71
 662 11 662 11 656 8 c 128,-1,72
 650 5 650 5 643.5 1.5 c 128,-1,73
 637 -2 637 -2 631.5 -4.5 c 128,-1,74
 626 -7 626 -7 624 -8 c 0,75,76
 622 -8 622 -8 614 -9 c 128,-1,77
 606 -10 606 -10 601 -10 c 0,78,79
 599 -10 599 -10 596 -10 c 128,-1,80
 593 -10 593 -10 590 -9 c 0,81,82
 586 -9 586 -9 582 -8 c 0,83,84
 579 -5 579 -5 574 1 c 128,-1,85
 569 7 569 7 564 13.5 c 128,-1,86
 559 20 559 20 555.5 26 c 128,-1,87
 552 32 552 32 552 34 c 2,88,-1
 552 571 l 1,89,-1
 343 375 l 1,90,-1
 167 550 l 1,91,-1
 167 34 l 2,92,93
 167 32 167 32 158.5 24 c 128,-1,94
 150 16 150 16 146 13 c 0,95,96
 144 11 144 11 138 8 c 128,-1,97
 132 5 132 5 125 1.5 c 128,-1,98
 118 -2 118 -2 112 -4.5 c 128,-1,99
 106 -7 106 -7 104 -8 c 2,100,-1
 93 -8 l 1,101,-1
 83 -8 l 2,102,103
 81 -8 81 -8 73 0 c 128,-1,104
 65 8 65 8 63 13 c 0,105,106
 60 17 60 17 54.5 23.5 c 128,-1,107
 49 30 49 30 43.5 36.5 c 128,-1,108
 38 43 38 43 34.5 48 c 128,-1,109
 31 53 31 53 31 54 c 2,110,-1
 31 695 l 2,0,1
104 488 m 0,111,112
 96 488 96 488 92 481.5 c 128,-1,113
 88 475 88 475 88 467.5 c 128,-1,114
 88 460 88 460 92 453.5 c 128,-1,115
 96 447 96 447 104 447 c 0,116,117
 111 447 111 447 115 453.5 c 128,-1,118
 119 460 119 460 119 467.5 c 128,-1,119
 119 475 119 475 115 481.5 c 128,-1,120
 111 488 111 488 104 488 c 0,111,112
63 509 m 0,121,122
 55 509 55 509 50.5 502.5 c 128,-1,123
 46 496 46 496 46 488 c 128,-1,124
 46 480 46 480 50.5 473.5 c 128,-1,125
 55 467 55 467 63 467 c 0,126,127
 70 467 70 467 74 473.5 c 128,-1,128
 78 480 78 480 78 488 c 128,-1,129
 78 496 78 496 74 502.5 c 128,-1,130
 70 509 70 509 63 509 c 0,121,122
63 674 m 0,131,132
 55 674 55 674 50.5 667.5 c 128,-1,133
 46 661 46 661 46 653 c 128,-1,134
 46 645 46 645 50.5 638.5 c 128,-1,135
 55 632 55 632 63 632 c 0,136,137
 70 632 70 632 74 638.5 c 128,-1,138
 78 645 78 645 78 653 c 128,-1,139
 78 661 78 661 74 667.5 c 128,-1,140
 70 674 70 674 63 674 c 0,131,132
520 674 m 256,141,142
 512 674 512 674 508 667.5 c 128,-1,143
 504 661 504 661 504 653 c 128,-1,144
 504 645 504 645 508 638.5 c 128,-1,145
 512 632 512 632 520 632 c 256,146,147
 528 632 528 632 532 638.5 c 128,-1,148
 536 645 536 645 536 653 c 128,-1,149
 536 661 536 661 532 667.5 c 128,-1,150
 528 674 528 674 520 674 c 256,141,142
104 695 m 0,151,152
 96 695 96 695 92 688.5 c 128,-1,153
 88 682 88 682 88 674.5 c 128,-1,154
 88 667 88 667 92 660.5 c 128,-1,155
 96 654 96 654 104 654 c 0,156,157
 111 654 111 654 115 660.5 c 128,-1,158
 119 667 119 667 119 674.5 c 128,-1,159
 119 682 119 682 115 688.5 c 128,-1,160
 111 695 111 695 104 695 c 0,151,152
63 777 m 0,161,162
 60 781 60 781 54.5 779.5 c 128,-1,163
 49 778 49 778 44.5 773.5 c 128,-1,164
 40 769 40 769 38 764 c 128,-1,165
 36 759 36 759 41 757 c 0,166,167
 51 752 51 752 59 760 c 128,-1,168
 67 768 67 768 63 777 c 0,161,162
EndSplineSet
EndChar

StartChar: m
Encoding: 109 109 19
Width: 699
GlyphClass: 1
Flags: W
LayerCount: 2
Fore
SplineSet
54 43 m 0,0,1
 54 49 54 49 53.5 65 c 128,-1,2
 53 81 53 81 53 99 c 128,-1,3
 53 117 53 117 52.5 133 c 128,-1,4
 52 149 52 149 52 155 c 0,5,6
 52 165 52 165 52.5 183 c 128,-1,7
 53 201 53 201 53 219 c 128,-1,8
 53 237 53 237 53.5 251 c 128,-1,9
 54 265 54 265 54 268 c 0,10,11
 54 273 54 273 55.5 290.5 c 128,-1,12
 57 308 57 308 59 331 c 128,-1,13
 61 354 61 354 63.5 380 c 128,-1,14
 66 406 66 406 68 429 c 128,-1,15
 70 452 70 452 71.5 469 c 128,-1,16
 73 486 73 486 73 492 c 2,17,-1
 73 504 l 1,18,-1
 73 512 l 2,19,20
 72 516 72 516 64.5 523.5 c 128,-1,21
 57 531 57 531 54 533 c 2,22,-1
 54 696 l 2,23,24
 51 697 51 697 45 702.5 c 128,-1,25
 39 708 39 708 32.5 715 c 128,-1,26
 26 722 26 722 20.5 728 c 128,-1,27
 15 734 15 734 14 737 c 0,28,29
 13 739 13 739 13 742 c 0,30,31
 12 744 12 744 12 748 c 2,32,-1
 12 750 l 2,33,34
 12 752 12 752 13 753 c 0,35,36
 13 755 13 755 14 757 c 0,37,38
 16 761 16 761 22 768 c 128,-1,39
 28 775 28 775 34 781.5 c 128,-1,40
 40 788 40 788 46 793 c 128,-1,41
 52 798 52 798 54 799 c 2,42,-1
 62 799 l 2,43,44
 65 799 65 799 68 799.5 c 128,-1,45
 71 800 71 800 73 800 c 0,46,47
 76 800 76 800 84 799.5 c 128,-1,48
 92 799 92 799 94 799 c 0,49,50
 101 792 101 792 116.5 777.5 c 128,-1,51
 132 763 132 763 151.5 744.5 c 128,-1,52
 171 726 171 726 192.5 706 c 128,-1,53
 214 686 214 686 234 668 c 128,-1,54
 254 650 254 650 270 636 c 128,-1,55
 286 622 286 622 294 615 c 0,56,57
 295 613 295 613 300.5 610 c 128,-1,58
 306 607 306 607 312.5 603.5 c 128,-1,59
 319 600 319 600 325 597.5 c 128,-1,60
 331 595 331 595 334 594 c 2,61,-1
 344 594 l 1,62,-1
 354 594 l 2,63,64
 358 596 358 596 369 604.5 c 128,-1,65
 380 613 380 613 393 622.5 c 128,-1,66
 406 632 406 632 417.5 641.5 c 128,-1,67
 429 651 429 651 434 655 c 0,68,69
 438 660 438 660 449.5 671.5 c 128,-1,70
 461 683 461 683 474 696 c 128,-1,71
 487 709 487 709 498.5 720.5 c 128,-1,72
 510 732 510 732 515 737 c 1,73,74
 517 734 517 734 524.5 726.5 c 128,-1,75
 532 719 532 719 534 717 c 0,76,77
 537 715 537 715 542 718 c 128,-1,78
 547 721 547 721 550 721 c 1,79,80
 550 724 550 724 553 729.5 c 128,-1,81
 556 735 556 735 554 737 c 0,82,83
 552 741 552 741 544.5 748 c 128,-1,84
 537 755 537 755 534 757 c 0,85,86
 532 758 532 758 526.5 758 c 128,-1,87
 521 758 521 758 514.5 758 c 128,-1,88
 508 758 508 758 502 758 c 128,-1,89
 496 758 496 758 494 757 c 1,90,91
 496 760 496 760 504 768 c 128,-1,92
 512 776 512 776 515 778 c 0,93,94
 518 779 518 779 524 782.5 c 128,-1,95
 530 786 530 786 536 789.5 c 128,-1,96
 542 793 542 793 547 795.5 c 128,-1,97
 552 798 552 798 554 799 c 0,98,99
 556 799 556 799 564 799.5 c 128,-1,100
 572 800 572 800 575 800 c 0,101,102
 577 800 577 800 580.5 799.5 c 128,-1,103
 584 799 584 799 587 799 c 2,104,-1
 594 799 l 2,105,106
 596 799 596 799 604 791 c 128,-1,107
 612 783 612 783 615 778 c 0,108,109
 619 774 619 774 624 767.5 c 128,-1,110
 629 761 629 761 633.5 754.5 c 128,-1,111
 638 748 638 748 641 743 c 128,-1,112
 644 738 644 738 644 737 c 2,113,-1
 644 104 l 2,114,115
 647 101 647 101 652 92.5 c 128,-1,116
 657 84 657 84 662 74 c 128,-1,117
 667 64 667 64 670.5 55.5 c 128,-1,118
 674 47 674 47 675 43 c 0,119,120
 675 41 675 41 667.5 33 c 128,-1,121
 660 25 660 25 655 22 c 0,122,123
 652 21 652 21 645.5 18 c 128,-1,124
 639 15 639 15 633 11.5 c 128,-1,125
 627 8 627 8 621.5 5.5 c 128,-1,126
 616 3 616 3 615 2 c 0,127,128
 613 2 613 2 605 1 c 128,-1,129
 597 0 597 0 594 0 c 0,130,131
 592 0 592 0 588.5 0 c 128,-1,132
 585 0 585 0 582 1 c 0,133,134
 578 1 578 1 575 2 c 0,135,136
 572 4 572 4 564 12 c 128,-1,137
 556 20 556 20 554 22 c 0,138,139
 553 26 553 26 552.5 34.5 c 128,-1,140
 552 43 552 43 552 53 c 128,-1,141
 552 63 552 63 552.5 71.5 c 128,-1,142
 553 80 553 80 554 83 c 1,143,-1
 515 64 l 1,144,-1
 515 268 l 2,145,146
 515 269 515 269 510.5 274 c 128,-1,147
 506 279 506 279 499.5 285 c 128,-1,148
 493 291 493 291 486 297.5 c 128,-1,149
 479 304 479 304 475 308 c 0,150,151
 468 314 468 314 451 329 c 128,-1,152
 434 344 434 344 414.5 360 c 128,-1,153
 395 376 395 376 378 390.5 c 128,-1,154
 361 405 361 405 354 410 c 0,155,156
 352 410 352 410 344.5 411.5 c 128,-1,157
 337 413 337 413 334 413 c 256,158,159
 331 413 331 413 323.5 411.5 c 128,-1,160
 316 410 316 410 314 410 c 0,161,162
 311 408 311 408 302.5 403 c 128,-1,163
 294 398 294 398 284.5 391.5 c 128,-1,164
 275 385 275 385 266.5 379 c 128,-1,165
 258 373 258 373 254 370 c 0,166,167
 243 361 243 361 226.5 344.5 c 128,-1,168
 210 328 210 328 194 312 c 128,-1,169
 178 296 178 296 166.5 283 c 128,-1,170
 155 270 155 270 154 268 c 0,171,172
 154 267 154 267 153.5 259 c 128,-1,173
 153 251 153 251 153 239.5 c 128,-1,174
 153 228 153 228 152.5 216.5 c 128,-1,175
 152 205 152 205 152 198 c 0,176,177
 152 189 152 189 152.5 174.5 c 128,-1,178
 153 160 153 160 153 145 c 128,-1,179
 153 130 153 130 153.5 118 c 128,-1,180
 154 106 154 106 154 104 c 256,181,182
 154 102 154 102 157 93 c 128,-1,183
 160 84 160 84 164 73.5 c 128,-1,184
 168 63 168 63 171 54 c 128,-1,185
 174 45 174 45 174 43 c 256,186,187
 174 41 174 41 166.5 33 c 128,-1,188
 159 25 159 25 154 22 c 0,189,190
 151 21 151 21 145 18 c 128,-1,191
 139 15 139 15 132.5 11.5 c 128,-1,192
 126 8 126 8 120.5 5.5 c 128,-1,193
 115 3 115 3 114 2 c 0,194,195
 112 2 112 2 104.5 1 c 128,-1,196
 97 0 97 0 92 0 c 0,197,198
 90 0 90 0 87 0 c 128,-1,199
 84 0 84 0 81 1 c 0,200,201
 77 1 77 1 73 2 c 0,202,203
 71 3 71 3 68 8.5 c 128,-1,204
 65 14 65 14 62 20.5 c 128,-1,205
 59 27 59 27 56.5 33.5 c 128,-1,206
 54 40 54 40 54 43 c 0,0,1
554 166 m 256,207,208
 546 166 546 166 542.5 159.5 c 128,-1,209
 539 153 539 153 539 145 c 128,-1,210
 539 137 539 137 542.5 130.5 c 128,-1,211
 546 124 546 124 554 124 c 256,212,213
 562 124 562 124 566 130.5 c 128,-1,214
 570 137 570 137 570 145 c 128,-1,215
 570 153 570 153 566 159.5 c 128,-1,216
 562 166 562 166 554 166 c 256,207,208
554 247 m 256,217,218
 549 249 549 249 547 242 c 128,-1,219
 545 235 545 235 545 226.5 c 128,-1,220
 545 218 545 218 547 211 c 128,-1,221
 549 204 549 204 554 206 c 0,222,223
 559 209 559 209 561.5 214.5 c 128,-1,224
 564 220 564 220 564 226.5 c 128,-1,225
 564 233 564 233 561.5 239 c 128,-1,226
 559 245 559 245 554 247 c 256,217,218
154 410 m 1,227,228
 159 412 159 412 174 420 c 128,-1,229
 189 428 189 428 194 431 c 0,230,231
 198 434 198 434 206.5 442.5 c 128,-1,232
 215 451 215 451 224.5 460.5 c 128,-1,233
 234 470 234 470 242.5 479 c 128,-1,234
 251 488 251 488 254 492 c 0,235,236
 252 494 252 494 246 500 c 128,-1,237
 240 506 240 506 234 512.5 c 128,-1,238
 228 519 228 519 222 525 c 128,-1,239
 216 531 216 531 214 533 c 0,240,241
 211 536 211 536 202.5 541.5 c 128,-1,242
 194 547 194 547 184.5 553.5 c 128,-1,243
 175 560 175 560 166.5 566 c 128,-1,244
 158 572 158 572 154 574 c 1,245,-1
 154 410 l 1,227,228
475 451 m 1,246,247
 472 449 472 449 464 441.5 c 128,-1,248
 456 434 456 434 454 431 c 0,249,250
 453 429 453 429 453 427 c 0,251,252
 452 425 452 425 452 421 c 0,253,254
 452 419 452 419 453 415.5 c 128,-1,255
 454 412 454 412 454 410 c 1,256,-1
 515 451 l 1,257,-1
 515 615 l 1,258,-1
 415 533 l 1,259,-1
 475 451 l 1,246,247
534 410 m 1,260,-1
 554 410 l 1,261,-1
 554 431 l 1,262,-1
 534 410 l 1,260,-1
554 553 m 0,263,264
 549 557 549 557 547 547 c 128,-1,265
 545 537 545 537 545 523.5 c 128,-1,266
 545 510 545 510 547 499.5 c 128,-1,267
 549 489 549 489 554 492 c 0,268,269
 559 496 559 496 561.5 504.5 c 128,-1,270
 564 513 564 513 564 523 c 128,-1,271
 564 533 564 533 561.5 541.5 c 128,-1,272
 559 550 559 550 554 553 c 0,263,264
73 778 m 0,273,274
 74 783 74 783 71 785.5 c 128,-1,275
 68 788 68 788 64 788 c 128,-1,276
 60 788 60 788 56.5 785.5 c 128,-1,277
 53 783 53 783 54 778 c 0,278,279
 57 769 57 769 64.5 769 c 128,-1,280
 72 769 72 769 73 778 c 0,273,274
EndSplineSet
EndChar

StartChar: l
Encoding: 108 108 20
Width: 545
GlyphClass: 1
Flags: W
LayerCount: 2
Fore
SplineSet
76 389 m 1,0,-1
 56 410 l 1,1,-1
 56 594 l 1,2,-1
 96 614 l 1,3,4
 94 617 94 617 86.5 624.5 c 128,-1,5
 79 632 79 632 76 634 c 0,6,7
 74 636 74 636 67 636 c 128,-1,8
 60 636 60 636 56 634 c 1,9,-1
 17 757 l 2,10,11
 17 759 17 759 24.5 767 c 128,-1,12
 32 775 32 775 37 777 c 2,13,-1
 56 777 l 2,14,15
 58 779 58 779 66 788.5 c 128,-1,16
 74 798 74 798 76 798 c 256,17,18
 78 798 78 798 89 799 c 128,-1,19
 100 800 100 800 105 800 c 0,20,21
 112 800 112 800 122.5 799 c 128,-1,22
 133 798 133 798 134 798 c 0,23,24
 137 797 137 797 149 792 c 128,-1,25
 161 787 161 787 177 780.5 c 128,-1,26
 193 774 193 774 208.5 767.5 c 128,-1,27
 224 761 224 761 233 757 c 0,28,29
 237 755 237 755 248.5 749 c 128,-1,30
 260 743 260 743 272.5 736.5 c 128,-1,31
 285 730 285 730 296 724.5 c 128,-1,32
 307 719 307 719 311 717 c 1,33,-1
 272 696 l 1,34,-1
 311 655 l 1,35,36
 312 658 312 658 314.5 664 c 128,-1,37
 317 670 317 670 320 677 c 128,-1,38
 323 684 323 684 326 689 c 128,-1,39
 329 694 329 694 331 696 c 2,40,-1
 339 696 l 1,41,-1
 351 696 l 2,42,43
 354 695 354 695 362 692.5 c 128,-1,44
 370 690 370 690 379.5 686.5 c 128,-1,45
 389 683 389 683 397.5 680 c 128,-1,46
 406 677 406 677 410 675 c 0,47,48
 418 672 418 672 437.5 663.5 c 128,-1,49
 457 655 457 655 479 645 c 128,-1,50
 501 635 501 635 520 626.5 c 128,-1,51
 539 618 539 618 547 614 c 0,52,53
 547 612 547 612 548 609 c 128,-1,54
 549 606 549 606 549 604 c 0,55,56
 549 603 549 603 548.5 601.5 c 128,-1,57
 548 600 548 600 548 598 c 0,58,59
 547 596 547 596 547 594 c 0,60,61
 545 592 545 592 537.5 584 c 128,-1,62
 530 576 530 576 527 573 c 0,63,64
 522 570 522 570 507.5 562.5 c 128,-1,65
 493 555 493 555 488 553 c 2,66,-1
 478 553 l 1,67,-1
 468 553 l 1,68,-1
 154 694 l 1,69,-1
 154 124 l 2,70,71
 155 121 155 121 158.5 112 c 128,-1,72
 162 103 162 103 165 93.5 c 128,-1,73
 168 84 168 84 170.5 75 c 128,-1,74
 173 66 173 66 174 62 c 2,75,-1
 174 52 l 1,76,-1
 174 41 l 1,77,-1
 154 21 l 2,78,79
 151 19 151 19 145.5 16 c 128,-1,80
 140 13 140 13 133.5 9.5 c 128,-1,81
 127 6 127 6 122 3.5 c 128,-1,82
 117 1 117 1 116 0 c 0,83,84
 114 0 114 0 106 -1 c 128,-1,85
 98 -2 98 -2 94 -2 c 0,86,87
 92 -2 92 -2 89 -2 c 128,-1,88
 86 -2 86 -2 83 -1 c 0,89,90
 79 -1 79 -1 76 0 c 0,91,92
 74 2 74 2 70.5 7.5 c 128,-1,93
 67 13 67 13 64 19.5 c 128,-1,94
 61 26 61 26 58.5 32 c 128,-1,95
 56 38 56 38 56 41 c 2,96,-1
 56 369 l 1,97,-1
 76 389 l 1,0,-1
EndSplineSet
EndChar

StartChar: eng
Encoding: 331 331 21
Width: 582
GlyphClass: 1
Flags: W
LayerCount: 2
Fore
SplineSet
26 64 m 1,0,1
 29 69 29 69 37 78 c 128,-1,2
 45 87 45 87 54.5 97 c 128,-1,3
 64 107 64 107 72.5 115 c 128,-1,4
 81 123 81 123 86 126 c 0,5,6
 89 127 89 127 100 126.5 c 128,-1,7
 111 126 111 126 124.5 125 c 128,-1,8
 138 124 138 124 149.5 124 c 128,-1,9
 161 124 161 124 164 126 c 0,10,11
 168 128 168 128 177.5 136 c 128,-1,12
 187 144 187 144 196.5 153.5 c 128,-1,13
 206 163 206 163 213.5 172 c 128,-1,14
 221 181 221 181 223 186 c 1,15,-1
 26 389 l 1,16,-1
 204 572 l 2,17,18
 204 574 204 574 205 576 c 0,19,20
 205 578 205 578 205.5 579 c 128,-1,21
 206 580 206 580 206 582 c 0,22,23
 206 583 206 583 205.5 584.5 c 128,-1,24
 205 586 205 586 205 588 c 0,25,26
 204 590 204 590 204 593 c 0,27,28
 204 595 204 595 196.5 602 c 128,-1,29
 189 609 189 609 184 613 c 0,30,31
 174 622 174 622 158 635 c 128,-1,32
 142 648 142 648 126.5 661 c 128,-1,33
 111 674 111 674 99 683.5 c 128,-1,34
 87 693 87 693 86 694 c 0,35,36
 84 695 84 695 78 694.5 c 128,-1,37
 72 694 72 694 65.5 693.5 c 128,-1,38
 59 693 59 693 53 693 c 128,-1,39
 47 693 47 693 46 694 c 0,40,41
 43 696 43 696 35.5 703.5 c 128,-1,42
 28 711 28 711 26 715 c 0,43,44
 25 717 25 717 25 719 c 0,45,46
 24 721 24 721 24 724 c 0,47,48
 24 728 24 728 25 730 c 0,49,50
 25 732 25 732 26 734 c 0,51,52
 30 739 30 739 38.5 749 c 128,-1,53
 47 759 47 759 56.5 768.5 c 128,-1,54
 66 778 66 778 74.5 786 c 128,-1,55
 83 794 83 794 86 796 c 0,56,57
 87 796 87 796 94.5 798 c 128,-1,58
 102 800 102 800 105 800 c 0,59,60
 110 800 110 800 116.5 798 c 128,-1,61
 123 796 123 796 125 796 c 2,62,-1
 282 674 l 2,63,64
 284 674 284 674 290.5 673 c 128,-1,65
 297 672 297 672 302 672 c 0,66,67
 305 672 305 672 312.5 673 c 128,-1,68
 320 674 320 674 322 674 c 0,69,70
 326 676 326 676 340.5 687.5 c 128,-1,71
 355 699 355 699 371.5 713 c 128,-1,72
 388 727 388 727 402 739.5 c 128,-1,73
 416 752 416 752 420 755 c 0,74,75
 424 759 424 759 433 765.5 c 128,-1,76
 442 772 442 772 451.5 778.5 c 128,-1,77
 461 785 461 785 469 790 c 128,-1,78
 477 795 477 795 479 796 c 0,79,80
 481 796 481 796 483 797 c 0,81,82
 485 797 485 797 486.5 797.5 c 128,-1,83
 488 798 488 798 489 798 c 256,84,85
 490 798 490 798 491.5 797.5 c 128,-1,86
 493 797 493 797 495 797 c 0,87,88
 497 796 497 796 499 796 c 0,89,90
 503 793 503 793 509.5 787.5 c 128,-1,91
 516 782 516 782 522 775.5 c 128,-1,92
 528 769 528 769 533 763 c 128,-1,93
 538 757 538 757 539 755 c 2,94,-1
 539 747 l 2,95,96
 539 744 539 744 539.5 740 c 128,-1,97
 540 736 540 736 540 734 c 256,98,99
 540 732 540 732 539.5 729 c 128,-1,100
 539 726 539 726 539 723 c 2,101,-1
 539 715 l 2,102,103
 537 711 537 711 531.5 704.5 c 128,-1,104
 526 698 526 698 520 691.5 c 128,-1,105
 514 685 514 685 508 680 c 128,-1,106
 502 675 502 675 499 674 c 256,107,108
 496 673 496 673 484.5 673.5 c 128,-1,109
 473 674 473 674 459.5 674.5 c 128,-1,110
 446 675 446 675 434.5 675 c 128,-1,111
 423 675 423 675 420 674 c 0,112,113
 414 671 414 671 402.5 660 c 128,-1,114
 391 649 391 649 378 636 c 128,-1,115
 365 623 365 623 354.5 611 c 128,-1,116
 344 599 344 599 341 593 c 1,117,118
 344 595 344 595 351.5 595 c 128,-1,119
 359 595 359 595 361 593 c 0,120,121
 362 592 362 592 372 584.5 c 128,-1,122
 382 577 382 577 394.5 567.5 c 128,-1,123
 407 558 407 558 419.5 547.5 c 128,-1,124
 432 537 432 537 440 531 c 0,125,126
 447 526 447 526 461.5 514 c 128,-1,127
 476 502 476 502 491.5 489 c 128,-1,128
 507 476 507 476 520.5 465 c 128,-1,129
 534 454 534 454 539 450 c 0,130,131
 543 447 543 447 550.5 439.5 c 128,-1,132
 558 432 558 432 558 431 c 0,133,134
 558 428 558 428 559 426 c 0,135,136
 559 424 559 424 559.5 422.5 c 128,-1,137
 560 421 560 421 560 420 c 0,138,139
 560 418 560 418 559.5 416.5 c 128,-1,140
 559 415 559 415 559 413 c 0,141,142
 558 411 558 411 558 410 c 2,143,-1
 380 227 l 1,144,-1
 499 105 l 2,145,146
 501 106 501 106 506.5 106 c 128,-1,147
 512 106 512 106 518.5 106 c 128,-1,148
 525 106 525 106 530.5 106 c 128,-1,149
 536 106 536 106 539 105 c 0,150,151
 541 103 541 103 548.5 95.5 c 128,-1,152
 556 88 556 88 558 85 c 0,153,154
 558 83 558 83 559 81 c 0,155,156
 559 79 559 79 559.5 77 c 128,-1,157
 560 75 560 75 560 74 c 256,158,159
 560 73 560 73 559.5 72 c 128,-1,160
 559 71 559 71 559 69 c 0,161,162
 558 67 558 67 558 64 c 2,163,-1
 539 45 l 2,164,165
 534 42 534 42 525 35.5 c 128,-1,166
 516 29 516 29 506.5 22.5 c 128,-1,167
 497 16 497 16 489.5 10.5 c 128,-1,168
 482 5 482 5 479 4 c 0,169,170
 477 3 477 3 475 3 c 0,171,172
 473 2 473 2 470 2 c 0,173,174
 465 2 465 2 463 3 c 0,175,176
 461 3 461 3 459 4 c 2,177,-1
 282 142 l 1,178,-1
 105 4 l 2,179,180
 103 3 103 3 101 3 c 0,181,182
 99 2 99 2 95 2 c 0,183,184
 92 2 92 2 90 3 c 0,185,186
 88 3 88 3 86 4 c 0,187,188
 82 7 82 7 73 15.5 c 128,-1,189
 64 24 64 24 54.5 33.5 c 128,-1,190
 45 43 45 43 37 52 c 128,-1,191
 29 61 29 61 26 64 c 1,0,1
519 105 m 0,192,193
 511 105 511 105 507.5 98.5 c 128,-1,194
 504 92 504 92 504 84.5 c 128,-1,195
 504 77 504 77 507.5 70.5 c 128,-1,196
 511 64 511 64 519 64 c 0,197,198
 526 64 526 64 530 70.5 c 128,-1,199
 534 77 534 77 534 84.5 c 128,-1,200
 534 92 534 92 530 98.5 c 128,-1,201
 526 105 526 105 519 105 c 0,192,193
162 420 m 0,202,203
 162 416 162 416 163 414 c 0,204,205
 163 412 163 412 164 410 c 256,206,207
 165 408 165 408 170 402.5 c 128,-1,208
 175 397 175 397 181 390.5 c 128,-1,209
 187 384 187 384 193.5 378 c 128,-1,210
 200 372 200 372 204 369 c 0,211,212
 210 363 210 363 227 348.5 c 128,-1,213
 244 334 244 334 262.5 317.5 c 128,-1,214
 281 301 281 301 298 287 c 128,-1,215
 315 273 315 273 322 267 c 1,216,-1
 420 369 l 2,217,218
 420 371 420 371 421 373 c 0,219,220
 421 375 421 375 421.5 376.5 c 128,-1,221
 422 378 422 378 422 379 c 256,222,223
 422 380 422 380 421.5 381.5 c 128,-1,224
 421 383 421 383 421 385 c 0,225,226
 420 387 420 387 420 389 c 0,227,228
 417 393 417 393 406.5 404.5 c 128,-1,229
 396 416 396 416 383.5 429 c 128,-1,230
 371 442 371 442 359 454 c 128,-1,231
 347 466 347 466 341 471 c 0,232,233
 333 478 333 478 320 489 c 128,-1,234
 307 500 307 500 294.5 509.5 c 128,-1,235
 282 519 282 519 272.5 525.5 c 128,-1,236
 263 532 263 532 262 531 c 2,237,-1
 164 431 l 2,238,239
 163 428 163 428 163 426 c 0,240,241
 162 423 162 423 162 420 c 0,202,203
380 288 m 0,242,243
 378 292 378 292 373 290.5 c 128,-1,244
 368 289 368 289 364 284.5 c 128,-1,245
 360 280 360 280 358 275 c 128,-1,246
 356 270 356 270 361 267 c 0,247,248
 370 263 370 263 377.5 271 c 128,-1,249
 385 279 385 279 380 288 c 0,242,243
479 410 m 0,250,251
 480 414 480 414 477 416.5 c 128,-1,252
 474 419 474 419 470 419 c 128,-1,253
 466 419 466 419 462.5 416.5 c 128,-1,254
 459 414 459 414 459 410 c 0,255,256
 462 401 462 401 469.5 401 c 128,-1,257
 477 401 477 401 479 410 c 0,250,251
243 552 m 0,258,259
 244 556 244 556 241 558.5 c 128,-1,260
 238 561 238 561 233.5 561 c 128,-1,261
 229 561 229 561 225.5 558.5 c 128,-1,262
 222 556 222 556 223 552 c 0,263,264
 226 543 226 543 233.5 543 c 128,-1,265
 241 543 241 543 243 552 c 0,258,259
380 694 m 256,266,267
 373 694 373 694 369.5 687.5 c 128,-1,268
 366 681 366 681 366 673.5 c 128,-1,269
 366 666 366 666 369.5 659.5 c 128,-1,270
 373 653 373 653 380 653 c 256,271,272
 387 653 387 653 391 659.5 c 128,-1,273
 395 666 395 666 395 673.5 c 128,-1,274
 395 681 395 681 391 687.5 c 128,-1,275
 387 694 387 694 380 694 c 256,266,267
459 755 m 0,276,277
 457 759 457 759 452 757.5 c 128,-1,278
 447 756 447 756 443 751.5 c 128,-1,279
 439 747 439 747 437 742 c 128,-1,280
 435 737 435 737 440 734 c 0,281,282
 449 730 449 730 456.5 738 c 128,-1,283
 464 746 464 746 459 755 c 0,276,277
519 755 m 0,284,285
 511 755 511 755 507.5 748.5 c 128,-1,286
 504 742 504 742 504 734.5 c 128,-1,287
 504 727 504 727 507.5 721 c 128,-1,288
 511 715 511 715 519 715 c 0,289,290
 526 715 526 715 530 721 c 128,-1,291
 534 727 534 727 534 734.5 c 128,-1,292
 534 742 534 742 530 748.5 c 128,-1,293
 526 755 526 755 519 755 c 0,284,285
EndSplineSet
EndChar

StartChar: d
Encoding: 100 100 22
Width: 668
GlyphClass: 1
Flags: W
LayerCount: 2
Fore
SplineSet
55 263 m 2,0,1
 57 264 57 264 60.5 270 c 128,-1,2
 64 276 64 276 67 282.5 c 128,-1,3
 70 289 70 289 72.5 295 c 128,-1,4
 75 301 75 301 75 304 c 0,5,6
 75 308 75 308 72.5 317 c 128,-1,7
 70 326 70 326 67 336 c 128,-1,8
 64 346 64 346 60.5 355 c 128,-1,9
 57 364 57 364 55 367 c 2,10,-1
 55 675 l 1,11,-1
 16 756 l 2,12,13
 16 758 16 758 23.5 766 c 128,-1,14
 31 774 31 774 35 777 c 0,15,16
 38 778 38 778 44 781.5 c 128,-1,17
 50 785 50 785 56.5 788.5 c 128,-1,18
 63 792 63 792 68 794.5 c 128,-1,19
 73 797 73 797 75 798 c 0,20,21
 77 798 77 798 84.5 799 c 128,-1,22
 92 800 92 800 97 800 c 0,23,24
 99 800 99 800 101.5 799.5 c 128,-1,25
 104 799 104 799 107 799 c 0,26,27
 111 798 111 798 115 798 c 0,28,29
 116 797 116 797 119.5 792 c 128,-1,30
 123 787 123 787 126 780.5 c 128,-1,31
 129 774 129 774 131.5 767 c 128,-1,32
 134 760 134 760 135 756 c 0,33,34
 136 751 136 751 139 730 c 128,-1,35
 142 709 142 709 145 684.5 c 128,-1,36
 148 660 148 660 150.5 639 c 128,-1,37
 153 618 153 618 155 613 c 0,38,39
 155 611 155 611 162.5 603 c 128,-1,40
 170 595 170 595 175 592 c 0,41,42
 181 587 181 587 197 575.5 c 128,-1,43
 213 564 213 564 232 551 c 128,-1,44
 251 538 251 538 268 526 c 128,-1,45
 285 514 285 514 293 510 c 0,46,47
 296 508 296 508 302 505 c 128,-1,48
 308 502 308 502 314.5 499 c 128,-1,49
 321 496 321 496 326 493.5 c 128,-1,50
 331 491 331 491 332 490 c 0,51,52
 334 490 334 490 342 488.5 c 128,-1,53
 350 487 350 487 354 487 c 0,54,55
 356 487 356 487 358.5 487 c 128,-1,56
 361 487 361 487 364 488 c 2,57,-1
 372 490 l 2,58,59
 373 491 373 491 385.5 500.5 c 128,-1,60
 398 510 398 510 413.5 523 c 128,-1,61
 429 536 429 536 445.5 549.5 c 128,-1,62
 462 563 462 563 472 572 c 0,63,64
 474 574 474 574 477 577.5 c 128,-1,65
 480 581 480 581 483 584 c 2,66,-1
 491 592 l 1,67,-1
 491 756 l 2,68,69
 491 759 491 759 495.5 764.5 c 128,-1,70
 500 770 500 770 506.5 777 c 128,-1,71
 513 784 513 784 519.5 789.5 c 128,-1,72
 526 795 526 795 530 798 c 0,73,74
 534 798 534 798 538 799 c 0,75,76
 541 799 541 799 544.5 799.5 c 128,-1,77
 548 800 548 800 550 800 c 0,78,79
 554 800 554 800 561 799 c 128,-1,80
 568 798 568 798 570 798 c 0,81,82
 576 795 576 795 584.5 789.5 c 128,-1,83
 593 784 593 784 601 777 c 128,-1,84
 609 770 609 770 614.5 764.5 c 128,-1,85
 620 759 620 759 620 756 c 2,86,-1
 620 100 l 2,87,88
 623 97 623 97 627.5 88 c 128,-1,89
 632 79 632 79 636.5 69 c 128,-1,90
 641 59 641 59 644.5 50 c 128,-1,91
 648 41 648 41 649 38 c 0,92,93
 649 36 649 36 641.5 28 c 128,-1,94
 634 20 634 20 630 17 c 0,95,96
 627 15 627 15 621 12 c 128,-1,97
 615 9 615 9 608.5 5.5 c 128,-1,98
 602 2 602 2 596.5 -0.5 c 128,-1,99
 591 -3 591 -3 590 -4 c 0,100,101
 588 -4 588 -4 580.5 -5 c 128,-1,102
 573 -6 573 -6 568 -6 c 0,103,104
 566 -6 566 -6 563 -6 c 128,-1,105
 560 -6 560 -6 557 -5 c 0,106,107
 553 -5 553 -5 550 -4 c 0,108,109
 548 -2 548 -2 545.5 3.5 c 128,-1,110
 543 9 543 9 540 15.5 c 128,-1,111
 537 22 537 22 534 28.5 c 128,-1,112
 531 35 531 35 530 38 c 256,113,114
 529 41 529 41 529.5 53 c 128,-1,115
 530 65 530 65 530.5 78.5 c 128,-1,116
 531 92 531 92 531 104 c 128,-1,117
 531 116 531 116 530 119 c 0,118,119
 530 121 530 121 521 129.5 c 128,-1,120
 512 138 512 138 510 140 c 0,121,122
 509 142 509 142 509 145 c 0,123,124
 508 147 508 147 508 151 c 256,125,126
 508 155 508 155 509 157 c 0,127,128
 509 159 509 159 510 161 c 0,129,130
 512 164 512 164 519.5 171.5 c 128,-1,131
 527 179 527 179 530 181 c 1,132,133
 527 185 527 185 519 194 c 128,-1,134
 511 203 511 203 501.5 213 c 128,-1,135
 492 223 492 223 483.5 231.5 c 128,-1,136
 475 240 475 240 472 243 c 0,137,138
 464 249 464 249 444.5 264 c 128,-1,139
 425 279 425 279 402.5 295.5 c 128,-1,140
 380 312 380 312 360 326.5 c 128,-1,141
 340 341 340 341 332 346 c 0,142,143
 331 346 331 346 328 347 c 128,-1,144
 325 348 325 348 323 348 c 256,145,146
 321 348 321 348 320 347.5 c 128,-1,147
 319 347 319 347 317 347 c 0,148,149
 315 346 315 346 313 346 c 0,150,151
 309 344 309 344 300.5 338.5 c 128,-1,152
 292 333 292 333 282.5 326.5 c 128,-1,153
 273 320 273 320 264.5 313.5 c 128,-1,154
 256 307 256 307 253 304 c 0,155,156
 243 295 243 295 227 279 c 128,-1,157
 211 263 211 263 195.5 246.5 c 128,-1,158
 180 230 180 230 168 217.5 c 128,-1,159
 156 205 156 205 155 202 c 0,160,161
 154 193 154 193 153 184 c 0,162,163
 152 176 152 176 152 168.5 c 128,-1,164
 152 161 152 161 152 156 c 256,165,166
 152 151 152 151 152.5 142.5 c 128,-1,167
 153 134 153 134 153.5 125 c 128,-1,168
 154 116 154 116 154.5 108.5 c 128,-1,169
 155 101 155 101 155 100 c 0,170,171
 155 97 155 97 158 88 c 128,-1,172
 161 79 161 79 165 68.5 c 128,-1,173
 169 58 169 58 172 49 c 128,-1,174
 175 40 175 40 175 38 c 256,175,176
 175 36 175 36 167 28 c 128,-1,177
 159 20 159 20 155 17 c 0,178,179
 148 14 148 14 133 6 c 128,-1,180
 118 -2 118 -2 115 -4 c 0,181,182
 113 -4 113 -4 105.5 -5 c 128,-1,183
 98 -6 98 -6 93 -6 c 0,184,185
 86 -6 86 -6 82 -5 c 0,186,187
 78 -5 78 -5 75 -4 c 0,188,189
 73 -2 73 -2 69.5 3.5 c 128,-1,190
 66 9 66 9 63 15.5 c 128,-1,191
 60 22 60 22 57.5 28.5 c 128,-1,192
 55 35 55 35 55 38 c 2,193,-1
 55 263 l 2,0,1
155 321 m 1,194,195
 157 321 157 321 165 323 c 128,-1,196
 173 325 173 325 175 325 c 0,197,198
 178 326 178 326 183.5 328.5 c 128,-1,199
 189 331 189 331 195.5 334.5 c 128,-1,200
 202 338 202 338 207 341 c 128,-1,201
 212 344 212 344 213 346 c 0,202,203
 216 348 216 348 222.5 354 c 128,-1,204
 229 360 229 360 235 366.5 c 128,-1,205
 241 373 241 373 246 379 c 128,-1,206
 251 385 251 385 253 387 c 0,207,208
 253 389 253 389 254 391 c 0,209,210
 254 393 254 393 254.5 394.5 c 128,-1,211
 255 396 255 396 255 397 c 256,212,213
 255 398 255 398 254.5 399.5 c 128,-1,214
 254 401 254 401 254 403 c 0,215,216
 253 405 253 405 253 408 c 0,217,218
 250 411 250 411 242 417 c 128,-1,219
 234 423 234 423 224.5 429.5 c 128,-1,220
 215 436 215 436 206 441.5 c 128,-1,221
 197 447 197 447 193 448 c 0,222,223
 192 448 192 448 184.5 449 c 128,-1,224
 177 450 177 450 175 450 c 0,225,226
 171 450 171 450 164 449 c 128,-1,227
 157 448 157 448 155 448 c 1,228,-1
 155 321 l 1,194,195
410 438 m 256,229,230
 410 434 410 434 411 432 c 0,231,232
 411 429 411 429 412 427 c 0,233,234
 414 426 414 426 421.5 418 c 128,-1,235
 429 410 429 410 432 408 c 0,236,237
 436 405 436 405 445 398.5 c 128,-1,238
 454 392 454 392 463.5 385.5 c 128,-1,239
 473 379 473 379 481 373.5 c 128,-1,240
 489 368 489 368 491 367 c 0,241,242
 492 366 492 366 495 365 c 0,243,244
 497 364 497 364 499 364 c 128,-1,245
 501 364 501 364 503 364 c 256,246,247
 505 364 505 364 507 365 c 0,248,249
 508 366 508 366 510 367 c 0,250,251
 513 370 513 370 516.5 379 c 128,-1,252
 520 388 520 388 523 397.5 c 128,-1,253
 526 407 526 407 528 415.5 c 128,-1,254
 530 424 530 424 530 427 c 0,255,256
 530 432 530 432 522.5 440 c 128,-1,257
 515 448 515 448 510 448 c 1,258,-1
 550 510 l 1,259,260
 547 510 547 510 535.5 511 c 128,-1,261
 524 512 524 512 521 512 c 0,262,263
 515 512 515 512 504 511 c 128,-1,264
 493 510 493 510 491 510 c 0,265,266
 489 509 489 509 481.5 504 c 128,-1,267
 474 499 474 499 464.5 492.5 c 128,-1,268
 455 486 455 486 446 479.5 c 128,-1,269
 437 473 437 473 432 469 c 0,270,271
 429 466 429 466 421.5 458 c 128,-1,272
 414 450 414 450 412 448 c 0,273,274
 411 446 411 446 411 444 c 0,275,276
 410 442 410 442 410 438 c 256,229,230
352 427 m 0,277,278
 344 427 344 427 340.5 420.5 c 128,-1,279
 337 414 337 414 337 406.5 c 128,-1,280
 337 399 337 399 340.5 393 c 128,-1,281
 344 387 344 387 352 387 c 0,282,283
 359 387 359 387 363 393 c 128,-1,284
 367 399 367 399 367 406.5 c 128,-1,285
 367 414 367 414 363 420.5 c 128,-1,286
 359 427 359 427 352 427 c 0,277,278
EndSplineSet
EndChar

StartChar: oe
Encoding: 339 339 23
Width: 580
GlyphClass: 1
Flags: W
LayerCount: 2
Fore
SplineSet
38 85 m 1,0,1
 41 88 41 88 49 94.5 c 128,-1,2
 57 101 57 101 66 107.5 c 128,-1,3
 75 114 75 114 83 119.5 c 128,-1,4
 91 125 91 125 94 126 c 256,5,6
 97 127 97 127 108.5 126.5 c 128,-1,7
 120 126 120 126 133 126 c 128,-1,8
 146 126 146 126 157 125.5 c 128,-1,9
 168 125 168 125 171 126 c 0,10,11
 173 126 173 126 180 134 c 128,-1,12
 187 142 187 142 190 147 c 0,13,14
 196 155 196 155 206 169 c 128,-1,15
 216 183 216 183 225 196 c 0,16,17
 236 211 236 211 247 227 c 1,18,-1
 11 503 l 1,19,-1
 285 795 l 2,20,21
 287 797 287 797 293.5 798.5 c 128,-1,22
 300 800 300 800 304 800 c 0,23,24
 307 800 307 800 314.5 798.5 c 128,-1,25
 322 797 322 797 324 795 c 0,26,27
 325 794 325 794 334 784 c 128,-1,28
 343 774 343 774 355 761.5 c 128,-1,29
 367 749 367 749 379.5 735.5 c 128,-1,30
 392 722 392 722 399 715 c 0,31,32
 416 695 416 695 442 664.5 c 128,-1,33
 468 634 468 634 492.5 604.5 c 128,-1,34
 517 575 517 575 534.5 554 c 128,-1,35
 552 533 552 533 552 532 c 2,36,-1
 552 511 l 1,37,-1
 354 258 l 1,38,-1
 476 95 l 1,39,-1
 552 95 l 1,40,41
 550 89 550 89 542.5 76 c 128,-1,42
 535 63 535 63 525.5 49 c 128,-1,43
 516 35 516 35 507 22 c 128,-1,44
 498 9 498 9 494 5 c 0,45,46
 493 3 493 3 485.5 1.5 c 128,-1,47
 478 0 478 0 476 0 c 0,48,49
 473 0 473 0 466 1.5 c 128,-1,50
 459 3 459 3 457 5 c 2,51,-1
 285 188 l 1,52,-1
 113 5 l 1,53,-1
 109 3 l 2,54,55
 107 2 107 2 104 2 c 256,56,57
 101 2 101 2 99 3 c 256,58,59
 97 4 97 4 94 5 c 256,60,61
 91 6 91 6 85.5 11.5 c 128,-1,62
 80 17 80 17 74 23.5 c 128,-1,63
 68 30 68 30 63 36 c 128,-1,64
 58 42 58 42 57 45 c 0,65,66
 55 47 55 47 56 55.5 c 128,-1,67
 57 64 57 64 57 66 c 0,68,69
 55 68 55 68 47.5 76 c 128,-1,70
 40 84 40 84 38 85 c 1,0,1
514 66 m 0,71,72
 512 70 512 70 507 68 c 128,-1,73
 502 66 502 66 498 61.5 c 128,-1,74
 494 57 494 57 492 52 c 128,-1,75
 490 47 490 47 494 45 c 0,76,77
 503 40 503 40 511 48 c 128,-1,78
 519 56 519 56 514 66 c 0,71,72
228 390 m 1,79,80
 231 385 231 385 241.5 373 c 128,-1,81
 252 361 252 361 264.5 348 c 128,-1,82
 277 335 277 335 288 324 c 128,-1,83
 299 313 299 313 304 309 c 0,84,85
 306 308 306 308 308 308 c 0,86,87
 310 307 310 307 314 307 c 0,88,89
 316 307 316 307 319 308 c 128,-1,90
 322 309 322 309 324 309 c 0,91,92
 330 314 330 314 343.5 328.5 c 128,-1,93
 357 343 357 343 372 359 c 128,-1,94
 387 375 387 375 400.5 389.5 c 128,-1,95
 414 404 414 404 419 410 c 0,96,97
 423 416 423 416 429.5 425.5 c 128,-1,98
 436 435 436 435 442 444.5 c 128,-1,99
 448 454 448 454 452.5 462 c 128,-1,100
 457 470 457 470 457 472 c 0,101,102
 457 473 457 473 452.5 480.5 c 128,-1,103
 448 488 448 488 442 498 c 128,-1,104
 436 508 436 508 429.5 517.5 c 128,-1,105
 423 527 423 527 419 532 c 0,106,107
 411 542 411 542 389.5 565.5 c 128,-1,108
 368 589 368 589 343.5 615 c 128,-1,109
 319 641 319 641 297 663.5 c 128,-1,110
 275 686 275 686 266 694 c 1,111,-1
 133 552 l 2,112,113
 132 551 132 551 132 549 c 0,114,115
 131 547 131 547 131 544 c 0,116,117
 131 542 131 542 131 540 c 128,-1,118
 131 538 131 538 132 536 c 0,119,120
 132 533 132 533 133 532 c 0,121,122
 134 530 134 530 136.5 525 c 128,-1,123
 139 520 139 520 142 513.5 c 128,-1,124
 145 507 145 507 147.5 501 c 128,-1,125
 150 495 150 495 152 492 c 0,126,127
 154 488 154 488 159.5 479 c 128,-1,128
 165 470 165 470 171 460.5 c 128,-1,129
 177 451 177 451 182.5 442.5 c 128,-1,130
 188 434 188 434 190 431 c 1,131,132
 187 429 187 429 180 421.5 c 128,-1,133
 173 414 173 414 171 410 c 0,134,135
 170 408 170 408 169 401.5 c 128,-1,136
 168 395 168 395 167.5 387 c 128,-1,137
 167 379 167 379 166.5 372.5 c 128,-1,138
 166 366 166 366 166 364 c 1,139,140
 168 364 168 364 174 364.5 c 128,-1,141
 180 365 180 365 187 366 c 128,-1,142
 194 367 194 367 200.5 368 c 128,-1,143
 207 369 207 369 209 369 c 0,144,145
 212 371 212 371 219.5 379 c 128,-1,146
 227 387 227 387 228 390 c 1,79,80
209 431 m 256,147,148
 216 431 216 431 219.5 424.5 c 128,-1,149
 223 418 223 418 223 410.5 c 128,-1,150
 223 403 223 403 219.5 396.5 c 128,-1,151
 216 390 216 390 209 390 c 256,152,153
 202 390 202 390 198.5 396.5 c 128,-1,154
 195 403 195 403 195 410.5 c 128,-1,155
 195 418 195 418 198.5 424.5 c 128,-1,156
 202 431 202 431 209 431 c 256,147,148
247 715 m 0,157,158
 248 719 248 719 245.5 721.5 c 128,-1,159
 243 724 243 724 239 724 c 128,-1,160
 235 724 235 724 231.5 721.5 c 128,-1,161
 228 719 228 719 228 715 c 0,162,163
 231 705 231 705 238.5 705 c 128,-1,164
 246 705 246 705 247 715 c 0,157,158
EndSplineSet
EndChar

StartChar: a
Encoding: 97 97 24
Width: 584
GlyphClass: 1
Flags: W
LayerCount: 2
Fore
SplineSet
67 179 m 1,0,-1
 67 59 l 1,1,-1
 38 699 l 2,2,3
 35 700 35 700 31.5 705.5 c 128,-1,4
 28 711 28 711 25 717.5 c 128,-1,5
 22 724 22 724 20 730 c 128,-1,6
 18 736 18 736 19 739 c 0,7,8
 19 740 19 740 23.5 745.5 c 128,-1,9
 28 751 28 751 34 757.5 c 128,-1,10
 40 764 40 764 46.5 770 c 128,-1,11
 53 776 53 776 58 779 c 0,12,13
 59 780 59 780 64 783.5 c 128,-1,14
 69 787 69 787 75 790 c 128,-1,15
 81 793 81 793 87 796 c 128,-1,16
 93 799 93 799 96 799 c 2,17,-1
 106 799 l 1,18,-1
 115 799 l 1,19,20
 121 795 121 795 137 784 c 128,-1,21
 153 773 153 773 172 760.5 c 128,-1,22
 191 748 191 748 207.5 736.5 c 128,-1,23
 224 725 224 725 232 720 c 0,24,25
 235 717 235 717 241 711.5 c 128,-1,26
 247 706 247 706 253 699.5 c 128,-1,27
 259 693 259 693 264 687 c 128,-1,28
 269 681 269 681 271 679 c 256,29,30
 273 677 273 677 268.5 678 c 128,-1,31
 264 679 264 679 264 677 c 1,32,33
 268 677 268 677 280.5 673.5 c 128,-1,34
 293 670 293 670 306.5 666 c 128,-1,35
 320 662 320 662 332 659.5 c 128,-1,36
 344 657 344 657 349 659 c 0,37,38
 357 663 357 663 377 676 c 128,-1,39
 397 689 397 689 418.5 705 c 128,-1,40
 440 721 440 721 459 736 c 128,-1,41
 478 751 478 751 484 759 c 0,42,43
 486 759 486 759 493 760 c 128,-1,44
 500 761 500 761 503 761 c 0,45,46
 505 761 505 761 509 760.5 c 128,-1,47
 513 760 513 760 516 760 c 0,48,49
 520 759 520 759 523 759 c 0,50,51
 525 758 525 758 530.5 753.5 c 128,-1,52
 536 749 536 749 542.5 742.5 c 128,-1,53
 549 736 549 736 554.5 730 c 128,-1,54
 560 724 560 724 562 720 c 2,55,-1
 562 715 l 1,56,-1
 562 712 l 2,57,58
 562 711 562 711 563 710 c 0,59,60
 563 709 563 709 562.5 707.5 c 128,-1,61
 562 706 562 706 562 704 c 2,62,-1
 562 699 l 2,63,64
 560 695 560 695 554.5 688.5 c 128,-1,65
 549 682 549 682 542.5 676 c 128,-1,66
 536 670 536 670 530.5 665 c 128,-1,67
 525 660 525 660 523 659 c 0,68,69
 520 658 520 658 508.5 658.5 c 128,-1,70
 497 659 497 659 484 659 c 128,-1,71
 471 659 471 659 460 659.5 c 128,-1,72
 449 660 449 660 446 659 c 0,73,74
 442 657 442 657 430 648.5 c 128,-1,75
 418 640 418 640 405.5 630 c 128,-1,76
 393 620 393 620 382 611 c 128,-1,77
 371 602 371 602 368 600 c 0,78,79
 363 596 363 596 353.5 589.5 c 128,-1,80
 344 583 344 583 334.5 576.5 c 128,-1,81
 325 570 325 570 317.5 565 c 128,-1,82
 310 560 310 560 309 559 c 0,83,84
 307 558 307 558 305 558 c 0,85,86
 303 557 303 557 300 557 c 0,87,88
 296 557 296 557 294 558 c 0,89,90
 292 558 292 558 290 559 c 0,91,92
 287 561 287 561 280 568.5 c 128,-1,93
 273 576 273 576 271 579 c 256,94,95
 269 582 269 582 272 593 c 128,-1,96
 275 604 275 604 275 607 c 1,97,98
 273 607 273 607 266.5 605.5 c 128,-1,99
 260 604 260 604 253.5 602.5 c 128,-1,100
 247 601 247 601 240.5 600 c 128,-1,101
 234 599 234 599 232 600 c 0,102,103
 228 601 228 601 219.5 606.5 c 128,-1,104
 211 612 211 612 202 618 c 128,-1,105
 193 624 193 624 185 630 c 128,-1,106
 177 636 177 636 174 639 c 1,107,108
 173 635 173 635 172 625 c 128,-1,109
 171 615 171 615 170 604 c 128,-1,110
 169 593 169 593 168.5 583 c 128,-1,111
 168 573 168 573 168 569 c 0,112,113
 168 562 168 562 168.5 550.5 c 128,-1,114
 169 539 169 539 170 528 c 128,-1,115
 171 517 171 517 172 508.5 c 128,-1,116
 173 500 173 500 174 499 c 0,117,118
 175 497 175 497 184 489.5 c 128,-1,119
 193 482 193 482 205.5 472.5 c 128,-1,120
 218 463 218 463 231 453.5 c 128,-1,121
 244 444 244 444 252 439 c 0,122,123
 255 437 255 437 266 431 c 128,-1,124
 277 425 277 425 290 418.5 c 128,-1,125
 303 412 303 412 314 406 c 128,-1,126
 325 400 325 400 328 399 c 0,127,128
 331 397 331 397 337.5 392 c 128,-1,129
 344 387 344 387 350 380.5 c 128,-1,130
 356 374 356 374 361 367.5 c 128,-1,131
 366 361 366 361 368 358 c 0,132,133
 368 356 368 356 369 354 c 0,134,135
 369 352 369 352 369.5 351 c 128,-1,136
 370 350 370 350 370 349 c 0,137,138
 370 347 370 347 369.5 346 c 128,-1,139
 369 345 369 345 369 343 c 0,140,141
 368 341 368 341 368 339 c 0,142,143
 365 335 365 335 359.5 328.5 c 128,-1,144
 354 322 354 322 348 316 c 128,-1,145
 342 310 342 310 336.5 305 c 128,-1,146
 331 300 331 300 328 299 c 0,147,148
 327 299 327 299 317 298 c 128,-1,149
 307 297 307 297 302 297 c 0,150,151
 296 297 296 297 284.5 298 c 128,-1,152
 273 299 273 299 271 299 c 0,153,154
 268 301 268 301 261 308 c 128,-1,155
 254 315 254 315 252 319 c 1,156,-1
 290 339 l 1,157,-1
 232 339 l 1,158,-1
 232 358 l 1,159,-1
 174 358 l 1,160,-1
 174 38 l 2,161,162
 174 37 174 37 166.5 29.5 c 128,-1,163
 159 22 159 22 155 18 c 0,164,165
 152 17 152 17 146.5 14 c 128,-1,166
 141 11 141 11 135 8 c 128,-1,167
 129 5 129 5 123.5 2 c 128,-1,168
 118 -1 118 -1 115 -2 c 0,169,170
 114 -2 114 -2 108.5 -4 c 128,-1,171
 103 -6 103 -6 100 -6 c 1,172,173
 100 -3 100 -3 99 6.5 c 128,-1,174
 98 16 98 16 96 18 c 0,175,176
 94 22 94 22 87 29.5 c 128,-1,177
 80 37 80 37 77 38 c 2,178,-1
 67 179 l 1,0,-1
77 219 m 1,179,-1
 96 219 l 1,180,-1
 77 279 l 1,181,-1
 77 219 l 1,179,-1
77 358 m 1,182,-1
 96 358 l 1,183,-1
 96 379 l 1,184,-1
 77 379 l 1,185,-1
 77 358 l 1,182,-1
77 434 m 1,186,187
 80 434 80 434 87 435.5 c 128,-1,188
 94 437 94 437 96 439 c 0,189,190
 99 441 99 441 106.5 448.5 c 128,-1,191
 114 456 114 456 115 459 c 0,192,193
 117 462 117 462 118 469.5 c 128,-1,194
 119 477 119 477 119 478 c 1,195,-1
 77 478 l 1,196,-1
 77 434 l 1,186,187
77 619 m 0,197,198
 72 620 72 620 70 617 c 128,-1,199
 68 614 68 614 68 610 c 128,-1,200
 68 606 68 606 70 602.5 c 128,-1,201
 72 599 72 599 77 600 c 0,202,203
 85 602 85 602 85 609.5 c 128,-1,204
 85 617 85 617 77 619 c 0,197,198
387 679 m 256,205,206
 380 679 380 679 376.5 672.5 c 128,-1,207
 373 666 373 666 373 658.5 c 128,-1,208
 373 651 373 651 376.5 645 c 128,-1,209
 380 639 380 639 387 639 c 256,210,211
 394 639 394 639 397.5 645 c 128,-1,212
 401 651 401 651 401 658.5 c 128,-1,213
 401 666 401 666 397.5 672.5 c 128,-1,214
 394 679 394 679 387 679 c 256,205,206
484 739 m 0,215,216
 482 744 482 744 477 742.5 c 128,-1,217
 472 741 472 741 468 736.5 c 128,-1,218
 464 732 464 732 462 727 c 128,-1,219
 460 722 460 722 465 720 c 0,220,221
 474 715 474 715 481 722.5 c 128,-1,222
 488 730 488 730 484 739 c 0,215,216
77 779 m 256,223,224
 70 779 70 779 66.5 772.5 c 128,-1,225
 63 766 63 766 63 758.5 c 128,-1,226
 63 751 63 751 66.5 745 c 128,-1,227
 70 739 70 739 77 739 c 256,228,229
 84 739 84 739 87.5 745 c 128,-1,230
 91 751 91 751 91 758.5 c 128,-1,231
 91 766 91 766 87.5 772.5 c 128,-1,232
 84 779 84 779 77 779 c 256,223,224
EndSplineSet
EndChar

StartChar: ae
Encoding: 230 230 25
Width: 568
GlyphClass: 1
Flags: W
LayerCount: 2
Fore
SplineSet
59 59 m 2,0,1
 61 60 61 60 68.5 68 c 128,-1,2
 76 76 76 76 78 78 c 0,3,4
 80 81 80 81 77 86.5 c 128,-1,5
 74 92 74 92 74 94 c 1,6,7
 72 94 72 94 66.5 97.5 c 128,-1,8
 61 101 61 101 59 99 c 0,9,10
 56 98 56 98 50.5 95 c 128,-1,11
 45 92 45 92 38.5 89 c 128,-1,12
 32 86 32 86 26.5 82.5 c 128,-1,13
 21 79 21 79 19 78 c 1,14,-1
 19 759 l 2,15,16
 19 760 19 760 28 765 c 128,-1,17
 37 770 37 770 49.5 776 c 128,-1,18
 62 782 62 782 76 788.5 c 128,-1,19
 90 795 90 795 99 799 c 1,20,-1
 108 799 l 1,21,-1
 118 799 l 1,22,23
 131 793 131 793 159.5 780.5 c 128,-1,24
 188 768 188 768 223.5 752 c 128,-1,25
 259 736 259 736 298 719 c 128,-1,26
 337 702 337 702 372.5 686 c 128,-1,27
 408 670 408 670 436 657.5 c 128,-1,28
 464 645 464 645 477 639 c 0,29,30
 479 638 479 638 488 635.5 c 128,-1,31
 497 633 497 633 507 629.5 c 128,-1,32
 517 626 517 626 526 623 c 128,-1,33
 535 620 535 620 537 618 c 0,34,35
 538 617 538 617 537 614.5 c 128,-1,36
 536 612 536 612 533.5 609 c 128,-1,37
 531 606 531 606 529 603 c 128,-1,38
 527 600 527 600 527 599 c 1,39,-1
 557 599 l 1,40,-1
 557 578 l 1,41,-1
 477 538 l 1,42,-1
 158 679 l 1,43,-1
 158 498 l 2,44,45
 158 497 158 497 167 492 c 128,-1,46
 176 487 176 487 189 481 c 128,-1,47
 202 475 202 475 215 468.5 c 128,-1,48
 228 462 228 462 237 459 c 0,49,50
 241 457 241 457 254.5 451.5 c 128,-1,51
 268 446 268 446 284 439.5 c 128,-1,52
 300 433 300 433 315 427.5 c 128,-1,53
 330 422 330 422 338 419 c 0,54,55
 340 418 340 418 348.5 415 c 128,-1,56
 357 412 357 412 367 409 c 128,-1,57
 377 406 377 406 386 402.5 c 128,-1,58
 395 399 395 399 397 398 c 0,59,60
 399 398 399 398 400 394 c 128,-1,61
 401 390 401 390 401 388 c 0,62,63
 401 383 401 383 397 379 c 256,64,65
 393 375 393 375 382 368.5 c 128,-1,66
 371 362 371 362 358.5 356 c 128,-1,67
 346 350 346 350 334 345 c 128,-1,68
 322 340 322 340 317 339 c 2,69,70
 317 339 317 339 310 341.5 c 128,-1,71
 303 344 303 344 293.5 347 c 128,-1,72
 284 350 284 350 274 353 c 128,-1,73
 264 356 264 356 258 358 c 256,74,75
 252 360 252 360 237.5 366 c 128,-1,76
 223 372 223 372 207 378.5 c 128,-1,77
 191 385 191 385 177 390.5 c 128,-1,78
 163 396 163 396 158 398 c 1,79,-1
 158 99 l 2,80,81
 159 96 159 96 162.5 90.5 c 128,-1,82
 166 85 166 85 169 78.5 c 128,-1,83
 172 72 172 72 174.5 66.5 c 128,-1,84
 177 61 177 61 178 59 c 2,85,-1
 178 48 l 1,86,-1
 178 38 l 2,87,88
 176 36 176 36 168.5 28.5 c 128,-1,89
 161 21 161 21 158 19 c 256,90,91
 155 17 155 17 149 14 c 128,-1,92
 143 11 143 11 136.5 7.5 c 128,-1,93
 130 4 130 4 124.5 1.5 c 128,-1,94
 119 -1 119 -1 118 -2 c 0,95,96
 116 -2 116 -2 108.5 -3 c 128,-1,97
 101 -4 101 -4 96 -4 c 0,98,99
 94 -4 94 -4 91 -4 c 128,-1,100
 88 -4 88 -4 85 -3 c 0,101,102
 81 -3 81 -3 78 -2 c 0,103,104
 77 -1 77 -1 74.5 4 c 128,-1,105
 72 9 72 9 69 15 c 128,-1,106
 66 21 66 21 63 27.5 c 128,-1,107
 60 34 60 34 59 38 c 2,108,-1
 59 48 l 1,109,-1
 59 59 l 2,0,1
99 38 m 0,110,111
 91 38 91 38 87 31.5 c 128,-1,112
 83 25 83 25 83 17.5 c 128,-1,113
 83 10 83 10 87 4 c 128,-1,114
 91 -2 91 -2 99 -2 c 0,115,116
 106 -2 106 -2 109.5 4 c 128,-1,117
 113 10 113 10 113 17.5 c 128,-1,118
 113 25 113 25 109.5 31.5 c 128,-1,119
 106 38 106 38 99 38 c 0,110,111
59 179 m 1,120,121
 61 180 61 180 64 185 c 128,-1,122
 67 190 67 190 70 196.5 c 128,-1,123
 73 203 73 203 75.5 209.5 c 128,-1,124
 78 216 78 216 78 219 c 0,125,126
 78 223 78 223 70.5 230.5 c 128,-1,127
 63 238 63 238 59 238 c 1,128,-1
 59 179 l 1,120,121
99 498 m 0,129,130
 95 496 95 496 87.5 488.5 c 128,-1,131
 80 481 80 481 78 479 c 0,132,133
 75 474 75 474 68 458.5 c 128,-1,134
 61 443 61 443 59 438 c 1,135,-1
 144 438 l 1,136,137
 144 441 144 441 142 449 c 128,-1,138
 140 457 140 457 138 459 c 0,139,140
 136 462 136 462 131 467.5 c 128,-1,141
 126 473 126 473 119.5 479.5 c 128,-1,142
 113 486 113 486 107.5 491 c 128,-1,143
 102 496 102 496 99 498 c 0,129,130
99 639 m 0,144,145
 91 639 91 639 87 632.5 c 128,-1,146
 83 626 83 626 83 618.5 c 128,-1,147
 83 611 83 611 87 605 c 128,-1,148
 91 599 91 599 99 599 c 0,149,150
 106 599 106 599 109.5 605 c 128,-1,151
 113 611 113 611 113 618.5 c 128,-1,152
 113 626 113 626 109.5 632.5 c 128,-1,153
 106 639 106 639 99 639 c 0,144,145
59 679 m 0,154,155
 51 679 51 679 47 672.5 c 128,-1,156
 43 666 43 666 43 658.5 c 128,-1,157
 43 651 43 651 47 645 c 128,-1,158
 51 639 51 639 59 639 c 0,159,160
 66 639 66 639 69.5 645 c 128,-1,161
 73 651 73 651 73 658.5 c 128,-1,162
 73 666 73 666 69.5 672.5 c 128,-1,163
 66 679 66 679 59 679 c 0,154,155
EndSplineSet
EndChar

StartChar: y
Encoding: 121 121 26
Width: 578
GlyphClass: 1
Flags: W
LayerCount: 2
Fore
SplineSet
55 83 m 0,0,1
 50 83 50 83 39 75.5 c 128,-1,2
 28 68 28 68 26 63 c 1,3,-1
 26 756 l 2,4,5
 26 758 26 758 31.5 763.5 c 128,-1,6
 37 769 37 769 44.5 775.5 c 128,-1,7
 52 782 52 782 60.5 788 c 128,-1,8
 69 794 69 794 74 797 c 0,9,10
 76 797 76 797 78 798 c 0,11,12
 80 798 80 798 81 798.5 c 128,-1,13
 82 799 82 799 84 799 c 256,14,15
 86 799 86 799 88.5 798 c 128,-1,16
 91 797 91 797 93 797 c 0,17,18
 97 792 97 792 105 778 c 128,-1,19
 113 764 113 764 122 748 c 128,-1,20
 131 732 131 732 139 718 c 128,-1,21
 147 704 147 704 150 698 c 0,22,23
 162 677 162 677 186 633.5 c 128,-1,24
 210 590 210 590 240 535 c 128,-1,25
 270 480 270 480 303.5 419.5 c 128,-1,26
 337 359 337 359 367 304.5 c 128,-1,27
 397 250 397 250 421 206.5 c 128,-1,28
 445 163 445 163 456 143 c 0,29,30
 458 139 458 139 465.5 131.5 c 128,-1,31
 473 124 473 124 475 123 c 256,32,33
 477 122 477 122 482.5 119 c 128,-1,34
 488 116 488 116 494.5 112.5 c 128,-1,35
 501 109 501 109 506.5 106 c 128,-1,36
 512 103 512 103 514 102 c 0,37,38
 517 100 517 100 522.5 94.5 c 128,-1,39
 528 89 528 89 534 83 c 128,-1,40
 540 77 540 77 545 71 c 128,-1,41
 550 65 550 65 552 63 c 0,42,43
 552 61 552 61 553 59 c 0,44,45
 553 57 553 57 553.5 55.5 c 128,-1,46
 554 54 554 54 554 53 c 256,47,48
 554 52 554 52 553.5 51 c 128,-1,49
 553 50 553 50 553 48 c 0,50,51
 552 46 552 46 552 44 c 0,52,53
 551 42 551 42 543 34.5 c 128,-1,54
 535 27 535 27 533 23 c 0,55,56
 530 22 530 22 524 19 c 128,-1,57
 518 16 518 16 512 13 c 128,-1,58
 506 10 506 10 501 7 c 128,-1,59
 496 4 496 4 495 3 c 0,60,61
 491 2 491 2 487 2 c 0,62,63
 484 1 484 1 480.5 1 c 128,-1,64
 477 1 477 1 475 1 c 256,65,66
 473 1 473 1 465.5 2 c 128,-1,67
 458 3 458 3 456 3 c 0,68,69
 452 8 452 8 443.5 22 c 128,-1,70
 435 36 435 36 426 52 c 128,-1,71
 417 68 417 68 409.5 82 c 128,-1,72
 402 96 402 96 399 102 c 0,73,74
 393 115 393 115 381 139.5 c 128,-1,75
 369 164 369 164 357 189.5 c 128,-1,76
 345 215 345 215 335 235.5 c 128,-1,77
 325 256 325 256 322 261 c 0,78,79
 322 264 322 264 323 271 c 128,-1,80
 324 278 324 278 325.5 285.5 c 128,-1,81
 327 293 327 293 328.5 300 c 128,-1,82
 330 307 330 307 330 309 c 1,83,84
 328 309 328 309 317.5 304 c 128,-1,85
 307 299 307 299 303 301 c 0,86,87
 302 302 302 302 297 309.5 c 128,-1,88
 292 317 292 317 286 326.5 c 128,-1,89
 280 336 280 336 274.5 345.5 c 128,-1,90
 269 355 269 355 266 361 c 0,91,92
 261 369 261 369 252 385.5 c 128,-1,93
 243 402 243 402 232 423.5 c 128,-1,94
 221 445 221 445 208 468.5 c 128,-1,95
 195 492 195 492 184 513.5 c 128,-1,96
 173 535 173 535 163.5 552.5 c 128,-1,97
 154 570 154 570 150 578 c 1,98,-1
 150 44 l 2,99,100
 150 42 150 42 143 34.5 c 128,-1,101
 136 27 136 27 131 23 c 0,102,103
 129 22 129 22 123.5 19 c 128,-1,104
 118 16 118 16 112 13 c 128,-1,105
 106 10 106 10 100.5 7 c 128,-1,106
 95 4 95 4 93 3 c 0,107,108
 91 3 91 3 87 1.5 c 128,-1,109
 83 0 83 0 81 0 c 1,110,111
 81 3 81 3 80 12.5 c 128,-1,112
 79 22 79 22 78 32 c 128,-1,113
 77 42 77 42 76 51 c 128,-1,114
 75 60 75 60 74 63 c 0,115,116
 72 68 72 68 64.5 75.5 c 128,-1,117
 57 83 57 83 55 83 c 0,0,1
227 282 m 2,118,119
 228 282 228 282 235 270.5 c 128,-1,120
 242 259 242 259 251 243 c 128,-1,121
 260 227 260 227 269 210 c 128,-1,122
 278 193 278 193 284 182 c 0,123,124
 288 174 288 174 297 156 c 128,-1,125
 306 138 306 138 315 119.5 c 128,-1,126
 324 101 324 101 331.5 84.5 c 128,-1,127
 339 68 339 68 342 63 c 2,128,-1
 342 53 l 1,129,-1
 342 44 l 1,130,131
 337 42 337 42 326.5 36 c 128,-1,132
 316 30 316 30 304 23.5 c 128,-1,133
 292 17 292 17 281 11 c 128,-1,134
 270 5 270 5 266 3 c 2,135,-1
 256 3 l 1,136,-1
 246 3 l 2,137,138
 245 5 245 5 237.5 13 c 128,-1,139
 230 21 230 21 227 23 c 0,140,141
 222 31 222 31 215 46 c 128,-1,142
 208 61 208 61 208 63 c 2,143,-1
 208 282 l 1,144,-1
 227 282 l 2,118,119
55 63 m 256,145,146
 62 63 62 63 65.5 56.5 c 128,-1,147
 69 50 69 50 69 42.5 c 128,-1,148
 69 35 69 35 65.5 29 c 128,-1,149
 62 23 62 23 55 23 c 256,150,151
 48 23 48 23 44.5 29 c 128,-1,152
 41 35 41 35 41 42.5 c 128,-1,153
 41 50 41 50 44.5 56.5 c 128,-1,154
 48 63 48 63 55 63 c 256,145,146
55 301 m 0,155,156
 51 302 51 302 49 299 c 128,-1,157
 47 296 47 296 47 292 c 128,-1,158
 47 288 47 288 49 284.5 c 128,-1,159
 51 281 51 281 55 282 c 0,160,161
 63 284 63 284 63 291.5 c 128,-1,162
 63 299 63 299 55 301 c 0,155,156
55 618 m 0,163,164
 51 622 51 622 49 612 c 128,-1,165
 47 602 47 602 47 589 c 128,-1,166
 47 576 47 576 49 566 c 128,-1,167
 51 556 51 556 55 559 c 0,168,169
 59 563 59 563 61 571.5 c 128,-1,170
 63 580 63 580 63 589.5 c 128,-1,171
 63 599 63 599 61 607 c 128,-1,172
 59 615 59 615 55 618 c 0,163,164
55 717 m 1,173,-1
 74 717 l 1,174,-1
 55 737 l 1,175,-1
 55 717 l 1,173,-1
EndSplineSet
EndChar

StartChar: eacute
Encoding: 233 233 27
Width: 684
GlyphClass: 1
Flags: W
LayerCount: 2
Fore
SplineSet
290 53 m 1,0,-1
 290 618 l 2,1,2
 291 622 291 622 294.5 634 c 128,-1,3
 298 646 298 646 301 658.5 c 128,-1,4
 304 671 304 671 306.5 682.5 c 128,-1,5
 309 694 309 694 310 699 c 2,6,-1
 310 719 l 1,7,-1
 310 739 l 1,8,9
 308 736 308 736 302 727.5 c 128,-1,10
 296 719 296 719 290 709.5 c 128,-1,11
 284 700 284 700 278 691 c 128,-1,12
 272 682 272 682 270 678 c 0,13,14
 268 675 268 675 264.5 669.5 c 128,-1,15
 261 664 261 664 258 657.5 c 128,-1,16
 255 651 255 651 252.5 645.5 c 128,-1,17
 250 640 250 640 250 638 c 256,18,19
 250 636 250 636 250.5 630.5 c 128,-1,20
 251 625 251 625 251 618 c 128,-1,21
 251 611 251 611 251 605 c 128,-1,22
 251 599 251 599 250 597 c 0,23,24
 249 596 249 596 244 588.5 c 128,-1,25
 239 581 239 581 233 571.5 c 128,-1,26
 227 562 227 562 220.5 552.5 c 128,-1,27
 214 543 214 543 211 538 c 0,28,29
 208 534 208 534 200 526.5 c 128,-1,30
 192 519 192 519 191 517 c 0,31,32
 189 516 189 516 187 516 c 2,33,-1
 181 516 l 1,34,-1
 175 516 l 2,35,36
 173 516 173 516 171 517 c 0,37,38
 169 519 169 519 161.5 526.5 c 128,-1,39
 154 534 154 534 151 538 c 0,40,41
 149 541 149 541 140 556 c 128,-1,42
 131 571 131 571 121 588 c 128,-1,43
 111 605 111 605 102 619.5 c 128,-1,44
 93 634 93 634 91 638 c 0,45,46
 89 641 89 641 83.5 647.5 c 128,-1,47
 78 654 78 654 72 660 c 128,-1,48
 66 666 66 666 60 671 c 128,-1,49
 54 676 54 676 52 678 c 0,50,51
 51 679 51 679 46 680 c 128,-1,52
 41 681 41 681 35 682 c 128,-1,53
 29 683 29 683 24 684 c 128,-1,54
 19 685 19 685 18 685 c 1,55,56
 18 689 18 689 19.5 696.5 c 128,-1,57
 21 704 21 704 23.5 712.5 c 128,-1,58
 26 721 26 721 28 728.5 c 128,-1,59
 30 736 30 736 32 739 c 0,60,61
 34 744 34 744 42 753 c 128,-1,62
 50 762 50 762 59.5 772 c 128,-1,63
 69 782 69 782 78 790 c 128,-1,64
 87 798 87 798 91 800 c 0,65,66
 94 798 94 798 102 790 c 128,-1,67
 110 782 110 782 112 779 c 0,68,69
 115 774 115 774 126.5 756.5 c 128,-1,70
 138 739 138 739 151.5 719 c 128,-1,71
 165 699 165 699 176.5 681 c 128,-1,72
 188 663 188 663 191 658 c 0,73,74
 192 655 192 655 200 647.5 c 128,-1,75
 208 640 208 640 211 638 c 1,76,77
 215 644 215 644 226 658.5 c 128,-1,78
 237 673 237 673 250 689 c 128,-1,79
 263 705 263 705 274 719.5 c 128,-1,80
 285 734 285 734 290 739 c 0,81,82
 293 743 293 743 301.5 752 c 128,-1,83
 310 761 310 761 319.5 770.5 c 128,-1,84
 329 780 329 780 337.5 788.5 c 128,-1,85
 346 797 346 797 349 800 c 0,86,87
 352 798 352 798 360 790 c 128,-1,88
 368 782 368 782 370 779 c 0,89,90
 373 776 373 776 384.5 761 c 128,-1,91
 396 746 396 746 409.5 729 c 128,-1,92
 423 712 423 712 434.5 697 c 128,-1,93
 446 682 446 682 449 678 c 0,94,95
 452 675 452 675 457.5 668.5 c 128,-1,96
 463 662 463 662 469.5 655.5 c 128,-1,97
 476 649 476 649 481 644 c 128,-1,98
 486 639 486 639 488 638 c 256,99,100
 490 637 490 637 493 637 c 0,101,102
 495 636 495 636 499 636 c 256,103,104
 503 636 503 636 505 637 c 0,105,106
 507 637 507 637 508 638 c 2,107,-1
 607 779 l 2,108,109
 608 779 608 779 610 780 c 0,110,111
 612 780 612 780 613 780.5 c 128,-1,112
 614 781 614 781 615 781 c 0,113,114
 617 781 617 781 619 780.5 c 128,-1,115
 621 780 621 780 623 780 c 0,116,117
 626 779 626 779 628 779 c 0,118,119
 630 778 630 778 637.5 770 c 128,-1,120
 645 762 645 762 647 759 c 0,121,122
 651 754 651 754 658 739 c 128,-1,123
 665 724 665 724 667 719 c 2,124,-1
 667 709 l 1,125,-1
 667 699 l 2,126,127
 665 695 665 695 662 688.5 c 128,-1,128
 659 682 659 682 656 675.5 c 128,-1,129
 653 669 653 669 650.5 664 c 128,-1,130
 648 659 648 659 647 658 c 0,131,132
 644 656 644 656 636 655.5 c 128,-1,133
 628 655 628 655 618.5 655 c 128,-1,134
 609 655 609 655 600.5 655.5 c 128,-1,135
 592 656 592 656 588 658 c 1,136,137
 583 650 583 650 569 630 c 128,-1,138
 555 610 555 610 539 587.5 c 128,-1,139
 523 565 523 565 508.5 545 c 128,-1,140
 494 525 494 525 488 517 c 0,141,142
 486 515 486 515 479 507 c 128,-1,143
 472 499 472 499 469 497 c 2,144,-1
 409 558 l 1,145,-1
 409 33 l 2,146,147
 409 31 409 31 401.5 23.5 c 128,-1,148
 394 16 394 16 389 13 c 0,149,150
 387 11 387 11 381 8 c 128,-1,151
 375 5 375 5 369 1.5 c 128,-1,152
 363 -2 363 -2 357 -4.5 c 128,-1,153
 351 -7 351 -7 349 -8 c 2,154,-1
 340 -8 l 1,155,-1
 330 -8 l 2,156,157
 326 -6 326 -6 319 2 c 128,-1,158
 312 10 312 10 310 13 c 0,159,160
 309 15 309 15 310 20.5 c 128,-1,161
 311 26 311 26 312.5 32.5 c 128,-1,162
 314 39 314 39 315 45 c 128,-1,163
 316 51 316 51 316 53 c 1,164,-1
 290 53 l 1,0,-1
310 114 m 1,165,166
 312 117 312 117 315.5 125.5 c 128,-1,167
 319 134 319 134 322 143.5 c 128,-1,168
 325 153 325 153 327.5 162 c 128,-1,169
 330 171 330 171 330 175 c 256,170,171
 330 179 330 179 322.5 187 c 128,-1,172
 315 195 315 195 310 195 c 1,173,-1
 310 114 l 1,165,166
310 295 m 0,174,175
 305 299 305 299 303 289 c 128,-1,176
 301 279 301 279 301 266 c 128,-1,177
 301 253 301 253 303 242 c 128,-1,178
 305 231 305 231 310 234 c 0,179,180
 314 238 314 238 316 247 c 128,-1,181
 318 256 318 256 318 265.5 c 128,-1,182
 318 275 318 275 316 283.5 c 128,-1,183
 314 292 314 292 310 295 c 0,174,175
310 477 m 0,184,185
 305 481 305 481 303 467.5 c 128,-1,186
 301 454 301 454 301 436.5 c 128,-1,187
 301 419 301 419 303 405 c 128,-1,188
 305 391 305 391 310 396 c 0,189,190
 314 401 314 401 316 412.5 c 128,-1,191
 318 424 318 424 318 436.5 c 128,-1,192
 318 449 318 449 316 460.5 c 128,-1,193
 314 472 314 472 310 477 c 0,184,185
310 578 m 0,194,195
 305 580 305 580 303 573 c 128,-1,196
 301 566 301 566 301 557.5 c 128,-1,197
 301 549 301 549 303 542 c 128,-1,198
 305 535 305 535 310 538 c 0,199,200
 314 540 314 540 316 545.5 c 128,-1,201
 318 551 318 551 318 557.5 c 128,-1,202
 318 564 318 564 316 569.5 c 128,-1,203
 314 575 314 575 310 578 c 0,194,195
310 638 m 0,204,205
 302 638 302 638 298.5 631.5 c 128,-1,206
 295 625 295 625 295 617.5 c 128,-1,207
 295 610 295 610 298.5 603.5 c 128,-1,208
 302 597 302 597 310 597 c 0,209,210
 317 597 317 597 321 603.5 c 128,-1,211
 325 610 325 610 325 617.5 c 128,-1,212
 325 625 325 625 321 631.5 c 128,-1,213
 317 638 317 638 310 638 c 0,204,205
EndSplineSet
EndChar

StartChar: k
Encoding: 107 107 28
Width: 566
GlyphClass: 1
Flags: W
LayerCount: 2
Fore
SplineSet
16 52 m 256,0,1
 16 56 16 56 17 58 c 0,2,3
 17 60 17 60 18 62 c 0,4,5
 20 65 20 65 31 77 c 128,-1,6
 42 89 42 89 55.5 102.5 c 128,-1,7
 69 116 69 116 80 128 c 128,-1,8
 91 140 91 140 93 143 c 0,9,10
 97 147 97 147 111.5 170.5 c 128,-1,11
 126 194 126 194 144 223 c 128,-1,12
 162 252 162 252 179.5 280.5 c 128,-1,13
 197 309 197 309 206 325 c 0,14,15
 211 333 211 333 218 348 c 128,-1,16
 225 363 225 363 225 365 c 2,17,-1
 225 688 l 2,18,19
 224 691 224 691 221 699.5 c 128,-1,20
 218 708 218 708 215 718 c 128,-1,21
 212 728 212 728 209.5 736.5 c 128,-1,22
 207 745 207 745 206 749 c 2,23,-1
 206 761 l 1,24,-1
 206 769 l 1,25,-1
 282 810 l 2,26,27
 284 810 284 810 291 802 c 128,-1,28
 298 794 298 794 301 790 c 0,29,30
 302 787 302 787 305 781.5 c 128,-1,31
 308 776 308 776 311 769.5 c 128,-1,32
 314 763 314 763 316.5 757 c 128,-1,33
 319 751 319 751 319 749 c 0,34,35
 318 738 318 738 318 714 c 128,-1,36
 318 690 318 690 319 660 c 128,-1,37
 320 630 320 630 322.5 597 c 128,-1,38
 325 564 325 564 327.5 534 c 128,-1,39
 330 504 330 504 332.5 480.5 c 128,-1,40
 335 457 335 457 338 446 c 0,41,42
 340 435 340 435 347.5 414 c 128,-1,43
 355 393 355 393 366 367 c 128,-1,44
 377 341 377 341 389 312.5 c 128,-1,45
 401 284 401 284 413 258 c 128,-1,46
 425 232 425 232 435 212 c 128,-1,47
 445 192 445 192 451 183 c 1,48,-1
 451 135 l 1,49,50
 454 135 454 135 461.5 140 c 128,-1,51
 469 145 469 145 470 143 c 0,52,53
 475 139 475 139 486 127.5 c 128,-1,54
 497 116 497 116 509 103.5 c 128,-1,55
 521 91 521 91 531.5 79 c 128,-1,56
 542 67 542 67 546 62 c 0,57,58
 546 60 546 60 547 58 c 0,59,60
 547 56 547 56 547.5 54.5 c 128,-1,61
 548 53 548 53 548 52 c 256,62,63
 548 51 548 51 547.5 49.5 c 128,-1,64
 547 48 547 48 547 46 c 0,65,66
 546 44 546 44 546 42 c 0,67,68
 543 39 543 39 535 33 c 128,-1,69
 527 27 527 27 518 20.5 c 128,-1,70
 509 14 509 14 500.5 8.5 c 128,-1,71
 492 3 492 3 489 1 c 0,72,73
 487 1 487 1 480 0.5 c 128,-1,74
 473 0 473 0 470 0 c 0,75,76
 468 0 468 0 460.5 0.5 c 128,-1,77
 453 1 453 1 451 1 c 0,78,79
 448 8 448 8 439.5 25 c 128,-1,80
 431 42 431 42 422 61.5 c 128,-1,81
 413 81 413 81 405.5 98 c 128,-1,82
 398 115 398 115 395 122 c 0,83,84
 394 125 394 125 394 127 c 0,85,86
 393 129 393 129 393 132 c 0,87,88
 393 137 393 137 394 139 c 0,89,90
 394 141 394 141 395 143 c 0,91,92
 399 148 399 148 413.5 155.5 c 128,-1,93
 428 163 428 163 433 163 c 1,94,95
 433 168 433 168 425.5 175.5 c 128,-1,96
 418 183 418 183 414 183 c 0,97,98
 412 183 412 183 406.5 180 c 128,-1,99
 401 177 401 177 395 173 c 128,-1,100
 389 169 389 169 383 166 c 128,-1,101
 377 163 377 163 376 163 c 0,102,103
 374 163 374 163 366.5 172 c 128,-1,104
 359 181 359 181 357 183 c 256,105,106
 355 185 355 185 349.5 182 c 128,-1,107
 344 179 344 179 342 179 c 1,108,109
 342 176 342 176 341 168 c 128,-1,110
 340 160 340 160 339.5 151 c 128,-1,111
 339 142 339 142 338.5 134 c 128,-1,112
 338 126 338 126 338 122 c 0,113,114
 339 120 339 120 341.5 111.5 c 128,-1,115
 344 103 344 103 347.5 92.5 c 128,-1,116
 351 82 351 82 353.5 73 c 128,-1,117
 356 64 356 64 357 62 c 2,118,-1
 357 52 l 1,119,-1
 357 42 l 2,120,121
 355 40 355 40 348 32.5 c 128,-1,122
 341 25 341 25 338 21 c 0,123,124
 336 20 336 20 330.5 17 c 128,-1,125
 325 14 325 14 319 10.5 c 128,-1,126
 313 7 313 7 308 4.5 c 128,-1,127
 303 2 303 2 301 1 c 2,128,-1
 291 1 l 1,129,-1
 282 1 l 2,130,131
 277 4 277 4 268.5 10 c 128,-1,132
 260 16 260 16 252.5 22.5 c 128,-1,133
 245 29 245 29 239.5 34.5 c 128,-1,134
 234 40 234 40 234 42 c 2,135,-1
 234 244 l 1,136,137
 232 243 232 243 228 240.5 c 128,-1,138
 224 238 224 238 219.5 234.5 c 128,-1,139
 215 231 215 231 211 228 c 128,-1,140
 207 225 207 225 206 224 c 0,141,142
 203 221 203 221 195.5 210.5 c 128,-1,143
 188 200 188 200 179 187 c 128,-1,144
 170 174 170 174 162 161.5 c 128,-1,145
 154 149 154 149 150 143 c 0,146,147
 148 140 148 140 144.5 134 c 128,-1,148
 141 128 141 128 138 121.5 c 128,-1,149
 135 115 135 115 133 109.5 c 128,-1,150
 131 104 131 104 131 103 c 0,151,152
 130 100 130 100 130.5 91 c 128,-1,153
 131 82 131 82 131 72 c 128,-1,154
 131 62 131 62 131.5 53 c 128,-1,155
 132 44 132 44 131 42 c 0,156,157
 131 40 131 40 123.5 32.5 c 128,-1,158
 116 25 116 25 112 21 c 0,159,160
 110 20 110 20 104.5 17 c 128,-1,161
 99 14 99 14 93 10.5 c 128,-1,162
 87 7 87 7 81.5 4.5 c 128,-1,163
 76 2 76 2 74 1 c 2,164,-1
 65 1 l 1,165,-1
 55 1 l 2,166,167
 52 3 52 3 46.5 8.5 c 128,-1,168
 41 14 41 14 35 20.5 c 128,-1,169
 29 27 29 27 24 33 c 128,-1,170
 19 39 19 39 18 42 c 0,171,172
 17 44 17 44 17 46 c 0,173,174
 16 48 16 48 16 52 c 256,0,1
357 284 m 256,175,176
 350 284 350 284 346.5 277.5 c 128,-1,177
 343 271 343 271 343 263.5 c 128,-1,178
 343 256 343 256 346.5 250 c 128,-1,179
 350 244 350 244 357 244 c 256,180,181
 364 244 364 244 367.5 250 c 128,-1,182
 371 256 371 256 371 263.5 c 128,-1,183
 371 271 371 271 367.5 277.5 c 128,-1,184
 364 284 364 284 357 284 c 256,175,176
206 304 m 256,185,186
 199 304 199 304 195.5 297.5 c 128,-1,187
 192 291 192 291 192 283.5 c 128,-1,188
 192 276 192 276 195.5 270 c 128,-1,189
 199 264 199 264 206 264 c 256,190,191
 213 264 213 264 216.5 270 c 128,-1,192
 220 276 220 276 220 283.5 c 128,-1,193
 220 291 220 291 216.5 297.5 c 128,-1,194
 213 304 213 304 206 304 c 256,185,186
EndSplineSet
EndChar

StartChar: G
Encoding: 71 71 29
Width: 696
GlyphClass: 1
Flags: W
LayerCount: 2
Fore
SplineSet
39.0068359375 30.00390625 m 0,0,1
 39.0068359375 33.1007558917 39.0068359375 33.1007558917 39.52734375 38.4970703125 c 0,2,3
 39.9642265453 43.4453289211 39.9642265453 43.4453289211 40.5146484375 51.0009765625 c 0,4,5
 40.9332827446 57.0255048189 40.9332827446 57.0255048189 41.5029296875 63.5078125 c 0,6,7
 42.0184703587 69.0202459415 42.0184703587 69.0202459415 43.025390625 71.99609375 c 0,8,9
 43.8339947872 73.6522123499 43.8339947872 73.6522123499 47.0126953125 79.482421875 c 0,10,11
 48.0607562781 81.4002917219 48.0607562781 81.4002917219 50.2348289338 85.4266065782 c 128,-1,12
 52.4089015896 89.4529214344 52.4089015896 89.4529214344 53.5234375 91.5 c 0,13,14
 57.1095246918 98.1780106618 57.1095246918 98.1780106618 60.0029296875 104.008789062 c 128,-1,15
 63.0299191013 110.018599757 63.0299191013 110.018599757 65.0234375 112.0078125 c 0,16,17
 79.3878091327 130.584725119 79.3878091327 130.584725119 87.0224609375 140.493164062 c 0,18,19
 102.203701585 160.247783153 102.203701585 160.247783153 121.517578125 183.993164062 c 0,20,21
 139.967297415 206.694756034 139.967297415 206.694756034 162.017578125 234.990234375 c 0,22,23
 183.448596233 262.562767823 183.448596233 262.562767823 202.518554688 285.9921875 c 0,24,25
 222.396253302 310.45314405 222.396253302 310.45314405 237.526367188 329.015625 c 0,26,27
 253.483992369 348.558809292 253.483992369 348.558809292 261.010742188 357.010742188 c 1,28,-1
 261.010742188 418.999023438 l 1,29,-1
 43.025390625 725.01953125 l 2,30,31
 42.0185546875 728.967197336 42.0185546875 728.967197336 42.0185546875 733.024414062 c 0,32,33
 41.015625 735.967889325 41.015625 735.967889325 41.015625 739.017578125 c 2,34,-1
 41.015625 744.010742188 l 2,35,36
 41.015625 749.0578956 41.015625 749.0578956 42.0185546875 757.005859375 c 0,37,38
 43.025390625 765.262819762 43.025390625 765.262819762 43.025390625 767.013671875 c 0,39,40
 43.025390625 768.020641408 43.025390625 768.020641408 51.5126953125 776.01953125 c 128,-1,41
 59.9924579967 783.991181751 59.9924579967 783.991181751 65.0234375 787.006835938 c 0,42,43
 66.4676298934 787.721963129 66.4676298934 787.721963129 73.513671875 791.509765625 c 0,44,45
 80.0372320316 795.026981877 80.0372320316 795.026981877 86.5068359375 798.018554688 c 0,46,47
 93.5562733506 801.237120959 93.5562733506 801.237120959 99.5166015625 803.500976562 c 0,48,49
 105.885572102 805.972367162 105.885572102 805.972367162 108.018554688 806.998046875 c 2,50,-1
 119.004882812 806.998046875 l 1,51,-1
 130.018554688 806.998046875 l 2,52,53
 134.048631305 804.986705884 134.048631305 804.986705884 142.009765625 797.505859375 c 128,-1,54
 149.953638428 790.06820663 149.953638428 790.06820663 152.01953125 787.005859375 c 0,55,56
 152.993564028 785.006451729 152.993564028 785.006451729 156.524414062 779.004882812 c 0,57,58
 159.399118003 774.064892834 159.399118003 774.064892834 163.521484375 766.5234375 c 0,59,60
 164.973599874 763.790331224 164.973599874 763.790331224 170.018554688 754.5078125 c 0,61,62
 173.000701165 749.033975353 173.000701165 749.033975353 174.021484375 746.015625 c 0,63,64
 176.014648438 743.984384328 176.014648438 743.984384328 176.014648438 736.51953125 c 128,-1,65
 176.014648438 729.007811782 176.014648438 729.007811782 174.021484375 725.018554688 c 0,66,67
 180.01318179 713.971637798 180.01318179 713.971637798 198.015625 688.01953125 c 128,-1,68
 216.015625 661.977539062 216.015625 661.977539062 237.009765625 632.513671875 c 128,-1,69
 257.979343801 603.056790415 257.979343801 603.056790415 277.018554688 577.502929688 c 0,70,71
 296.714803921 551.094983467 296.714803921 551.094983467 304.009765625 542.016601562 c 0,72,73
 307.205817945 538.820549242 307.205817945 538.820549242 313.013671875 532.49609375 c 128,-1,74
 318.992873447 526.027962577 318.992873447 526.027962577 326.006835938 519.5 c 0,75,76
 332.576890818 513.395896711 332.576890818 513.395896711 339.028320312 507.512695312 c 0,77,78
 344.8960416 502.090151117 344.8960416 502.090151117 348.008789062 499.997070312 c 0,79,80
 349.978991242 498.993164062 349.978991242 498.993164062 352.0234375 498.993164062 c 2,81,-1
 358.017578125 498.993164062 l 1,82,-1
 365.017578125 498.993164062 l 2,83,84
 367.037573735 498.993164062 367.037573735 498.993164062 369.004882812 499.997070312 c 128,-1,85
 371.036679163 500.999522777 371.036679163 500.999522777 377.006835938 505.99609375 c 128,-1,86
 382.910531365 510.898384704 382.910531365 510.898384704 389.512695312 517.49609375 c 0,87,88
 393.852539063 521.833984375 393.852539063 521.833984375 403.024414062 531.005859375 c 0,89,90
 410.252848074 538.276903103 410.252848074 538.276903103 413.00390625 542.016601562 c 0,91,92
 419.458560202 549.468864241 419.458560202 549.468864241 432.506835938 564.017578125 c 0,93,94
 445.772899226 578.714351685 445.772899226 578.714351685 459.528320312 594.997070312 c 0,95,96
 472.725480455 610.666904109 472.725480455 610.666904109 485.03125 624.514648438 c 0,97,98
 497.017012234 638.00265351 497.017012234 638.00265351 500.028320312 643.012695312 c 0,99,100
 502.023199705 646.02256466 502.023199705 646.02256466 505.5078125 652.508789062 c 0,101,102
 509.283267898 659.524633228 509.283267898 659.524633228 512.509765625 666.01953125 c 0,103,104
 513.333051473 667.657483957 513.333051473 667.657483957 515.454179439 671.886061851 c 128,-1,105
 517.575307404 676.114639746 517.575307404 676.114639746 518.530273438 678.006835938 c 0,106,107
 521.02734375 683.039257122 521.02734375 683.039257122 521.02734375 685.0078125 c 0,108,109
 522.030273438 688.094790983 522.030273438 688.094790983 522.030273438 700.009765625 c 0,110,111
 522.030273438 711.409354074 522.030273438 711.409354074 521.516601562 725.5078125 c 0,112,113
 521.438978291 727.651283863 521.438978291 727.651283863 520.512695312 751.525390625 c 0,114,115
 520.022247072 764.04650483 520.022247072 764.04650483 521.02734375 767.012695312 c 0,116,117
 521.02734375 768.022871467 521.02734375 768.022871467 529.518554688 776.018554688 c 128,-1,118
 538.026367188 783.993164062 538.026367188 783.993164062 543.026367188 787.005859375 c 0,119,120
 545.866511999 787.926353344 545.866511999 787.926353344 552.034179688 791.508789062 c 0,121,122
 557.996939307 794.995091738 557.996939307 794.995091738 565.029296875 798.017578125 c 0,123,124
 572.303514859 801.127436593 572.303514859 801.127436593 578.0234375 803.5 c 0,125,126
 583.964590167 806.002534044 583.964590167 806.002534044 587.02734375 806.997070312 c 2,127,-1
 598.015625 806.997070312 l 1,128,-1
 608.024414062 806.997070312 l 2,129,130
 612.050363623 804.987789064 612.050363623 804.987789064 620.016601562 797.504882812 c 128,-1,131
 627.922798873 790.118735023 627.922798873 790.118735023 630.0234375 787.004882812 c 0,132,133
 632.975745073 784.056874717 632.975745073 784.056874717 636.533203125 777.999023438 c 0,134,135
 639.905794428 772.176490544 639.905794428 772.176490544 643.536132812 765.005859375 c 128,-1,136
 647.165752715 757.654341098 647.165752715 757.654341098 649.528320312 752.499023438 c 0,137,138
 652.026367188 746.969423511 652.026367188 746.969423511 652.026367188 746.015625 c 0,139,140
 652.026367188 744.011221539 652.026367188 744.011221539 649.528320312 739.016601562 c 0,141,142
 644.354598048 728.657118123 644.354598048 728.657118123 643.536132812 726.999023438 c 0,143,144
 640.070733692 720.157044851 640.070733692 720.157044851 636.533203125 714.004882812 c 128,-1,145
 632.91945812 707.887585608 632.91945812 707.887585608 630.0234375 705 c 0,146,147
 625.877482395 699.842836332 625.877482395 699.842836332 614.53515625 686.008789062 c 0,148,149
 601.822535432 670.556672039 601.822535432 670.556672039 587.517578125 653.510742188 c 0,150,151
 583.317316901 648.495031099 583.317316901 648.495031099 571.99259592 634.967833817 c 128,-1,152
 560.667874938 621.440636534 560.667874938 621.440636534 554.015625 613.498046875 c 0,153,154
 536.100620182 592.102162456 536.100620182 592.102162456 520.512695312 572.99609375 c 0,155,156
 510.423947991 560.627796737 510.423947991 560.627796737 493.516601562 540.009765625 c 0,157,158
 481.644962938 525.52902546 481.644962938 525.52902546 478.029296875 520.9921875 c 0,159,160
 469.769493232 512.732383857 469.769493232 512.732383857 459.013671875 499.508789062 c 0,161,162
 447.986328125 486 447.986328125 486 438.018554688 472.490234375 c 0,163,164
 427.677139885 458.574569974 427.677139885 458.574569974 420.51953125 449.51171875 c 0,165,166
 413.00390625 439.956936497 413.00390625 439.956936497 413.00390625 439.012695312 c 0,167,168
 413.00390625 437.011510534 413.00390625 437.011510534 412.029296875 429.494140625 c 128,-1,169
 411.02734375 422.086637464 411.02734375 422.086637464 411.02734375 418.995117188 c 0,170,171
 411.02734375 413.929591537 411.02734375 413.929591537 412.029296875 407.4921875 c 128,-1,172
 413.00390625 400.990401534 413.00390625 400.990401534 413.00390625 398.999023438 c 2,173,-1
 521.028320312 234.990234375 l 1,174,-1
 521.028320312 189.987304688 l 1,175,176
 525.01138279 189.987304688 525.01138279 189.987304688 533.015625 193.000976562 c 128,-1,177
 540.999793984 195.994857645 540.999793984 195.994857645 543.02734375 194.00390625 c 0,178,179
 544.845172935 192.15137548 544.845172935 192.15137548 553.528320312 184.5078125 c 128,-1,180
 562.118035689 176.870858425 562.118035689 176.870858425 565.030273438 172.990234375 c 0,181,182
 572.067980278 163.89133653 572.067980278 163.89133653 586.025390625 145.487304688 c 0,183,184
 600.279947183 126.630895159 600.279947183 126.630895159 613.53515625 107.506835938 c 0,185,186
 627.415453801 87.3742881573 627.415453801 87.3742881573 638.029296875 71.5078125 c 0,187,188
 649.080498673 54.8986015867 649.080498673 54.8986015867 652.02734375 51.0009765625 c 0,189,190
 652.02734375 47.9365779238 652.02734375 47.9365779238 653.03125 45.98046875 c 0,191,192
 653.03125 43.98828125 653.03125 43.98828125 653.516601562 42.4833984375 c 128,-1,193
 654.037109375 40.9234334066 654.037109375 40.9234334066 654.037109375 39.9873046875 c 128,-1,194
 654.037109375 39.0920373498 654.037109375 39.0920373498 653.03125 35.482421875 c 128,-1,195
 652.02734375 32.0556403121 652.02734375 32.0556403121 652.02734375 30.0029296875 c 0,196,197
 649.01053417 24.9587888878 649.01053417 24.9587888878 637.024414062 18.5 c 0,198,199
 624.689855843 11.8073656525 624.689855843 11.8073656525 611.52734375 5.505859375 c 128,-1,200
 598.424078424 -0.846205940906 598.424078424 -0.846205940906 584.534179688 -5.5048828125 c 0,201,202
 571.07644425 -10.009765625 571.07644425 -10.009765625 565.030273438 -10.009765625 c 0,203,204
 562.987052243 -10.009765625 562.987052243 -10.009765625 557.514648438 -5.5048828125 c 0,205,206
 551.321961707 -0.409592396446 551.321961707 -0.409592396446 545.036132812 5.505859375 c 0,207,208
 540.2551343 9.89797284133 540.2551343 9.89797284133 531.012695312 18.5 c 0,209,210
 523.969949 25.0092719113 523.969949 25.0092719113 521.028320312 30.0029296875 c 0,211,212
 519.024688893 32.9339809856 519.024688893 32.9339809856 516.526367188 41.9931640625 c 0,213,214
 513.827680434 51.6060615977 513.827680434 51.6060615977 510.529296875 61.4970703125 c 0,215,216
 506.375017236 73.8342827127 506.375017236 73.8342827127 504.021484375 80.4892578125 c 0,217,218
 500.999618622 89.0127702564 500.999618622 89.0127702564 500.029296875 90.982421875 c 0,219,220
 497.107602439 96.8400490233 497.107602439 96.8400490233 478.030273438 122.995117188 c 0,221,222
 458.012354872 150.332457782 458.012354872 150.332457782 434.51953125 181.495117188 c 0,223,224
 411.20263299 212.405347447 411.20263299 212.405347447 386.015625 246.00390625 c 0,225,226
 361.48101389 278.690774352 361.48101389 278.690774352 348.010742188 295.999023438 c 0,227,228
 346.015625 299.013671875 346.015625 299.013671875 337.510742188 306.985351562 c 128,-1,229
 328.984447535 315.028249534 328.984447535 315.028249534 326.008789062 316.99609375 c 0,230,231
 323.405714048 314.362213114 323.405714048 314.362213114 317.028320312 308.5078125 c 0,232,233
 308.070749533 300.26745778 308.070749533 300.26745778 304.01171875 296.487304688 c 0,234,235
 297.273216499 290.223880942 297.273216499 290.223880942 291.016601562 284.006835938 c 0,236,237
 285.098204445 278.056564956 285.098204445 278.056564956 282.010742188 276.008789062 c 0,238,239
 276.775917339 270.729549374 276.775917339 270.729549374 264.513671875 256.50390625 c 0,240,241
 251.114774473 240.926568959 251.114774473 240.926568959 238.518554688 225.498046875 c 128,-1,242
 225.996154996 210.204675352 225.996154996 210.204675352 212.513671875 194.002929688 c 0,243,244
 208.193724852 188.817475714 208.193724852 188.817475714 202.405267995 181.862744091 c 128,-1,245
 196.616811137 174.908012467 196.616811137 174.908012467 195.016601562 172.989257812 c 0,246,247
 192.049824841 168.058110915 192.049824841 168.058110915 185.522460938 158.995117188 c 0,248,249
 177.97547467 148.565566054 177.97547467 148.565566054 172.013671875 140.4921875 c 0,250,251
 165.426322144 131.53124157 165.426322144 131.53124157 159.021484375 122.995117188 c 0,252,253
 152.97238248 114.918333906 152.97238248 114.918333906 152.021484375 112.006835938 c 2,254,-1
 152.021484375 102 l 1,255,-1
 152.021484375 90.982421875 l 2,256,257
 153.046632239 89.9541815591 153.046632239 89.9541815591 156.008789062 83.986328125 c 0,258,259
 159.41995677 77.2071720487 159.41995677 77.2071720487 162.518554688 71.5068359375 c 0,260,261
 166.008808697 64.9775783319 166.008808697 64.9775783319 169.518554688 58.4853515625 c 128,-1,262
 173.038880271 51.939815254 173.038880271 51.939815254 174.021484375 51.0009765625 c 2,263,-1
 174.021484375 39.9873046875 l 1,264,-1
 174.021484375 30.00390625 l 1,265,266
 169.007934309 27.9800744688 169.007934309 27.9800744688 156.524414062 22.4892578125 c 0,267,268
 144.311966834 17.1323954411 144.311966834 17.1323954411 130.5078125 9.986328125 c 128,-1,269
 116.723459367 2.82990279928 116.723459367 2.82990279928 104.521484375 -2.4931640625 c 128,-1,270
 92.3722967495 -7.81864081244 92.3722967495 -7.81864081244 87.0224609375 -10.0087890625 c 0,271,272
 84.9882193307 -12.0048978057 84.9882193307 -12.0048978057 74.015625 -13.5078125 c 128,-1,273
 63.0889147783 -15 63.0889147783 -15 61.0078125 -15 c 1,274,275
 61.0078125 -10.8834879323 61.0078125 -10.8834879323 62.01171875 -1.515625 c 128,-1,276
 62.9903213087 7.98954604117 62.9903213087 7.98954604117 65.0244140625 9.0087890625 c 0,277,278
 67.0411786287 13.0408209681 67.0411786287 13.0408209681 75.0068359375 20.482421875 c 128,-1,279
 82.9678203065 27.9618481618 82.9678203065 27.9618481618 87.0234375 30.0029296875 c 1,280,-1
 39.0068359375 30.00390625 l 0,0,1
87.0234375 767.013671875 m 0,281,282
 87.996740361 771.000554572 87.996740361 771.000554572 84.5166015625 773.526367188 c 128,-1,283
 80.9715296247 776.021484375 80.9715296247 776.021484375 76.5126953125 776.021484375 c 128,-1,284
 72.0194360741 776.021484375 72.0194360741 776.021484375 68.0107421875 773.526367188 c 128,-1,285
 64.0073789106 770.994137038 64.0073789106 770.994137038 65.0244140625 767.013671875 c 0,286,287
 68.0118207789 757.005859375 68.0118207789 757.005859375 76.5126953125 757.005859375 c 128,-1,288
 84.9925909839 757.005859375 84.9925909839 757.005859375 87.0234375 767.013671875 c 0,281,282
174.022460938 234.990234375 m 128,-1,290
 166.034151836 234.990234375 166.034151836 234.990234375 161.515625 228.508789062 c 128,-1,291
 157.009765625 221.98204882 157.009765625 221.98204882 157.009765625 214.514648438 c 128,-1,292
 157.009765625 207.01404493 157.009765625 207.01404493 161.515625 200.487304688 c 128,-1,293
 166.006819467 194.004882812 166.006819467 194.004882812 174.022460938 194.004882812 c 128,-1,294
 182.037198793 194.004882812 182.037198793 194.004882812 186.012695312 200.487304688 c 128,-1,295
 190.029296875 207.040086385 190.029296875 207.040086385 190.029296875 214.514648438 c 128,-1,296
 190.029296875 221.958412056 190.029296875 221.958412056 186.012695312 228.508789062 c 128,-1,289
 182.013505652 234.990234375 182.013505652 234.990234375 174.022460938 234.990234375 c 128,-1,290
369.005859375 399.002929688 m 128,-1,298
 361.005780907 399.002929688 361.005780907 399.002929688 357.014648438 392.493164062 c 128,-1,299
 353.029296875 385.97647666 353.029296875 385.97647666 353.029296875 378.008789062 c 128,-1,300
 353.029296875 370.00545424 353.029296875 370.00545424 357.014648438 363.493164062 c 128,-1,301
 360.989016474 357.010742188 360.989016474 357.010742188 369.005859375 357.010742188 c 128,-1,302
 377.008228578 357.010742188 377.008228578 357.010742188 381.026367188 363.493164062 c 128,-1,303
 385.013671875 370.008645757 385.013671875 370.008645757 385.013671875 378.008789062 c 128,-1,304
 385.013671875 385.974749448 385.013671875 385.974749448 381.026367188 392.493164062 c 128,-1,297
 376.9921875 399.002929688 376.9921875 399.002929688 369.005859375 399.002929688 c 128,-1,298
500.029296875 582.00390625 m 0,305,306
 501.009933745 585.9953475 501.009933745 585.9953475 497.5078125 588.514648438 c 128,-1,307
 493.993865553 591.010742188 493.993865553 591.010742188 489.53125 591.010742188 c 128,-1,308
 485.018882702 591.010742188 485.018882702 591.010742188 481.016601562 588.514648438 c 128,-1,309
 477.011741654 585.983482847 477.011741654 585.983482847 478.029296875 582.00390625 c 0,310,311
 481.003372625 572.998046875 481.003372625 572.998046875 489.53125 572.998046875 c 128,-1,312
 497.995715726 572.998046875 497.995715726 572.998046875 500.029296875 582.00390625 c 0,305,306
521.028320312 153 m 128,-1,314
 512.999212598 153 512.999212598 153 509.010742188 146.489257812 c 128,-1,315
 505.0234375 139.973776118 505.0234375 139.973776118 505.0234375 132.4921875 c 128,-1,316
 505.0234375 125.009132422 505.0234375 125.009132422 509.010742188 118.495117188 c 128,-1,317
 512.982501827 112.0078125 512.982501827 112.0078125 521.028320312 112.0078125 c 128,-1,318
 529.044431287 112.0078125 529.044431287 112.0078125 533.015625 118.495117188 c 128,-1,319
 537.037109375 125.048100898 537.037109375 125.048100898 537.037109375 132.4921875 c 128,-1,320
 537.037109375 139.937202412 537.037109375 139.937202412 533.015625 146.489257812 c 128,-1,313
 529.030084057 153 529.030084057 153 521.028320312 153 c 128,-1,314
543.02734375 685.0078125 m 128,-1,322
 535.043077477 685.0078125 535.043077477 685.0078125 530.522460938 678.497070312 c 128,-1,323
 526.022460938 672.014736439 526.022460938 672.014736439 526.022460938 664.01171875 c 128,-1,324
 526.022460938 655.980862857 526.022460938 655.980862857 530.522460938 649.497070312 c 128,-1,325
 535.026117773 643.013671875 535.026117773 643.013671875 543.02734375 643.013671875 c 128,-1,326
 551.045941288 643.013671875 551.045941288 643.013671875 555.018554688 649.497070312 c 128,-1,327
 559.03515625 656.051326533 559.03515625 656.051326533 559.03515625 664.01171875 c 128,-1,328
 559.03515625 671.946693306 559.03515625 671.946693306 555.018554688 678.497070312 c 128,-1,321
 551.030981368 685.0078125 551.030981368 685.0078125 543.02734375 685.0078125 c 128,-1,322
EndSplineSet
EndChar

StartChar: K
Encoding: 75 75 30
Width: 481
GlyphClass: 1
Flags: W
LayerCount: 2
Fore
SplineSet
40.015625 410.76953125 m 0,0,1
 39.9550011781 410.812505098 39.9550011781 410.812505098 44.7617232162 417.764667146 c 128,-1,2
 49.5684452542 424.716829194 49.5684452542 424.716829194 56.1341101172 433.776022958 c 128,-1,3
 62.6997749801 442.835216722 62.6997749801 442.835216722 66.306640625 447.120117188 c 0,4,5
 76.176608317 458.782923152 76.176608317 458.782923152 86.642578125 465.186523438 c 0,6,7
 96.1508978649 470.225210291 96.1508978649 470.225210291 101.88671875 471.02734375 c 2,8,-1
 115.149414062 472.161132812 l 2,9,10
 117.328235554 472.161132812 117.328235554 472.161132812 119.478515625 472.920898438 c 0,11,12
 121.454035095 474.262200591 121.454035095 474.262200591 128.091796875 478.3828125 c 0,13,14
 133.928084711 482.002420619 133.928084711 482.002420619 141.033203125 486.767578125 c 0,15,16
 147.822388863 491.392806693 147.822388863 491.392806693 153.443359375 495.555664062 c 128,-1,17
 159.191733793 499.76328101 159.191733793 499.76328101 161.533203125 502.1015625 c 0,18,19
 167.673590511 507.899802253 167.673590511 507.899802253 182.021484375 521.087890625 c 128,-1,20
 196.378463477 534.231172608 196.378463477 534.231172608 214.379882812 551.377929688 c 0,21,22
 231.931488883 568.09225517 231.931488883 568.09225517 246.739257812 582.779296875 c 0,23,24
 260.175875646 596.050528929 260.175875646 596.050528929 268.310546875 604.306640625 c 0,25,26
 269.239835422 605.549018333 269.239835422 605.549018333 272.624023438 610.1484375 c 0,27,28
 273.614058129 611.494722749 273.614058129 611.494722749 275.782919222 614.422918224 c 128,-1,29
 277.951780315 617.351113699 277.951780315 617.351113699 279.098632812 618.9140625 c 0,30,31
 282.405872747 623.395710085 282.405872747 623.395710085 285.0234375 627.647460938 c 0,32,33
 287.333005522 631.405022281 287.333005522 631.405022281 288.811523438 633.516601562 c 2,34,-1
 288.811523438 648.091796875 l 2,35,36
 289.898433064 650.997497712 289.898433064 650.997497712 292.568359375 655.774414062 c 0,37,38
 295.166873783 660.30781366 295.166873783 660.30781366 298.50390625 665.268554688 c 128,-1,39
 301.831283734 670.088601512 301.831283734 670.088601512 305.52734375 673.298828125 c 0,40,41
 308.81327774 676.167947142 308.81327774 676.167947142 310.365234375 677.302734375 c 0,42,43
 312.570211056 679.503295215 312.570211056 679.503295215 318.46484375 682.4140625 c 0,44,45
 324.70665608 685.439650349 324.70665608 685.439650349 330.87890625 687.52734375 c 0,46,47
 337.461925361 689.757941217 337.461925361 689.757941217 343.822265625 691.150390625 c 128,-1,48
 350.280534745 692.606022226 350.280534745 692.606022226 352.44921875 691.91015625 c 0,49,50
 356.683616728 691.91015625 356.683616728 691.91015625 365.919921875 688.256835938 c 0,51,52
 374.793822528 684.742839019 374.793822528 684.742839019 385.34765625 679.845703125 c 0,53,54
 395.135587471 675.351873068 395.135587471 675.351873068 404.2109375 670.380859375 c 0,55,56
 412.75347272 665.647715708 412.75347272 665.647715708 416.087890625 662.725585938 c 2,57,-1
 418.240234375 656.857421875 l 2,58,59
 419.318359375 654.686661444 419.318359375 654.686661444 419.318359375 652.124023438 c 2,60,-1
 419.318359375 648.091796875 l 2,61,62
 419.318359375 645.879006727 419.318359375 645.879006727 417.7109375 640.4140625 c 128,-1,63
 416.087890625 634.975097656 416.087890625 634.975097656 416.087890625 633.516601562 c 2,64,-1
 290.3515625 503.698242188 l 2,65,66
 290.295429382 503.645280926 290.295429382 503.645280926 267.23944952 482.98311319 c 128,-1,67
 244.183469657 462.320945454 244.183469657 462.320945454 234.13671875 452.528320312 c 0,68,69
 231.301626708 449.76650526 231.301626708 449.76650526 224.566731771 443.847855179 c 128,-1,70
 217.831836834 437.929205099 217.831836834 437.929205099 212.958658854 433.510380498 c 128,-1,71
 208.085480875 429.091555896 208.085480875 429.091555896 201.55859375 422.270019531 c 128,-1,72
 195.031706625 415.448483166 195.031706625 415.448483166 192.612630208 410.880895544 c 128,-1,73
 190.193553791 406.313307922 190.193553791 406.313307922 188.366861979 400.0971318 c 128,-1,74
 186.540170167 393.880955678 186.540170167 393.880955678 191.067382812 390.672851562 c 0,75,76
 203.5563117 375.22618337 203.5563117 375.22618337 203.591796875 375.204101562 c 1,77,78
 202.910262613 374.461436932 202.910262613 374.461436932 201.90329265 373.255685839 c 128,-1,79
 200.896322687 372.049934746 200.896322687 372.049934746 199.234728184 369.247569369 c 128,-1,80
 197.573133681 366.445203993 197.573133681 366.445203993 197.626953125 364.737304688 c 0,81,82
 198.005632243 352.717296559 198.005632243 352.717296559 205.654618368 341.774748146 c 0,83,84
 207.670425101 338.890959053 207.670425101 338.890959053 209.09375 340.016601562 c 0,85,86
 210.269743656 340.947073087 210.269743656 340.947073087 211.455305496 344.38047182 c 128,-1,87
 212.640867336 347.813870553 212.640867336 347.813870553 213.507600754 352.041075055 c 128,-1,88
 214.374334173 356.268279558 214.374334173 356.268279558 215.064039871 360.36650307 c 128,-1,89
 215.753745569 364.464726582 215.753745569 364.464726582 216.152350754 367.21546568 c 128,-1,90
 216.550955939 369.966204778 216.550955939 369.966204778 216.5859375 369.956054688 c 0,91,92
 219.311243105 364.007484698 219.311243105 364.007484698 223.908387222 358.426750627 c 128,-1,93
 228.505531338 352.846016555 228.505531338 352.846016555 232.034895859 349.709418807 c 128,-1,94
 235.564260381 346.572821058 235.564260381 346.572821058 243.462433853 340.250603166 c 128,-1,95
 251.360607324 333.928385273 251.360607324 333.928385273 254.974609375 330.850585938 c 0,96,97
 267.631853142 320.044145867 267.631853142 320.044145867 285.809759333 307.41431931 c 128,-1,98
 303.987665525 294.784492752 303.987665525 294.784492752 308.431640625 293.282226562 c 0,99,100
 315.087388833 291.012770767 315.087388833 291.012770767 323.030031388 289.011123786 c 128,-1,101
 330.972673943 287.009476804 330.972673943 287.009476804 335.569577987 286.068628818 c 128,-1,102
 340.166482031 285.127780833 340.166482031 285.127780833 340.171875 285.1171875 c 0,103,104
 343.24640651 279.401666312 343.24640651 279.401666312 341.306396484 276.118774414 c 128,-1,105
 339.366386458 272.835882516 339.366386458 272.835882516 329.783203125 270.264648438 c 1,106,-1
 440.916015625 159.311523438 l 1,107,108
 432.736624985 145.136058943 432.736624985 145.136058943 429.02734375 139.67578125 c 0,109,110
 425.720266567 134.800135853 425.720266567 134.800135853 422.008789062 130.18359375 c 0,111,112
 419.523179955 127.040200499 419.523179955 127.040200499 416.086914062 122.53125 c 0,113,114
 412.843541454 121.061779739 412.843541454 121.061779739 404.766601562 115.228515625 c 128,-1,115
 396.639320321 109.362572412 396.639320321 109.362572412 394.502929688 108.65234375 c 2,116,-1
 374.018554688 108.65234375 l 2,117,118
 370.789408896 108.65234375 370.789408896 108.65234375 364.846679688 110.845703125 c 0,119,120
 359.244397524 112.926550786 359.244397524 112.926550786 352.44921875 115.228515625 c 0,121,122
 346.031017497 117.395058413 346.031017497 117.395058413 340.037109375 119.608398438 c 128,-1,123
 333.986766608 121.849598602 333.986766608 121.849598602 331.947265625 122.53125 c 0,124,125
 326.673906959 125.36420103 326.673906959 125.36420103 318.46484375 130.909179688 c 128,-1,126
 310.365234375 136.437903278 310.365234375 136.437903278 310.365234375 137.865234375 c 0,127,128
 309.296875 140.043616165 309.296875 140.043616165 309.296875 148.440429688 c 0,129,130
 309.296875 157.083883698 309.296875 157.083883698 309.8515625 166.66796875 c 0,131,132
 310.28480871 174.782910961 310.28480871 174.782910961 310.921875 185.317382812 c 0,133,134
 311.466186804 194.116109569 311.466186804 194.116109569 310.365234375 196.267578125 c 0,135,136
 310.365234375 197.009382532 310.365234375 197.009382532 305.52734375 202.4609375 c 0,137,138
 300.900634532 207.68274881 300.900634532 207.68274881 293.662109375 214.875976562 c 0,139,140
 288.074220489 220.415875619 288.074220489 220.415875619 279.640625 228.750976562 c 0,141,142
 274.103855983 234.20659528 274.103855983 234.20659528 268.313476562 240.057617188 c 0,143,144
 258.756593452 247.847790896 258.756593452 247.847790896 250.515625 254.66015625 c 0,145,146
 237.623335011 265.306131695 237.623335011 265.306131695 224.62890625 276.541015625 c 0,147,148
 213.19402344 286.462439775 213.19402344 286.462439775 199.274414062 298.446289062 c 0,149,150
 188.412911661 307.844967389 188.412911661 307.844967389 183.087890625 312.326171875 c 0,151,152
 181.002224153 314.470731133 181.002224153 314.470731133 175.001953125 318.514648438 c 0,153,154
 171.228892246 321.090135849 171.228892246 321.090135849 162.060546875 327.28125 c 0,155,156
 150.615592668 335.044644068 150.615592668 335.044644068 149.120117188 336.041015625 c 0,157,158
 114.735926011 355.415190334 114.735926011 355.415190334 102.6015625 360.462890625 c 0,159,160
 63.238375942 376.937451549 63.238375942 376.937451549 46.5341796875 396.459960938 c 0,161,162
 40.6835891495 403.322507686 40.6835891495 403.322507686 40.015625 410.76953125 c 0,0,1
337.345703125 604.66015625 m 128,-1,164
 337.345703125 599.239445379 337.345703125 599.239445379 341.1171875 594.815429688 c 128,-1,165
 344.931215522 590.434570312 344.931215522 590.434570312 352.44921875 590.434570312 c 0,166,167
 361.097520008 590.434570312 361.097520008 590.434570312 364.846679688 594.815429688 c 128,-1,168
 368.624023438 599.213586878 368.624023438 599.213586878 368.624023438 604.66015625 c 128,-1,169
 368.624023438 610.199999397 368.624023438 610.199999397 364.846679688 614.883789062 c 128,-1,170
 361.088044343 619.64453125 361.088044343 619.64453125 352.44921875 619.64453125 c 0,171,172
 344.943413628 619.64453125 344.943413628 619.64453125 341.1171875 614.883789062 c 128,-1,163
 337.345703125 610.169066861 337.345703125 610.169066861 337.345703125 604.66015625 c 128,-1,164
352.44921875 210.84765625 m 0,173,-1
 352.448242188 180.93359375 l 1,174,-1
 377.249023438 180.93359375 l 1,175,176
 377.249023438 183.910119694 377.249023438 183.910119694 376.166992188 189.317382812 c 128,-1,177
 375.118969813 194.777900507 375.118969813 194.777900507 374.018554688 196.267578125 c 0,178,179
 371.837805124 197.721910423 371.837805124 197.721910423 363.78125 203.54296875 c 128,-1,180
 355.609661054 209.423030496 355.609661054 209.423030496 352.44921875 210.84765625 c 0,173,-1
EndSplineSet
EndChar

